<svg width="50" height="50" viewBox="0 0 50 50" fill="none" xmlns="http://www.w3.org/2000/svg">
<rect x="0.25" y="0.25" width="49.5" height="49.5" rx="24.75" stroke="white" stroke-width="0.5"/>
<path d="M24.625 20.9844C24.7188 20.8906 24.8594 20.8438 25 20.8438C25.0938 20.8438 25.2344 20.8906 25.3281 20.9844L34 28.0625V35.75C34 36.1719 33.625 36.5 33.25 36.5H27.9531C27.5781 36.5 27.2031 36.1719 27.2031 35.75V31.25C27.2031 30.875 26.875 30.5 26.4531 30.5H23.4531C23.0781 30.5 22.7031 30.875 22.7031 31.25V35.75C22.7031 36.1719 22.375 36.5 22 36.5H16.75C16.3281 36.5 16 36.1719 16 35.75V28.1094L24.625 20.9844ZM38.2656 25.8125C38.4062 25.9062 38.5 26.0938 38.5 26.2344C38.5 26.375 38.4531 26.5156 38.3594 26.6094L37.1406 28.0625C37.0469 28.2031 36.9062 28.25 36.7188 28.25C36.5781 28.25 36.4375 28.2031 36.3438 28.1094L25.3281 19.0625C25.2344 18.9688 25.0938 18.9219 25 18.9219C24.8594 18.9219 24.7188 18.9688 24.625 19.0625L13.6094 28.1094C13.5156 28.2031 13.375 28.25 13.2344 28.25C13.0469 28.25 12.9062 28.2031 12.8125 28.0625L11.5938 26.6094C11.5469 26.5156 11.4531 26.375 11.4531 26.2344C11.4531 26.0938 11.5469 25.9062 11.6875 25.8125L23.5469 16.0156C23.9219 15.7344 24.4375 15.5469 25 15.5469C25.5156 15.5469 26.0312 15.7344 26.4062 16.0156L30.625 19.4844V16.1094C30.625 15.7812 30.8594 15.5469 31.1875 15.5469H33.8125C34.0938 15.5469 34.375 15.7812 34.375 16.1094V22.5781L38.2656 25.8125Z" fill="white"/>
</svg>
