<svg width="50" height="50" viewBox="0 0 50 50" fill="none" xmlns="http://www.w3.org/2000/svg">
<rect x="0.25" y="0.25" width="49.5" height="49.5" rx="24.75" stroke="white" stroke-width="0.5"/>
<path d="M13.8906 15.1719C13.375 15.3125 13 15.7344 13 16.25C13 28.2969 22.75 38 34.75 38C35.3125 38 35.7344 37.6719 35.875 37.1562L37 32.2812C37.0938 31.7656 36.8594 31.2031 36.3438 30.9688L31.0938 28.7188C30.625 28.5312 30.1094 28.6719 29.7812 29.0469L27.4375 31.9062C23.7812 30.1719 20.8281 27.1719 19.1406 23.6094L22 21.2656C22.375 20.9375 22.5156 20.4219 22.3281 19.9531L20.0781 14.7031C19.8438 14.1875 19.2812 13.9062 18.7656 14.0469L13.8906 15.1719Z" fill="white"/>
</svg>
