<svg width="50" height="50" viewBox="0 0 50 50" fill="none" xmlns="http://www.w3.org/2000/svg">
<rect x="0.25" y="0.25" width="49.5" height="49.5" rx="24.75" stroke="white" stroke-width="0.5"/>
<path d="M34.75 17C35.9688 17 37 18.0312 37 19.25V32.75C37 34.0156 35.9688 35 34.75 35H15.25C13.9844 35 13 34.0156 13 32.75V19.25C13 18.0312 13.9844 17 15.25 17H34.75ZM34.75 19.25H15.25V21.1719C16.2812 22.0625 17.9688 23.375 21.5312 26.1875C22.3281 26.7969 23.875 28.2969 25 28.25C26.0781 28.2969 27.625 26.7969 28.4219 26.1875C31.9844 23.375 33.6719 22.0625 34.75 21.1719V19.25ZM15.25 32.75H34.75V24.0781C33.6719 24.9219 32.125 26.1406 29.8281 27.9688C28.75 28.7656 26.9688 30.5469 25 30.5C22.9844 30.5469 21.1562 28.7656 20.125 27.9688C17.8281 26.1406 16.2812 24.9219 15.25 24.0781V32.75Z" fill="white"/>
</svg>
