<svg width="71" height="71" viewBox="0 0 71 71" fill="none" xmlns="http://www.w3.org/2000/svg">
<g clip-path="url(#clip0_580_38)">
<path d="M71 21.4509V32.5417H64.9147L55.3445 16.9868C55.3445 16.9868 45.4134 11.8334 35.5 11.8334C25.5866 11.8334 15.6555 16.9868 15.6555 16.9868L6.08529 32.5417H0V21.4479C0 17.2649 1.6685 13.2859 4.71263 10.2418C18.2322 -3.28077 52.7619 -3.28373 66.2874 10.2418C69.3285 13.2829 71.003 17.2649 71 21.4509ZM35.5 35.5C30.6069 35.5 26.625 39.4819 26.625 44.375C26.625 49.2681 30.6069 53.25 35.5 53.25C40.3931 53.25 44.375 49.2681 44.375 44.375C44.375 39.4819 40.3931 35.5 35.5 35.5ZM71 63.6042V71H0V63.6042C0 57.7556 1.56496 51.9779 4.78363 45.94L13.1528 32.5417H13.0285L19.8149 21.513C21.9242 20.5338 28.5243 17.75 35.497 17.75C42.4698 17.75 49.0699 20.5338 51.1792 21.513L57.9656 32.5417H57.8413L66.2105 45.94C69.4291 51.9779 70.9941 57.7556 70.9941 63.6042H71ZM50.2917 44.375C50.2917 36.2189 43.6561 29.5834 35.5 29.5834C27.3439 29.5834 20.7083 36.2189 20.7083 44.375C20.7083 52.5311 27.3439 59.1667 35.5 59.1667C43.6561 59.1667 50.2917 52.5311 50.2917 44.375Z" fill="white"/>
</g>
<defs>
<clipPath id="clip0_580_38">
<rect width="71" height="71" fill="white"/>
</clipPath>
</defs>
</svg>
