<svg width="72" height="72" viewBox="0 0 72 72" fill="none" xmlns="http://www.w3.org/2000/svg">
<path d="M29.2161 45.4058C31.2808 46.1558 33.3314 46.8215 35.4695 47.3302C38.7162 48.1157 38.7162 48.1157 39.7531 49.7296C40.4372 51.0355 40.4726 52.1714 40.0777 53.5781C41.2688 53.0041 42.4085 52.3707 43.5406 51.6885C43.876 51.4878 44.2117 51.2876 44.5475 51.0875C44.6321 51.037 44.7168 50.9865 44.804 50.9345C45.8134 50.3331 46.8313 49.7465 47.8505 49.162C48.6319 48.7138 49.411 48.2624 50.1862 47.8037C53.343 45.9429 53.343 45.9429 54.984 45.4219C55.094 45.3854 55.204 45.349 55.3174 45.3115C56.6561 44.9406 58.3782 44.8966 59.6246 45.5625C60.7629 46.2556 61.3029 47.0656 61.7779 48.2871C62.0429 49.6844 61.8818 50.9395 61.2154 52.1982C60.4557 53.1222 59.5288 53.7609 58.4996 54.3516C58.2498 54.4981 58.0003 54.645 57.7509 54.7921C57.5555 54.9072 57.5555 54.9072 57.3562 55.0246C56.6612 55.4397 55.9768 55.8716 55.2916 56.3027C54.0434 57.0865 52.7886 57.8586 51.5285 58.623C50.526 59.2315 49.5277 59.8466 48.5311 60.4648C47.4043 61.1637 46.2755 61.8595 45.1455 62.5532C44.426 62.9951 43.7072 63.4378 42.9913 63.8853C42.7448 64.0393 42.498 64.1929 42.2512 64.3465C41.9429 64.5384 41.6351 64.731 41.3278 64.9244C38.6646 66.5784 36.231 67.1456 33.1383 66.4403C32.2346 66.2177 31.3375 65.9701 30.4399 65.724C30.1513 65.6459 29.8625 65.5678 29.5738 65.4898C28.8195 65.2858 28.0655 65.0805 27.3116 64.8748C26.2457 64.5843 25.1793 64.2956 24.113 64.0067C23.5463 63.8532 22.9798 63.6992 22.4133 63.5447C22.1553 63.4746 21.8973 63.4044 21.6393 63.3342C21.5226 63.3023 21.406 63.2704 21.2858 63.2375C20.2908 62.8969 20.2908 62.8969 19.3108 63.0302C19.1273 63.1501 19.1273 63.1501 18.94 63.2724C18.8158 63.352 18.6917 63.4316 18.5637 63.5136C18.4237 63.6074 18.4237 63.6074 18.2808 63.7031C18.3519 63.8273 18.4229 63.9515 18.4962 64.0794C19.071 65.1244 19.4885 65.9939 19.2652 67.2187C18.8701 68.3417 17.9779 68.9065 16.9888 69.4687C16.882 69.5298 16.7752 69.5909 16.6652 69.6538C16.4542 69.7737 16.243 69.8931 16.0314 70.0119C15.8 70.1432 15.5719 70.2804 15.3447 70.4191C14.4562 70.9314 13.5252 71.1032 12.5152 70.875C11.2916 70.3399 10.7728 69.3636 10.1685 68.2295C10.0715 68.053 9.97422 67.8767 9.87663 67.7006C9.67772 67.3407 9.48045 66.9799 9.28461 66.6183C8.86348 65.8414 8.43001 65.0714 7.99763 64.3008C7.91776 64.1575 7.8379 64.0143 7.75562 63.8667C7.19251 62.8584 6.61413 61.8599 6.02888 60.8642C5.32028 59.6588 4.63887 58.4417 3.97636 57.2103C3.47934 56.2899 2.95848 55.3867 2.4071 54.4977C1.77711 53.4595 1.55677 52.5226 1.8277 51.3281C2.46429 50.0785 3.69033 49.4891 4.86872 48.832C5.01446 48.7492 5.16021 48.6663 5.31037 48.581C6.26479 48.0446 7.03069 47.6523 8.15583 47.8125C9.27271 48.1393 9.80163 48.7356 10.3806 49.7214C10.5465 50.0625 10.5465 50.0625 10.5465 50.3437C10.6381 50.2909 10.7297 50.238 10.8241 50.1836C11.103 50.0226 11.382 49.8617 11.661 49.7007C11.9877 49.5123 12.3143 49.3238 12.641 49.1353C13.4146 48.6889 14.1883 48.2425 14.9624 47.7969C15.2079 47.6556 15.4534 47.5142 15.6988 47.3728C16.006 47.1959 16.3132 47.0191 16.6205 46.8424C17.2873 46.4581 17.9509 46.0704 18.6082 45.6702C22.3361 43.4265 25.3745 44.0068 29.2161 45.4058Z" fill="#C8C8C8"/>
<path d="M42.7006 15.1974C44.3468 16.6163 45.6424 18.4509 45.8437 20.6719C45.9786 22.8658 45.6617 25.0472 44.1892 26.7676C43.7269 27.2846 43.2403 27.7753 42.75 28.2656C42.8945 28.3354 43.0389 28.4052 43.1878 28.4771C44.983 29.3531 46.5805 30.3225 48.0937 31.6406C48.18 31.715 48.2663 31.7893 48.3552 31.8658C50.7193 34.0611 52.3522 37.4891 52.6223 40.6989C52.6401 41.5368 52.6401 41.5368 52.4092 41.9766C51.8952 42.4334 51.2766 42.3482 50.63 42.3469C50.4569 42.3474 50.4569 42.3474 50.2803 42.3479C49.8923 42.3488 49.5043 42.3487 49.1163 42.3486C48.8387 42.349 48.5611 42.3495 48.2835 42.35C47.5283 42.3512 46.7732 42.3516 46.0181 42.3516C45.3883 42.3518 44.7586 42.3523 44.1288 42.3528C42.6434 42.3539 41.1581 42.3543 39.6727 42.3542C38.1389 42.3541 36.6051 42.3556 35.0714 42.3578C33.7557 42.3596 32.4401 42.3604 31.1245 42.3603C30.3382 42.3603 29.5519 42.3607 28.7656 42.3622C28.0263 42.3635 27.2871 42.3635 26.5478 42.3625C26.2761 42.3624 26.0045 42.3627 25.7328 42.3635C25.3626 42.3646 24.9924 42.364 24.6222 42.3629C24.5142 42.3636 24.4061 42.3643 24.2948 42.3651C23.7711 42.3617 23.36 42.3518 22.9219 42.0469C22.4235 41.3489 22.6665 40.4524 22.7812 39.6563C23.5237 35.9116 25.6928 32.4443 28.8281 30.2344C30.0277 29.4594 31.3101 28.82 32.625 28.2656C32.5568 28.2125 32.4887 28.1594 32.4185 28.1047C30.6738 26.6721 29.6244 24.7469 29.3906 22.5C29.2051 20.26 29.8869 18.0455 31.3399 16.3277C34.2519 13.0864 39.2208 12.4772 42.7006 15.1974Z" fill="white"/>
<path d="M27.7864 47.372C28.5495 47.6552 29.3165 47.9274 30.0833 48.2003C30.2321 48.2535 30.3808 48.3067 30.5341 48.3615C32.4629 49.0467 34.425 49.584 36.4318 49.9888C37.0248 50.15 37.4242 50.4778 37.8105 50.9414C38.0941 51.6347 38.0422 52.2146 37.8281 52.9102C37.4524 53.4268 37.0352 53.6844 36.4219 53.8594C35.4589 53.9556 34.5774 53.6691 33.6533 53.4199C33.486 53.3759 33.3186 53.3318 33.1462 53.2864C31.9959 52.9803 30.8534 52.6519 29.722 52.2814C29.0781 52.0773 28.5282 51.9736 27.8438 52.0313C27.4833 52.2394 27.4833 52.2394 27.2812 52.5938C27.2021 53.0686 27.1993 53.3163 27.4713 53.7188C28.045 54.152 28.6808 54.2593 29.373 54.4219C29.6695 54.4949 29.966 54.5682 30.2624 54.6416C30.4759 54.6938 30.4759 54.6938 30.6938 54.7471C31.14 54.8593 31.5789 54.9896 32.0186 55.125C33.0083 55.4102 34.0106 55.6384 35.0156 55.8633C35.2611 55.9204 35.2611 55.9204 35.5115 55.9787C37.2754 56.3634 38.9168 56.3942 40.6406 55.8281C40.7632 55.7884 40.8857 55.7487 41.012 55.7078C42.4335 55.1778 43.7068 54.3297 45.0004 53.5496C45.6939 53.1338 46.3928 52.7277 47.0918 52.3213C47.3742 52.1569 47.6565 51.9925 47.9388 51.828C48.0796 51.746 48.2205 51.6641 48.3655 51.5796C48.8044 51.3238 49.2429 51.0673 49.6813 50.8107C50.3852 50.3987 51.0899 49.988 51.7952 49.5784C52.0347 49.4392 52.2739 49.2996 52.5128 49.1596C54.022 48.2762 55.3601 47.4942 57.1465 47.4697C57.2419 47.4683 57.3374 47.4668 57.4357 47.4653C58.2278 47.4796 58.6552 47.7297 59.2471 48.2256C59.6172 48.8973 59.5915 49.5935 59.4844 50.3438C59.1957 51.202 58.6723 51.505 57.9287 51.9434C57.8119 52.0147 57.6951 52.0859 57.5747 52.1594C57.318 52.3159 57.0608 52.4715 56.8032 52.6263C56.2265 52.9739 55.6542 53.3285 55.0815 53.6824C54.4585 54.0671 53.8344 54.4499 53.2104 54.8329C52.4273 55.3135 51.6448 55.7949 50.8623 56.2764C50.6335 56.4172 50.6335 56.4172 50.4 56.5608C49.4663 57.1355 48.5335 57.7116 47.6016 58.2891C46.3625 59.0569 45.1223 59.8227 43.8796 60.5846C43.1618 61.0249 42.4452 61.4667 41.7333 61.9165C41.4891 62.0708 41.2445 62.2244 40.9997 62.3777C40.6948 62.5691 40.3906 62.7617 40.0874 62.9557C38.0196 64.2482 36.1971 64.7814 33.806 64.2404C32.9838 64.0372 32.171 63.8041 31.3594 63.5625C31.1464 63.4999 30.9335 63.4373 30.7205 63.3747C30.4304 63.289 30.1405 63.203 29.8508 63.1158C28.9877 62.858 28.1158 62.6432 27.2409 62.4295C26.3927 62.2204 25.5535 61.9877 24.7148 61.7432C23.6111 61.4242 22.5046 61.1181 21.3926 60.8291C21.2513 60.791 21.1101 60.7528 20.9645 60.7135C20.0068 60.4691 19.3038 60.3704 18.3933 60.8434C18.2519 60.9344 18.1105 61.0254 17.9648 61.1192C17.532 61.3971 17.532 61.3971 17.1562 61.5938C16.6094 61.4115 16.5703 61.2281 16.301 60.7275C16.2172 60.5739 16.1334 60.4202 16.0471 60.2619C15.981 60.1385 15.981 60.1385 15.9135 60.0125C15.6807 59.5785 15.4438 59.1468 15.2073 58.7148C15.1349 58.5823 15.1349 58.5823 15.0611 58.4471C14.503 57.4274 13.9144 56.4259 13.3235 55.4249C12.9354 54.7659 12.5517 54.1046 12.1778 53.4375C12.1077 53.3128 12.0375 53.1881 11.9652 53.0596C11.8125 52.7344 11.8125 52.7344 11.8125 52.3125C12.0363 52.1834 12.26 52.0543 12.4838 51.9253C12.63 51.8409 12.7761 51.7566 12.9268 51.6696C13.2544 51.4806 13.5821 51.2917 13.9098 51.1028C14.7514 50.6177 15.5923 50.1317 16.4317 49.6428C17.8203 48.8353 19.21 48.0316 20.6279 47.2764C20.7331 47.2198 20.8382 47.1632 20.9465 47.1048C21.0449 47.0532 21.1434 47.0016 21.2448 46.9484C21.3283 46.9044 21.4118 46.8604 21.4979 46.8151C23.7248 45.8651 25.6537 46.5798 27.7864 47.372Z" fill="white"/>
<path d="M42.7498 1.59728C43.8955 1.84231 45.0129 2.16358 46.1248 2.53126C46.243 2.57035 46.3612 2.60943 46.483 2.6497C50.1269 3.88526 53.4822 5.78067 56.3904 8.29688C56.5003 8.39115 56.6101 8.48541 56.7233 8.58253C57.0877 8.90271 57.4432 9.23033 57.7967 9.56251C57.875 9.63606 57.9533 9.70961 58.0341 9.78539C59.4262 11.1038 60.6192 12.5043 61.7342 14.0625C61.8262 14.1884 61.8262 14.1884 61.9201 14.3168C66.1473 20.1311 67.6628 27.0976 67.4998 34.1719C67.6587 34.1679 67.6587 34.1679 67.8209 34.1638C67.96 34.1618 68.0991 34.1597 68.2425 34.1576C68.4493 34.1536 68.4493 34.1536 68.6602 34.1496C69.2142 34.1816 69.4918 34.3557 69.8904 34.7344C70.2282 35.2138 70.3089 35.5105 70.3387 36.0967C70.1847 36.9542 69.5762 37.5879 69.0467 38.25C68.9251 38.4057 68.8037 38.5615 68.6825 38.7175C68.424 39.0494 68.1639 39.3799 67.9025 39.7095C67.6334 40.0489 67.3665 40.3898 67.1016 40.7324C64.9527 43.5053 64.9527 43.5053 64.2654 43.7344C63.4456 43.8117 63.0869 43.6632 62.4373 43.1719C62.1017 42.817 62.1017 42.817 61.7781 42.416C61.7187 42.3429 61.6594 42.2699 61.5982 42.1946C61.4076 41.959 61.2191 41.722 61.0311 41.4844C60.9371 41.3661 60.9371 41.3661 60.8413 41.2454C60.4531 40.7559 60.0682 40.2639 59.6841 39.7712C59.4779 39.5076 59.2703 39.2451 59.0623 38.9828C58.9931 38.8954 58.924 38.808 58.8527 38.718C58.7214 38.5521 58.5899 38.3864 58.4581 38.221C57.2513 36.6931 57.2513 36.6931 57.2342 35.7188C57.4049 35.1263 57.573 34.8115 58.0252 34.3916C58.4873 34.1777 58.6732 34.147 59.1623 34.1581C59.2755 34.1601 59.3886 34.1621 59.5053 34.1642C59.634 34.168 59.634 34.168 59.7654 34.1719C59.6917 29.8998 59.2833 25.9726 57.3748 22.0781C57.3286 21.9818 57.2824 21.8854 57.2349 21.7862C56.1927 19.6306 54.813 17.7581 53.1561 16.0313C53.0326 15.8989 52.9092 15.7666 52.782 15.6303C50.2791 12.9953 47.143 11.1854 43.7342 9.98438C43.6361 9.94926 43.538 9.91414 43.437 9.87795C41.9641 9.36243 40.4765 9.12237 38.9276 8.94466C38.7772 8.92522 38.6267 8.90578 38.4717 8.88575C38.3375 8.87034 38.2032 8.85493 38.0648 8.83906C37.526 8.66736 37.3144 8.47726 36.9842 8.01563C36.884 7.53709 36.8889 7.06995 36.8957 6.58247C36.8954 6.44434 36.8951 6.30621 36.8947 6.16389C36.8949 5.87253 36.8967 5.58116 36.9002 5.28982C36.9051 4.84378 36.9031 4.39812 36.9004 3.95207C36.9014 3.66871 36.9027 3.38535 36.9045 3.102C36.9035 2.90203 36.9035 2.90203 36.9024 2.69803C36.9189 1.77939 36.9189 1.77939 37.2436 1.32252C38.5514 0.470206 41.3354 1.31557 42.7498 1.59728Z" fill="white"/>
<path d="M45.4219 32.4404C47.2518 33.9745 48.5241 35.57 49.5 37.7402C49.5409 37.8304 49.5818 37.9207 49.624 38.0136C49.9123 38.6906 49.9661 39.1664 50.0625 39.9375C41.8486 39.9375 33.6347 39.9375 25.1719 39.9375C25.8173 36.7103 27.6493 33.9177 30.3849 32.0487C35.003 29.1283 40.9884 29.023 45.4219 32.4404Z" fill="#C8C8C8"/>
<path d="M39.2344 3.51562C40.5008 3.51562 40.5008 3.51562 40.9993 3.62384C41.1083 3.64701 41.2172 3.67018 41.3294 3.69405C41.4415 3.71928 41.5535 3.74451 41.6689 3.77051C41.7874 3.79655 41.9059 3.8226 42.028 3.84944C42.3628 3.92396 42.6971 4.00049 43.0312 4.07812C43.2384 4.12598 43.2384 4.12598 43.4498 4.1748C48.078 5.35021 52.2624 7.64156 55.7364 10.9034C56.033 11.1791 56.3329 11.4413 56.6455 11.6982C57.1835 12.1564 57.6283 12.6752 58.0781 13.2188C58.1378 13.2892 58.1974 13.3597 58.2589 13.4323C62.8791 18.9052 65.1923 25.52 65.1885 32.6514C65.189 33.1077 65.1903 33.564 65.1942 34.0204C65.1966 34.3009 65.197 34.5813 65.1952 34.8618C65.1962 34.9869 65.1971 35.112 65.1981 35.2409C65.198 35.3506 65.1979 35.4602 65.1977 35.5732C65.2642 35.9369 65.3799 36.0601 65.6719 36.2812C66.0885 36.3627 66.0885 36.3627 66.542 36.3779C66.7712 36.3918 66.7712 36.3918 67.0051 36.4059C67.122 36.4112 67.2389 36.4165 67.3594 36.4219C67.1769 36.8134 66.9759 37.1352 66.7002 37.4672C66.6257 37.5577 66.5513 37.6481 66.4745 37.7413C66.3953 37.8367 66.316 37.932 66.2344 38.0303C65.4159 39.0252 64.6223 40.0361 63.8438 41.0625C63.3164 40.5551 62.8578 40.0243 62.4111 39.4453C62.3453 39.3606 62.2794 39.2759 62.2116 39.1887C62.0744 39.0121 61.9375 38.8354 61.8008 38.6585C61.5948 38.392 61.3878 38.1262 61.1807 37.8605C61.0517 37.6945 60.9228 37.5284 60.7939 37.3623C60.7329 37.284 60.6719 37.2057 60.609 37.125C60.1875 36.5787 60.1875 36.5787 60.1875 36.4219C60.6516 36.3291 61.1156 36.2363 61.5938 36.1406C63.2353 31.8725 61.6451 25.7739 59.8656 21.7645C58.5998 18.9903 56.9443 16.5572 54.8438 14.3438C54.7811 14.2772 54.7184 14.2107 54.6538 14.1422C50.504 9.76591 45.1066 7.51575 39.2344 6.60938C39.2344 5.58844 39.2344 4.5675 39.2344 3.51562Z" fill="#C8C8C8"/>
<path d="M41.0047 16.8201C42.1915 17.6796 43.1362 18.9428 43.4536 20.3906C43.6368 22.2985 43.4282 23.8338 42.3022 25.4268C41.3515 26.5602 40.0112 27.4227 38.5246 27.5962C36.6358 27.7444 35.1014 27.3974 33.6147 26.159C32.2188 24.7738 31.736 23.2515 31.7275 21.3272C31.7575 19.8095 32.4064 18.5127 33.4692 17.4375C33.9136 17.0604 34.3728 16.7475 34.8754 16.4531C34.9789 16.3919 35.0824 16.3306 35.1891 16.2675C37.0248 15.3638 39.3338 15.7802 41.0047 16.8201Z" fill="#C8C8C8"/>
<path d="M9.67975 17.7798C10.2102 17.9183 10.6411 18.1918 11.1008 18.4834C11.3087 18.6111 11.5167 18.7388 11.7248 18.8663C11.831 18.9321 11.9372 18.9979 12.0467 19.0657C12.3784 19.2676 12.7139 19.4608 13.0519 19.6518C13.1609 19.7138 13.2698 19.7758 13.3821 19.8397C13.5917 19.9587 13.8017 20.0767 14.0124 20.1937C14.3855 20.4083 14.7081 20.5968 14.9729 20.941C15.1679 21.7125 15.0151 22.2357 14.6779 22.9395C13.7455 24.9875 13.1483 27.249 12.8751 29.4802C12.8551 29.642 12.8352 29.8039 12.8146 29.9707C12.8005 30.1132 12.7864 30.2557 12.7718 30.4025C12.6111 30.9519 12.4081 31.1498 11.9533 31.5C11.4872 31.602 11.0315 31.5953 10.5558 31.5884C10.3538 31.5889 10.3538 31.5889 10.1477 31.5895C9.86358 31.5893 9.57943 31.5875 9.2953 31.5839C8.86098 31.5791 8.42706 31.581 7.99273 31.5838C7.71624 31.5828 7.43975 31.5814 7.16326 31.5797C7.03375 31.5803 6.90424 31.581 6.77081 31.5818C6.18101 31.571 5.84749 31.5489 5.33242 31.2406C4.84886 30.6973 4.97506 30.0659 5.00445 29.3796C5.2316 26.2808 6.05493 23.2734 7.18963 20.3906C7.23354 20.2789 7.27746 20.1672 7.3227 20.0521C8.34227 17.5696 8.34227 17.5696 9.67975 17.7798Z" fill="white"/>
<path d="M19.9684 6.04688C20.5806 6.56552 20.9503 7.1606 21.3395 7.84864C21.3991 7.95256 21.4587 8.05649 21.5201 8.16357C21.6442 8.38028 21.7679 8.59725 21.8911 8.81447C22.0742 9.13437 22.2615 9.45134 22.4502 9.76795C22.5663 9.96602 22.6824 10.1641 22.7985 10.3623C22.8533 10.4532 22.9082 10.5441 22.9648 10.6377C23.2842 11.192 23.4534 11.596 23.3434 12.2344C22.9755 12.8198 22.4903 13.1825 21.9371 13.5879C19.9227 15.1029 18.2934 16.8829 16.7768 18.8899C16.4916 19.2554 16.378 19.3939 15.91 19.4815C15.0541 19.4552 14.3216 18.9039 13.6051 18.4834C13.3797 18.3549 13.3797 18.3549 13.1497 18.2239C10.3891 16.6389 10.3891 16.6389 9.984 16.0313C9.87037 14.9466 10.5043 14.2274 11.151 13.4098C11.5939 12.8669 12.0537 12.3396 12.5152 11.8125C12.5974 11.7146 12.6795 11.6167 12.7641 11.5159C17.6138 5.76987 17.6138 5.76987 19.9684 6.04688Z" fill="white"/>
<path d="M7.03984 32.9672C7.17783 32.9663 7.31583 32.9655 7.45801 32.9646C7.74961 32.9636 8.04122 32.964 8.33282 32.9658C8.7786 32.9677 9.22395 32.963 9.66969 32.9576C9.95323 32.9575 10.2368 32.9577 10.5203 32.9584C10.6533 32.9565 10.7864 32.9547 10.9234 32.9528C11.5476 32.9616 11.862 32.9824 12.3832 33.3494C12.6894 33.7981 12.7736 34.0862 12.8395 34.6228C12.8632 34.7937 12.8869 34.9647 12.9112 35.1407C12.9462 35.4138 12.9462 35.4138 12.9818 35.6924C13.3123 38.0119 13.9232 40.2147 14.9419 42.3338C15.1232 42.8082 15.0698 43.1221 14.9066 43.5937C14.3573 44.1015 13.7917 44.4785 13.1389 44.8478C13.054 44.8961 12.9692 44.9444 12.8817 44.9941C12.6138 45.1463 12.3451 45.2972 12.0765 45.4482C11.8954 45.551 11.7143 45.6538 11.5332 45.7567C11.065 46.0221 10.5966 46.2868 10.1253 46.5468C10.0244 46.6036 9.92345 46.6604 9.81945 46.719C9.37302 46.9088 9.03533 46.8098 8.57847 46.6875C6.35711 44.3612 5.68061 39.8976 5.20347 36.8437C5.17664 36.678 5.14982 36.5124 5.12217 36.3416C5.0549 35.7947 5.02666 35.2585 5.0189 34.708C5.01482 34.6098 5.01074 34.5117 5.00654 34.4105C5.00115 33.9745 5.02258 33.6725 5.25943 33.301C5.82436 32.9086 6.36718 32.9637 7.03984 32.9672Z" fill="white"/>
<path d="M33.7763 1.08104C33.8744 1.07696 33.9726 1.07288 34.0737 1.06868C34.5098 1.06328 34.8118 1.08472 35.1832 1.32157C35.5757 1.88649 35.5206 2.42931 35.5171 3.10197C35.5179 3.23997 35.5188 3.37796 35.5197 3.52014C35.5207 3.81174 35.5203 4.10336 35.5185 4.39496C35.5165 4.84073 35.5213 5.28609 35.5267 5.73182C35.5268 6.01536 35.5265 6.2989 35.5259 6.58244C35.5277 6.71547 35.5296 6.84849 35.5315 6.98555C35.5226 7.6148 35.5032 7.92394 35.1281 8.44661C34.711 8.73484 34.4689 8.82534 33.9696 8.88078C33.822 8.89952 33.6744 8.91826 33.5224 8.93756C33.3654 8.95526 33.2085 8.97296 33.0468 8.99119C30.7785 9.29412 28.6393 9.82097 26.5654 10.8001C26.0122 11.0281 25.5375 11.1881 24.9609 10.9863C23.9668 10.1414 23.3698 8.76658 22.7372 7.64647C22.6483 7.49274 22.5594 7.33902 22.4678 7.18064C21.6148 5.67033 21.6148 5.67033 21.6562 4.92186C22.6653 3.15144 26.3196 2.4771 28.1249 1.96873C29.9687 1.51729 31.8729 1.10784 33.7763 1.08104Z" fill="white"/>
<path d="M7.87457 50.2031C8.09783 50.4579 8.09783 50.4579 8.28711 50.8123C8.35814 50.9413 8.42918 51.0703 8.50237 51.2032C8.60926 51.4043 8.60926 51.4043 8.71832 51.6094C8.85711 51.8534 8.99645 52.0971 9.13635 52.3405C9.28137 52.5977 9.4262 52.8549 9.57086 53.1123C9.73272 53.3994 9.89459 53.6865 10.0565 53.9736C10.1381 54.1187 10.2198 54.2637 10.3039 54.4131C10.6802 55.0813 11.057 55.7492 11.4341 56.417C11.5085 56.5487 11.5828 56.6803 11.6594 56.816C12.3131 57.9723 12.9729 59.1251 13.6331 60.2778C14.4208 61.6537 15.1989 63.0347 15.9706 64.4196C16.0465 64.5557 16.1224 64.6918 16.2006 64.832C16.2665 64.9505 16.3325 65.0691 16.4004 65.1912C16.5925 65.5404 16.5925 65.5404 16.8376 65.8914C17.0152 66.2344 17.0152 66.2344 17.0032 66.5378C16.8393 66.8679 16.6827 66.9649 16.3626 67.1446C16.2584 67.2043 16.1541 67.2641 16.0467 67.3256C15.9371 67.386 15.8274 67.4465 15.7144 67.5088C15.6069 67.5698 15.4994 67.6308 15.3887 67.6936C15.1801 67.8119 14.971 67.9291 14.7611 68.045C14.4604 68.2116 14.4604 68.2116 14.0994 68.4662C13.687 68.6718 13.5114 68.6226 13.0777 68.4844C12.8787 68.2598 12.8787 68.2598 12.719 67.9631C12.6567 67.8506 12.5945 67.7382 12.5304 67.6224C12.4645 67.4979 12.3985 67.3734 12.3306 67.2451C12.1815 66.9739 12.0323 66.7027 11.8829 66.4316C11.7639 66.2129 11.7639 66.2129 11.6424 65.9899C11.2466 65.2701 10.8358 64.5589 10.4261 63.847C9.57925 62.3737 8.74561 60.8932 7.91776 59.4092C7.18635 58.1 6.44253 56.798 5.69543 55.4977C5.51983 55.1916 5.34493 54.885 5.17083 54.578C5.00432 54.286 4.83511 53.9955 4.66327 53.7065C4.58459 53.571 4.50592 53.4354 4.42486 53.2958C4.35444 53.177 4.28401 53.0583 4.21145 52.9359C4.04502 52.5102 4.05144 52.3152 4.21832 51.8906C4.49421 51.6559 4.49421 51.6559 4.85333 51.4528C4.98294 51.3789 5.11255 51.3051 5.24609 51.229C5.38259 51.1544 5.51909 51.0798 5.65973 51.0029C5.79405 50.9256 5.92837 50.8483 6.06677 50.7686C7.27021 50.095 7.27021 50.095 7.87457 50.2031Z" fill="#C8C8C8"/>
<path d="M27.4131 47.25C27.6337 47.3316 27.8544 47.4129 28.0753 47.4939C28.6089 47.6903 29.1407 47.8908 29.6719 48.0937C29.2105 48.477 28.7496 48.8014 28.2288 49.0984C28.085 49.1809 27.9412 49.2634 27.793 49.3484C27.6386 49.4361 27.4843 49.5238 27.3252 49.6143C27.1615 49.7079 26.9979 49.8015 26.8343 49.8953C26.495 50.0896 26.1555 50.2837 25.8159 50.4776C25.0429 50.9194 24.2727 51.3658 23.502 51.8115C22.5528 52.3599 21.6026 52.9064 20.6499 53.4485C19.127 54.3152 17.6051 55.1828 16.1016 56.083C15.9873 56.1513 15.873 56.2196 15.7553 56.2899C15.2655 56.5853 14.798 56.8859 14.3438 57.2344C14.2821 57.123 14.2204 57.0117 14.1568 56.897C13.9265 56.4815 13.6962 56.0661 13.4657 55.6508C13.3662 55.4715 13.2668 55.2921 13.1674 55.1127C13.0241 54.854 12.8805 54.5954 12.737 54.3367C12.6078 54.1037 12.6078 54.1037 12.4759 53.8659C12.3215 53.592 12.1607 53.3215 11.992 53.0561C11.8125 52.7344 11.8125 52.7344 11.8125 52.3125C12.0363 52.1834 12.26 52.0543 12.4838 51.9252C12.63 51.8409 12.7761 51.7565 12.9268 51.6696C13.2544 51.4806 13.5821 51.2917 13.9098 51.1028C14.7514 50.6177 15.5923 50.1316 16.4317 49.6428C17.8203 48.8352 19.21 48.0316 20.6279 47.2764C20.7331 47.2198 20.8382 47.1631 20.9465 47.1048C21.0449 47.0532 21.1434 47.0016 21.2448 46.9484C21.3283 46.9044 21.4118 46.8604 21.4979 46.815C23.583 45.9256 25.4216 46.4873 27.4131 47.25Z" fill="white"/>
<path d="M9.70312 20.5312C10.6081 20.9771 11.5062 21.4241 12.375 21.9375C12.2735 22.5671 12.0595 23.144 11.8389 23.7393C11.187 25.5481 10.7855 27.3412 10.5469 29.25C9.52594 29.25 8.505 29.25 7.45312 29.25C7.52588 28.0132 7.6772 26.8512 7.96289 25.6465C7.99955 25.4895 8.03622 25.3325 8.07399 25.1707C8.45688 23.5906 8.9335 21.9724 9.70312 20.5312Z" fill="#C8C8C8"/>
<path d="M7.45323 35.2969C8.47417 35.2969 9.4951 35.2969 10.547 35.2969C10.5934 35.6623 10.6398 36.0278 10.6876 36.4043C10.9267 38.0616 11.4448 39.6331 11.9653 41.22C12.1114 41.6802 12.2425 42.1451 12.3751 42.6094C11.1221 43.3055 11.1221 43.3055 9.84385 44.0156C9.5021 43.56 9.33609 43.2928 9.14952 42.7808C9.10224 42.6517 9.05496 42.5226 9.00625 42.3895C8.9336 42.1851 8.9336 42.1851 8.85948 41.9766C8.80932 41.8362 8.75917 41.6958 8.70749 41.5512C8.13145 39.9174 7.79278 38.3027 7.53068 36.5938C7.51569 36.4963 7.5007 36.3988 7.48526 36.2983C7.4496 35.9662 7.45323 35.6309 7.45323 35.2969Z" fill="#C8C8C8"/>
<path d="M19.1216 9.0292C19.4838 9.17099 19.5563 9.3071 19.738 9.64657C19.821 9.79816 19.821 9.79816 19.9056 9.95281C19.9612 10.0589 20.0169 10.1651 20.0742 10.2744C20.132 10.3811 20.1899 10.4878 20.2495 10.5977C20.3919 10.8611 20.5321 11.1258 20.6719 11.3906C20.1903 11.8792 19.6961 12.346 19.1865 12.8057C17.8419 14.0317 16.5657 15.2762 15.4688 16.7344C13.6871 15.8695 13.6871 15.8695 12.9375 15.3281C13.2239 13.4774 16.2122 11.1561 17.5781 9.9844C17.6963 9.88198 17.8145 9.77956 17.9363 9.67403C18.7604 8.99127 18.7604 8.99127 19.1216 9.0292Z" fill="#C8C8C8"/>
<path d="M33.1875 3.51563C33.1916 4.00488 33.1941 4.49414 33.1963 4.9834C33.1975 5.12307 33.1986 5.26275 33.1999 5.40665C33.2003 5.53943 33.2008 5.67222 33.2012 5.80902C33.202 5.93201 33.2027 6.05499 33.2035 6.1817C33.1875 6.46875 33.1875 6.46875 33.0469 6.60938C32.8356 6.65275 32.6228 6.68871 32.4097 6.72144C32.2763 6.74275 32.143 6.76406 32.0056 6.78602C31.7902 6.8204 31.7902 6.8204 31.5703 6.85547C30.5221 7.02999 29.4953 7.22772 28.4766 7.53223C28.3835 7.56001 28.2904 7.58779 28.1945 7.61641C27.7489 7.7554 27.3285 7.91655 26.9077 8.11615C26.4375 8.29688 26.4375 8.29688 26.0667 8.3238C25.5212 8.04877 25.3293 7.55184 25.0576 7.02246C25.0004 6.91578 24.9432 6.8091 24.8843 6.69919C24.7436 6.43603 24.6059 6.17128 24.4688 5.90625C24.9925 5.44537 25.5893 5.24356 26.2354 5.00977C26.3525 4.96705 26.4697 4.92432 26.5905 4.8803C28.711 4.12527 30.926 3.48522 33.1875 3.51563Z" fill="#C8C8C8"/>
<path d="M29.5099 50.8475C29.9814 50.9651 30.4495 51.0919 30.9176 51.2221C31.0892 51.2686 31.2607 51.3151 31.4374 51.363C31.8908 51.4861 32.3438 51.6104 32.7967 51.7353C33.4355 51.9112 34.0751 52.0847 34.7145 52.2586C35.0542 52.3511 35.3939 52.4441 35.7334 52.5375C35.8873 52.5797 36.0413 52.6219 36.2 52.6654C36.3349 52.7026 36.4699 52.7397 36.6089 52.778C36.9669 52.8704 37.3247 52.9469 37.688 53.0156C37.1816 53.5783 36.7782 53.8294 36.018 53.8935C35.2074 53.8833 34.431 53.6295 33.6538 53.4199C33.4864 53.3759 33.3191 53.3318 33.1466 53.2864C31.9963 52.9803 30.8538 52.6519 29.7225 52.2814C28.9311 52.0305 28.2332 51.9016 27.4223 52.1719C27.3781 51.6858 27.369 51.4127 27.6333 50.9942C28.2277 50.6078 28.8413 50.7107 29.5099 50.8475Z" fill="#C8C8C8"/>
<path d="M43.3125 31.2188C46.2136 32.5026 48.2228 34.8999 49.5 37.7402C49.5409 37.8305 49.5818 37.9207 49.624 38.0136C49.8974 38.6557 50.0009 39.2425 50.0625 39.9375C49.6448 39.9375 49.2272 39.9375 48.7969 39.9375C48.7592 39.8012 48.7215 39.6649 48.6826 39.5244C47.8408 36.5982 46.3103 33.4741 43.6877 31.7554C43.5639 31.6711 43.4401 31.5868 43.3125 31.5C43.3125 31.4072 43.3125 31.3144 43.3125 31.2188Z" fill="white"/>
<path d="M41.0625 17.0156C42.1611 17.515 42.879 18.7398 43.3125 19.8281C43.7226 21.2689 43.6301 23.0508 42.9692 24.3858C42.4713 25.2131 41.9699 26.025 41.0625 26.4375C41.2189 25.9826 41.4222 25.6051 41.6865 25.207C42.5746 23.8186 42.8039 22.14 42.5396 20.5274C42.296 19.4579 41.9251 18.4332 41.2515 17.5562C41.0625 17.2969 41.0625 17.2969 41.0625 17.0156Z" fill="#C8C8C8"/>
<path d="M7.45277 52.1718C7.86586 52.4619 7.86586 52.4619 8.1559 52.875C8.1559 53.3699 8.10402 53.6975 7.86586 54.1318C7.41635 54.3783 6.96771 54.354 6.4684 54.2812C6.18715 54.1406 6.18715 54.1406 6.04652 53.8593C5.93977 52.8986 5.93977 52.8986 6.27504 52.3828C6.71634 52.1041 6.93931 52.0775 7.45277 52.1718Z" fill="white"/>
</svg>
