<svg width="61" height="61" viewBox="0 0 61 61" fill="none" xmlns="http://www.w3.org/2000/svg">
<path fill-rule="evenodd" clip-rule="evenodd" d="M5.41603 16.6751C5.41603 17.2073 4.9755 17.6388 4.43216 17.6388C3.88882 17.6388 3.44829 17.2073 3.44829 16.6751V9.75703C3.44829 8.34715 4.03652 7.06591 4.98411 6.13783C5.9317 5.20976 7.23976 4.63364 8.67941 4.63364H15.7431C16.2864 4.63364 16.727 5.0651 16.727 5.59725C16.727 6.1294 16.2864 6.56086 15.7431 6.56086H8.67941C7.78298 6.56086 6.96723 6.92077 6.37543 7.5005C5.78351 8.08023 5.41603 8.87918 5.41603 9.75703V16.6751ZM30.4999 40.934C33.1655 40.934 35.3263 43.0505 35.3263 45.661C35.3263 48.2717 33.1655 50.388 30.4999 50.388C27.8344 50.388 25.6736 48.2717 25.6736 45.661C25.6736 43.0504 27.8344 40.934 30.4999 40.934ZM30.4999 51.6507C34.7876 51.6507 38.4152 54.4194 39.6203 58.2309C39.8321 58.9005 39.717 59.5669 39.2923 60.1311C38.8676 60.6954 38.2519 61 37.5361 61H23.4639C22.7481 61 22.1324 60.6953 21.7077 60.1311C21.283 59.5667 21.1679 58.9005 21.3797 58.2309C22.5847 54.4194 26.2122 51.6507 30.4999 51.6507ZM9.22373 20.4671C11.8893 20.4671 14.0501 22.5834 14.0501 25.1941C14.0501 27.8047 11.8892 29.9211 9.22373 29.9211C6.55818 29.9211 4.39736 27.8047 4.39736 25.1941C4.39736 22.5834 6.5583 20.4671 9.22373 20.4671ZM9.22373 31.1837C13.5114 31.1837 17.139 33.9524 18.3441 37.764C18.5559 38.4336 18.4408 39.0999 18.0161 39.6641C17.5914 40.2284 16.9757 40.5332 16.2599 40.5332H2.18771C1.47194 40.5332 0.856159 40.2284 0.431496 39.6641C0.00683306 39.0999 -0.10828 38.4336 0.103498 37.764C1.30849 33.9524 4.93615 31.1837 9.22373 31.1837ZM51.7761 20.4671C54.4417 20.4671 56.6025 22.5834 56.6025 25.1941C56.6025 27.8047 54.4416 29.9211 51.7761 29.9211C49.1106 29.9211 46.9498 27.8047 46.9498 25.1941C46.9498 22.5834 49.1106 20.4671 51.7761 20.4671ZM51.7761 31.1837C56.0639 31.1837 59.6914 33.9524 60.8965 37.764C61.1083 38.4336 60.9932 39.0999 60.5685 39.6641C60.1438 40.2284 59.5281 40.5332 58.8123 40.5332H44.7401C44.0243 40.5332 43.4086 40.2284 42.9839 39.6641C42.5592 39.0999 42.4441 38.4336 42.6559 37.764C43.8609 33.9524 47.4886 31.1837 51.7761 31.1837ZM30.4999 0C33.1655 0 35.3263 2.11645 35.3263 4.72699C35.3263 7.33765 33.1655 9.45398 30.4999 9.45398C27.8344 9.45398 25.6736 7.33765 25.6736 4.72699C25.6736 2.11645 27.8344 0 30.4999 0ZM30.4999 10.7168C34.7876 10.7168 38.4152 13.4855 39.6203 17.297C39.8321 17.9666 39.717 18.633 39.2923 19.1972C38.8676 19.7615 38.2519 20.0662 37.5361 20.0662H23.4639C22.7481 20.0662 22.1324 19.7615 21.7077 19.1972C21.283 18.633 21.1679 17.9666 21.3797 17.297C22.5847 13.4855 26.2122 10.7168 30.4999 10.7168ZM45.2568 6.56074C44.7134 6.56074 44.2729 6.12928 44.2729 5.59713C44.2729 5.06497 44.7134 4.63352 45.2568 4.63352H52.3205C53.7601 4.63352 55.0682 5.20964 56.0158 6.13771C56.9634 7.06579 57.5516 8.34703 57.5516 9.75691V16.6751C57.5516 17.2073 57.1111 17.6388 56.5677 17.6388C56.0244 17.6388 55.5838 17.2073 55.5838 16.6751V9.75703C55.5838 8.87906 55.2164 8.08011 54.6245 7.5005C54.0325 6.92077 53.2169 6.56086 52.3205 6.56086L45.2568 6.56074ZM55.5838 45.581C55.5838 45.0489 56.0244 44.6174 56.5677 44.6174C57.1111 44.6174 57.5516 45.0489 57.5516 45.581V52.4993C57.5516 53.9093 56.9634 55.1903 56.0158 56.1185C55.0682 57.0466 53.7601 57.6227 52.3205 57.6227H45.2568C44.7134 57.6227 44.2729 57.1912 44.2729 56.6591C44.2729 56.1269 44.7134 55.6954 45.2568 55.6954H52.3205C53.2169 55.6954 54.0327 55.3355 54.6245 54.7558C55.2164 54.1761 55.5838 53.3772 55.5838 52.4993V45.581ZM15.7431 55.6954C16.2864 55.6954 16.727 56.1269 16.727 56.6591C16.727 57.1912 16.2864 57.6227 15.7431 57.6227H8.67941C7.23988 57.6227 5.93183 57.0466 4.98411 56.1185C4.0364 55.1903 3.44829 53.9093 3.44829 52.4993V45.581C3.44829 45.0489 3.88882 44.6174 4.43216 44.6174C4.9755 44.6174 5.41603 45.0489 5.41603 45.581V52.4993C5.41603 53.3772 5.78351 54.1762 6.37543 54.7558C6.96735 55.3355 7.7831 55.6954 8.67941 55.6954H15.7431Z" fill="#FF6600"/>
</svg>
