<svg width="61" height="61" viewBox="0 0 61 61" fill="none" xmlns="http://www.w3.org/2000/svg">
<g clip-path="url(#clip0_601_571)">
<path d="M16.0546 49.3388H2.85318C2.14405 49.3388 1.90641 49.3388 1.90641 48.054V44.9977C1.90641 44.7449 1.80599 44.5024 1.62724 44.3237C1.4485 44.145 1.20606 44.0445 0.95328 44.0445C0.700496 44.0445 0.458065 44.145 0.279319 44.3237C0.100574 44.5024 0.00015528 44.7449 0.00015528 44.9977V48.054C-0.0716848 48.4599 -0.0504032 48.8768 0.0623944 49.2733C0.175192 49.6698 0.37656 50.0355 0.651305 50.3428C0.92605 50.6501 1.267 50.891 1.64842 51.0473C2.02985 51.2036 2.44179 51.2712 2.85318 51.2451H16.0546C16.3074 51.2451 16.5498 51.1447 16.7286 50.9659C16.9073 50.7872 17.0077 50.5447 17.0077 50.292C17.0077 50.0392 16.9073 49.7967 16.7286 49.618C16.5498 49.4392 16.3074 49.3388 16.0546 49.3388ZM0.95328 41.9972C1.20606 41.9972 1.4485 41.8968 1.62724 41.7181C1.80599 41.5393 1.90641 41.2969 1.90641 41.0441V9.5376L30.7543 9.58716V25.4789C30.7543 25.7317 30.8547 25.9741 31.0335 26.1529C31.2122 26.3316 31.4547 26.4321 31.7074 26.4321C31.9602 26.4321 32.2027 26.3316 32.3814 26.1529C32.5602 25.9741 32.6606 25.7317 32.6606 25.4789V9.58716C32.6653 9.07169 32.4652 8.57544 32.1041 8.20749C31.7431 7.83954 31.2507 7.63002 30.7353 7.62499H2.71465L7.07361 3.93958H34.7778C35.1822 3.93958 35.5701 4.10024 35.8561 4.38624C36.1421 4.67223 36.3028 5.06012 36.3028 5.46458V24.8067C36.3028 25.0594 36.4032 25.3019 36.5819 25.4806C36.7607 25.6594 37.0031 25.7598 37.2559 25.7598C37.5087 25.7598 37.7511 25.6594 37.9299 25.4806C38.1086 25.3019 38.209 25.0594 38.209 24.8067V5.46458C38.209 4.55455 37.8475 3.6818 37.204 3.03832C36.5606 2.39483 35.6878 2.03333 34.7778 2.03333H6.7254C6.50022 2.03319 6.28229 2.11289 6.11032 2.25826L0.448759 7.05439C0.314916 7.19166 0.210295 7.35465 0.141218 7.53349C0.0527363 7.67561 0.00402075 7.83887 0.00015528 8.00624V41.0479C0.00116378 41.3 0.102027 41.5415 0.280663 41.7194C0.4593 41.8973 0.701155 41.9972 0.95328 41.9972Z" fill="#FF6600"/>
<path d="M34.493 25.1383C34.7458 25.1383 34.9882 25.0379 35.167 24.8592C35.3457 24.6804 35.4462 24.438 35.4462 24.1852V7.67581C35.4451 6.92505 35.1468 6.20525 34.6164 5.6739C34.086 5.14256 33.3668 4.84293 32.616 4.84058L8.79297 4.79102C8.54018 4.79102 8.29775 4.89143 8.11901 5.07018C7.94026 5.24893 7.83984 5.49136 7.83984 5.74414C7.83984 5.99693 7.94026 6.23936 8.11901 6.4181C8.29775 6.59685 8.54018 6.69727 8.79297 6.69727L32.6173 6.74683C32.8633 6.7475 33.0991 6.84563 33.273 7.01974C33.4468 7.19385 33.5447 7.42975 33.545 7.67581V24.1852C33.545 24.4371 33.6447 24.6788 33.8224 24.8574C34 25.036 34.2411 25.137 34.493 25.1383ZM47.6207 43.2833C47.368 43.2833 47.1255 43.3837 46.9468 43.5624C46.768 43.7412 46.6676 43.9836 46.6676 44.2364V52.1613C46.6694 52.3473 46.6258 52.531 46.5405 52.6963C46.0042 53.7194 43.4626 57.0604 33.2959 57.0604C23.1292 57.0604 20.5876 53.7232 20.0449 52.6989C19.9599 52.5339 19.9163 52.3507 19.9178 52.1651V44.6405C19.9178 44.3877 19.8174 44.1453 19.6387 43.9666C19.4599 43.7878 19.2175 43.6874 18.9647 43.6874C18.7119 43.6874 18.4695 43.7878 18.2908 43.9666C18.112 44.1453 18.0116 44.3877 18.0116 44.6405V52.1613C18.0089 52.6559 18.1258 53.1437 18.3522 53.5834C19.2087 55.2012 22.3667 58.9666 33.2959 58.9666C44.2251 58.9666 47.3818 55.205 48.232 53.5885C48.4602 53.1489 48.578 52.6604 48.5751 52.1651V44.2364C48.5751 44.1111 48.5504 43.9871 48.5025 43.8714C48.4545 43.7556 48.3842 43.6505 48.2955 43.562C48.2069 43.4735 48.1017 43.4033 47.9859 43.3555C47.8701 43.3076 47.746 43.2831 47.6207 43.2833Z" fill="#FF6600"/>
<path d="M60.3483 35.1245L35.1324 26.7014C34.9399 26.6366 34.7315 26.6366 34.5389 26.7014L6.13454 35.8082C5.94488 35.8706 5.77957 35.991 5.66189 36.1523C5.54421 36.3136 5.48009 36.5077 5.47854 36.7074C5.477 36.9071 5.53812 37.1022 5.65329 37.2653C5.76846 37.4284 5.93189 37.5513 6.12056 37.6166L32.681 46.5938C32.7793 46.627 32.8822 46.6442 32.986 46.6446C33.0951 46.6444 33.2035 46.6255 33.3062 46.5887L52.8021 39.6271V44.2021C52.1449 44.4005 51.5688 44.8047 51.1586 45.3552C50.7484 45.9056 50.5258 46.5732 50.5235 47.2597V49.1812C50.5235 50.0333 50.862 50.8504 51.4645 51.4529C52.0669 52.0554 52.8841 52.3939 53.7362 52.3939C54.5882 52.3939 55.4054 52.0554 56.0079 51.4529C56.6103 50.8504 56.9488 50.0333 56.9488 49.1812V47.2572C56.9471 46.5769 56.7291 45.9148 56.3263 45.3665C55.9236 44.8183 55.357 44.4123 54.7083 44.2072V38.9459L60.3648 36.9266C60.5517 36.8599 60.7131 36.7366 60.8265 36.5739C60.94 36.4112 60.9998 36.2171 60.9977 36.0187C60.9956 35.8204 60.9317 35.6276 60.8148 35.4673C60.6979 35.307 60.534 35.1872 60.3458 35.1245H60.3483ZM55.0375 49.1812C55.0375 49.5277 54.8998 49.86 54.6548 50.105C54.4098 50.35 54.0775 50.4876 53.7311 50.4876C53.3846 50.4876 53.0523 50.35 52.8073 50.105C52.5623 49.86 52.4247 49.5277 52.4246 49.1812V47.2572C52.4246 47.0856 52.4584 46.9157 52.5241 46.7572C52.5898 46.5987 52.686 46.4547 52.8073 46.3334C52.9286 46.2121 53.0726 46.1158 53.2311 46.0502C53.3896 45.9845 53.5595 45.9507 53.7311 45.9507C53.9026 45.9507 54.0725 45.9845 54.231 46.0502C54.3895 46.1158 54.5335 46.2121 54.6548 46.3334C54.7762 46.4547 54.8724 46.5987 54.938 46.7572C55.0037 46.9157 55.0375 47.0856 55.0375 47.2572V49.1812ZM53.6192 37.3116L33.3965 35.1296C33.2704 35.113 33.1424 35.1217 33.0198 35.1553C32.8972 35.189 32.7826 35.2468 32.6827 35.3253C32.5828 35.4039 32.4996 35.5017 32.438 35.6129C32.3764 35.7241 32.3377 35.8465 32.3242 35.9728C32.3106 36.0992 32.3225 36.227 32.359 36.3488C32.3956 36.4705 32.4562 36.5837 32.5371 36.6817C32.6181 36.7797 32.7178 36.8605 32.8305 36.9193C32.9432 36.9782 33.0665 37.0139 33.1931 37.0244L49.4967 38.7832L32.9758 44.685L9.47302 36.7397L34.8236 28.6064L57.128 36.0573L53.6192 37.3116Z" fill="#FF6600"/>
</g>
<defs>
<clipPath id="clip0_601_571">
<rect width="61" height="61" fill="white"/>
</clipPath>
</defs>
</svg>
