<svg width="61" height="61" viewBox="0 0 61 61" fill="none" xmlns="http://www.w3.org/2000/svg">
<circle cx="30.5" cy="30.5" r="16.5" fill="#FF6600"/>
<path d="M56.7589 26.2594C55.8026 26.2608 54.8747 26.5847 54.1253 27.1789C53.376 27.7731 52.849 28.6027 52.6297 29.5336H47.33C47.1074 25.7279 45.5964 22.1113 43.0454 19.2785L46.8036 15.5205C47.6794 16.0718 48.7269 16.283 49.7479 16.1139C50.7689 15.9448 51.6925 15.4072 52.3437 14.6029C52.995 13.7986 53.3287 12.7834 53.2818 11.7496C53.2349 10.7158 52.8105 9.73502 52.089 8.99305C51.3675 8.25109 50.3991 7.79941 49.367 7.72353C48.3348 7.64764 47.3107 7.95283 46.4885 8.58131C45.6663 9.20978 45.1031 10.1179 44.9054 11.1338C44.7078 12.1496 44.8895 13.2027 45.4161 14.0936L41.6315 17.8782C38.7842 15.3629 35.1678 13.8878 31.3735 13.6941V8.39674C32.3901 8.18406 33.2934 7.60592 33.9123 6.77184C34.5312 5.93777 34.8227 4.90567 34.7316 3.87107C34.6404 2.83647 34.1731 1.87121 33.4179 1.15814C32.6628 0.44507 31.6723 0.0337096 30.6342 0.00198202C29.5961 -0.0297456 28.5824 0.320363 27.7851 0.985988C26.9878 1.65161 26.4624 2.58653 26.3082 3.61363C26.1541 4.64074 26.382 5.68871 26.9488 6.55902C27.5156 7.42934 28.3819 8.06156 29.3836 8.33593V13.7099C25.6262 13.9578 22.0613 15.4616 19.2615 17.9797L15.5079 14.2262C16.0302 13.4115 16.2583 12.4428 16.1544 11.4807C16.0505 10.5186 15.6208 9.62096 14.9366 8.93663C14.3764 8.37729 13.6709 7.98595 12.8998 7.80693C12.1287 7.62791 11.3229 7.66835 10.5736 7.92368C9.82431 8.179 9.16147 8.63901 8.66013 9.25162C8.15879 9.86423 7.83899 10.605 7.73692 11.39C7.63486 12.175 7.75462 12.9728 8.08263 13.6933C8.41065 14.4137 8.93382 15.0279 9.59291 15.4664C10.252 15.9048 11.0207 16.15 11.8119 16.1741C12.6031 16.1982 13.3853 16.0003 14.0699 15.6028L17.8603 19.393C15.3407 22.2412 13.8628 25.8603 13.6685 29.6579H8.40439C8.1987 28.6397 7.62672 27.7322 6.79677 27.1075C5.96683 26.4827 4.93657 26.184 3.90116 26.268C2.86574 26.3519 1.89707 26.8127 1.17864 27.563C0.460209 28.3134 0.0419117 29.3011 0.00298337 30.3392C-0.0359449 31.3773 0.307199 32.3936 0.967416 33.1957C1.62763 33.9977 2.55907 34.5297 3.58529 34.691C4.61151 34.8523 5.66125 34.6316 6.53565 34.0707C7.41005 33.5099 8.0484 32.6478 8.32976 31.6478H13.6841C13.9313 35.3958 15.4281 38.9526 17.9351 41.7495L14.2027 45.482C13.327 44.9308 12.2797 44.7198 11.2589 44.8889C10.2381 45.058 9.31473 45.5956 8.66364 46.3997C8.01256 47.2039 7.67892 48.2189 7.7259 49.2526C7.77289 50.2862 8.19723 51.2667 8.91859 52.0085C9.63995 52.7503 10.6083 53.2019 11.6402 53.2777C12.6721 53.3535 13.696 53.0484 14.5181 52.42C15.3401 51.7916 15.9032 50.8836 16.1008 49.868C16.2984 48.8523 16.1167 47.7994 15.5902 46.9087L19.3461 43.1528C22.1654 45.6549 25.7449 47.1353 29.508 47.3556V52.6349C28.4987 52.8784 27.6139 53.4837 27.0209 54.3359C26.428 55.1882 26.1683 56.2283 26.2909 57.2593C26.4135 58.2902 26.91 59.2404 27.6863 59.9298C28.4626 60.6192 29.4647 61 30.5029 61C31.5412 61 32.5433 60.6192 33.3196 59.9298C34.0959 59.2404 34.5924 58.2902 34.715 57.2593C34.8376 56.2283 34.5779 55.1882 33.9849 54.3359C33.392 53.4837 32.5071 52.8784 31.4979 52.6349V47.3556C35.2942 47.1336 38.9026 45.6293 41.7324 43.0891L45.468 46.8247C44.9186 47.706 44.7115 48.7582 44.886 49.782C45.0604 50.8058 45.6043 51.73 46.4146 52.3796C47.2249 53.0293 48.2453 53.3591 49.2825 53.3068C50.3197 53.2544 51.3017 52.8235 52.0425 52.0956C52.7832 51.3677 53.2313 50.3934 53.3018 49.3572C53.3723 48.3211 53.0603 47.2951 52.425 46.4735C51.7896 45.652 50.875 45.092 49.8545 44.8997C48.8339 44.7073 47.7782 44.896 46.8874 45.4299L43.1349 41.6774C45.6327 38.8591 47.1102 35.2828 47.33 31.5235H52.6431C52.8347 32.295 53.2393 32.9972 53.8107 33.5499C54.3821 34.1025 55.0974 34.4835 55.8749 34.6493C56.6524 34.8151 57.4608 34.7591 58.208 34.4876C58.9552 34.2162 59.6111 33.7402 60.1008 33.1139C60.5905 32.4877 60.8944 31.7365 60.9778 30.9459C61.0611 30.1553 60.9207 29.3572 60.5723 28.6425C60.224 27.9279 59.6819 27.3256 59.0077 26.9042C58.3336 26.4829 57.5546 26.2595 56.7597 26.2594H56.7589ZM47.4764 10.3435C47.8447 9.97497 48.3294 9.74557 48.8479 9.69438C49.3664 9.64319 49.8867 9.77337 50.3199 10.0628C50.7532 10.3521 51.0727 10.7828 51.2241 11.2814C51.3754 11.7799 51.3492 12.3155 51.1498 12.7969C50.9505 13.2783 50.5904 13.6757 50.1309 13.9214C49.6715 14.167 49.141 14.2457 48.63 14.1441C48.119 14.0425 47.659 13.7668 47.3285 13.3641C46.9979 12.9613 46.8172 12.4564 46.8173 11.9354C46.8169 11.6397 46.8749 11.3469 46.988 11.0737C47.1011 10.8005 47.2671 10.5523 47.4764 10.3435ZM28.2511 4.24532C28.2511 3.79995 28.3832 3.36457 28.6306 2.99424C28.878 2.62392 29.2297 2.33528 29.6411 2.16482C30.0526 1.99437 30.5054 1.94976 30.9422 2.03663C31.379 2.1235 31.7802 2.33796 32.0952 2.65288C32.4101 2.96779 32.6246 3.36903 32.7115 3.80584C32.7984 4.24266 32.7538 4.69543 32.5834 5.1069C32.4129 5.51837 32.1243 5.87007 31.754 6.11751C31.3837 6.36494 30.9483 6.49701 30.5029 6.49701C29.906 6.49636 29.3336 6.25892 28.9114 5.83679C28.4893 5.41466 28.2518 4.84232 28.2511 4.24532ZM10.3449 13.5273C10.03 13.2124 9.81553 12.8112 9.72865 12.3744C9.64176 11.9375 9.68636 11.4848 9.8568 11.0733C10.0272 10.6619 10.3159 10.3102 10.6862 10.0627C11.0565 9.81531 11.4918 9.68324 11.9372 9.68324C12.3826 9.68324 12.8179 9.81531 13.1882 10.0627C13.5585 10.3102 13.8472 10.6619 14.0176 11.0733C14.188 11.4848 14.2326 11.9375 14.1458 12.3744C14.0589 12.8112 13.8444 13.2124 13.5295 13.5273C13.3214 13.7383 13.0735 13.9057 12.8002 14.0201C12.5268 14.1344 12.2335 14.1932 11.9372 14.1932C11.6409 14.1932 11.3476 14.1344 11.0742 14.0201C10.8009 13.9057 10.553 13.7383 10.3449 13.5273ZM4.24699 32.7531C3.8016 32.7531 3.36621 32.621 2.99588 32.3736C2.62555 32.1261 2.33691 31.7744 2.16647 31.3629C1.99602 30.9514 1.95143 30.4987 2.03832 30.0618C2.12521 29.625 2.33969 29.2237 2.65463 28.9088C2.96957 28.5938 3.37082 28.3794 3.80766 28.2925C4.24449 28.2056 4.69728 28.2502 5.10877 28.4206C5.52026 28.5911 5.87197 28.8797 6.11941 29.25C6.36686 29.6204 6.49893 30.0558 6.49893 30.5012C6.49831 31.0982 6.26085 31.6706 5.83866 32.0928C5.41648 32.515 4.84405 32.7525 4.24699 32.7531ZM13.5295 50.6591C13.2189 50.9707 12.8238 51.1846 12.3929 51.2743C11.9621 51.3639 11.5145 51.3255 11.1053 51.1636C10.6961 51.0018 10.3433 50.7236 10.0904 50.3635C9.83753 50.0034 9.69565 49.5771 9.68228 49.1373C9.66892 48.6974 9.78466 48.2633 10.0152 47.8885C10.2458 47.5137 10.5811 47.2147 10.9797 47.0283C11.3783 46.8419 11.8227 46.7763 12.2582 46.8396C12.6937 46.903 13.101 47.0924 13.43 47.3847C13.4971 47.4862 13.5827 47.5741 13.6825 47.6437C14.035 48.076 14.2145 48.6238 14.1862 49.1808C14.158 49.7379 13.9239 50.2646 13.5295 50.6591ZM32.7548 56.7571C32.7551 57.1948 32.6279 57.6231 32.3886 57.9897C32.1494 58.3562 31.8085 58.6451 31.4076 58.821C31.0068 58.9968 30.5634 59.052 30.1317 58.9799C29.7 58.9077 29.2986 58.7113 28.9768 58.4146C28.6549 58.118 28.4265 57.7339 28.3195 57.3095C28.2125 56.8851 28.2314 56.4386 28.3741 56.0248C28.5168 55.611 28.777 55.2478 29.1229 54.9795C29.4688 54.7113 29.8853 54.5496 30.3216 54.5144C30.4414 54.5374 30.5645 54.5374 30.6843 54.5144C31.2478 54.5603 31.7735 54.8164 32.1571 55.2318C32.5406 55.6472 32.7539 56.1917 32.7548 56.7571ZM49.0687 46.8162C49.5892 46.8165 50.0936 46.9973 50.4958 47.3278C50.8979 47.6582 51.1731 48.1179 51.2744 48.6285C51.3757 49.1391 51.2968 49.669 51.0512 50.1279C50.8056 50.5869 50.4084 50.9465 49.9274 51.1455C49.4464 51.3445 48.9113 51.3705 48.4132 51.2192C47.9152 51.0679 47.485 50.7486 47.196 50.3156C46.9069 49.8827 46.777 49.363 46.8282 48.8449C46.8794 48.3269 47.1086 47.8427 47.4768 47.4747C47.6857 47.2655 47.9339 47.0997 48.207 46.9867C48.4802 46.8737 48.7731 46.8157 49.0687 46.8162ZM30.5029 45.3953C27.5626 45.3953 24.6882 44.5234 22.2434 42.8898C19.7986 41.2562 17.8931 38.9343 16.7678 36.2178C15.6426 33.5012 15.3482 30.512 15.9218 27.6281C16.4955 24.7443 17.9114 22.0953 19.9906 20.0161C22.0697 17.937 24.7187 16.521 27.6026 15.9474C30.4865 15.3738 33.4757 15.6682 36.1922 16.7934C38.9088 17.9186 41.2306 19.8241 42.8642 22.269C44.4978 24.7138 45.3697 27.5881 45.3697 30.5285C45.3653 34.4701 43.7975 38.2489 41.0104 41.036C38.2233 43.8231 34.4445 45.3908 30.5029 45.3953ZM56.7589 32.7531C56.3135 32.7531 55.8781 32.6211 55.5078 32.3736C55.1374 32.1262 54.8488 31.7745 54.6783 31.363C54.5078 30.9515 54.4632 30.4987 54.5501 30.0619C54.637 29.6251 54.8514 29.2238 55.1664 28.9088C55.4813 28.5939 55.8826 28.3794 56.3194 28.2925C56.7562 28.2056 57.209 28.2502 57.6205 28.4206C58.032 28.5911 58.3837 28.8797 58.6312 29.25C58.8787 29.6204 59.0107 30.0558 59.0107 30.5012C59.0101 31.0982 58.7726 31.6706 58.3505 32.0927C57.9283 32.5149 57.3559 32.7524 56.7589 32.7531Z" fill="#FF6600"/>
<path d="M30.503 23.833C31.3283 23.8339 32.1195 24.1622 32.703 24.7457C33.2866 25.3293 33.6148 26.1205 33.6158 26.9457C33.6158 27.2096 33.7206 27.4627 33.9072 27.6492C34.0938 27.8358 34.3468 27.9406 34.6107 27.9406C34.8746 27.9406 35.1276 27.8358 35.3142 27.6492C35.5008 27.4627 35.6056 27.2096 35.6056 26.9457C35.604 25.7439 35.1788 24.5812 34.4048 23.6619C33.6308 22.7425 32.5575 22.1254 31.3736 21.919V20.579C31.3736 20.3152 31.2688 20.0621 31.0822 19.8755C30.8956 19.6889 30.6425 19.5841 30.3786 19.5841C30.1148 19.5841 29.8617 19.6889 29.6751 19.8755C29.4885 20.0621 29.3837 20.3152 29.3837 20.579V21.9683C28.1586 22.2438 27.0781 22.9613 26.3489 23.9836C25.6198 25.006 25.2933 26.2613 25.4318 27.5093C25.5704 28.7573 26.1644 29.9104 27.1 30.7479C28.0357 31.5854 29.2473 32.0484 30.503 32.0483C31.1187 32.0483 31.7205 32.2309 32.2324 32.5729C32.7443 32.915 33.1432 33.4011 33.3788 33.9699C33.6144 34.5387 33.6761 35.1646 33.556 35.7684C33.4359 36.3722 33.1394 36.9268 32.7041 37.3622C32.2687 37.7975 31.7141 38.094 31.1103 38.2141C30.5065 38.3342 29.8806 38.2725 29.3118 38.0369C28.743 37.8013 28.2569 37.4024 27.9148 36.8905C27.5728 36.3786 27.3903 35.7768 27.3903 35.1611C27.3903 34.8972 27.2854 34.6442 27.0988 34.4576C26.9123 34.271 26.6592 34.1662 26.3953 34.1662C26.1314 34.1662 25.8784 34.271 25.6918 34.4576C25.5052 34.6442 25.4004 34.8972 25.4004 35.1611C25.402 36.3194 25.797 37.4428 26.5208 38.3471C27.2445 39.2515 28.254 39.8832 29.3837 40.1386V41.7213C29.3837 41.9852 29.4885 42.2382 29.6751 42.4248C29.8617 42.6114 30.1148 42.7162 30.3786 42.7162C30.6425 42.7162 30.8956 42.6114 31.0822 42.4248C31.2688 42.2382 31.3736 41.9852 31.3736 41.7213V40.188C32.6325 39.9701 33.7638 39.2878 34.5439 38.2761C35.3241 37.2643 35.6962 35.9966 35.5868 34.7237C35.4774 33.4508 34.8944 32.2652 33.9531 31.4014C33.0118 30.5376 31.7806 30.0584 30.503 30.0585C29.6775 30.0585 28.8857 29.7305 28.302 29.1468C27.7182 28.563 27.3903 27.7713 27.3903 26.9457C27.3903 26.1202 27.7182 25.3284 28.302 24.7447C28.8857 24.1609 29.6775 23.833 30.503 23.833Z" fill="white"/>
</svg>
