<svg width="121" height="123" viewBox="0 0 121 123" fill="none" xmlns="http://www.w3.org/2000/svg">
<path d="M12.1283 33.5751H46.9849V47.2219H41.518C40.5839 46.4535 39.566 45.793 38.4837 45.2531C37.2378 44.6362 36.089 44.1906 34.8689 44.1906C31.971 44.1906 30.0173 45.5972 28.8518 47.4144C27.6832 49.2301 27.2816 51.3793 27.2816 53.2814C27.2816 55.1836 27.6848 57.3327 28.8503 59.1485C30.0173 60.9672 31.971 62.3722 34.8673 62.3722C36.089 62.3722 37.2378 61.9266 38.4837 61.3097C39.566 60.7699 40.5839 60.1094 41.518 59.3409H46.9849L46.9879 72.9817L31.8315 72.9847C31.6323 72.9837 31.4348 73.0219 31.2504 73.0973C31.0659 73.1726 30.8981 73.2835 30.7565 73.4237C30.6149 73.5639 30.5023 73.7306 30.4252 73.9142C30.348 74.0979 30.3078 74.295 30.3068 74.4943V82.0664C30.3068 82.4604 30.4614 82.8394 30.7327 83.1213C31.3875 83.8078 32.0953 84.8582 32.5924 85.8615C33.0895 86.8664 33.3411 87.9076 33.3411 88.132C33.3411 89.7901 32.6409 90.8737 31.5072 91.6028C30.3735 92.3287 28.726 92.6834 27.2816 92.6849C25.8372 92.6849 24.1897 92.3287 23.0575 91.6012C21.9223 90.8737 21.2221 89.7901 21.2221 88.132C21.2221 87.9061 21.4737 86.8664 21.9708 85.8615C22.4679 84.8582 23.1757 83.8078 23.8305 83.1213C24.1033 82.8378 24.2549 82.4589 24.2564 82.0664V74.4943C24.2554 74.295 24.2152 74.0979 24.138 73.9142C24.0608 73.7306 23.9483 73.5639 23.8067 73.4237C23.6651 73.2835 23.4973 73.1726 23.3128 73.0973C23.1284 73.0219 22.9309 72.9837 22.7317 72.9847H7.57227V38.1281C7.57227 38.1281 7.59955 36.9232 8.177 35.7683C8.74385 34.633 9.83966 33.5751 12.1283 33.5751Z" fill="white" fill-opacity="0.7"/>
<path d="M69.7193 56.3097C71.1637 56.3097 72.8112 56.6659 73.9434 57.3934C75.0786 58.1209 75.7788 59.2046 75.7788 60.8627C75.7788 61.0885 75.5272 62.1297 75.0301 63.1331C74.5329 64.1364 73.8251 65.1883 73.1704 65.8749C72.8976 66.1568 72.746 66.5357 72.746 66.9282V74.5004C72.7475 75.337 73.4311 76.013 74.2692 76.0099H89.4286V110.873C89.4286 110.873 89.4013 112.07 88.8239 113.222C88.2479 114.377 87.1733 115.429 84.8726 115.429H50.0221V101.779H55.489C56.3802 102.524 57.4942 103.238 58.5233 103.748C59.7676 104.364 60.918 104.81 62.1381 104.81C65.036 104.81 66.9896 103.404 68.1551 101.586C69.3222 99.7705 69.7238 97.6214 69.7253 95.7193C69.7253 93.8171 69.3222 91.668 68.1567 89.8522C66.9896 88.0335 65.036 86.6285 62.1381 86.6285C60.918 86.6285 59.7676 87.0741 58.5233 87.6909C57.4942 88.2002 56.3802 88.9141 55.489 89.6597H50.0221L50.019 76.013L65.1693 76.0099C65.3686 76.0109 65.5661 75.9727 65.7505 75.8973C65.935 75.822 66.1028 75.7111 66.2444 75.5709C66.3859 75.4307 66.4985 75.2641 66.5757 75.0804C66.6528 74.8967 66.6931 74.6996 66.6941 74.5004V66.9282C66.6941 66.5357 66.5395 66.1553 66.2682 65.8749C65.6134 65.1883 64.9056 64.1364 64.4085 63.1331C63.9114 62.1297 63.6598 61.087 63.6598 60.8627C63.6598 59.2046 64.36 58.1209 65.4937 57.3919C66.6274 56.6659 68.2749 56.3112 69.7193 56.3097Z" fill="white" fill-opacity="0.7"/>
<path d="M46.9879 76.0129L46.9909 91.1693C46.9899 91.3685 47.0282 91.566 47.1035 91.7505C47.1788 91.9349 47.2897 92.1027 47.4299 92.2443C47.5701 92.3859 47.7368 92.4985 47.9205 92.5756C48.1042 92.6528 48.3013 92.693 48.5005 92.694H56.0726C56.4652 92.694 56.8456 92.5394 57.126 92.2681C57.8126 91.6134 58.8644 90.9056 59.8678 90.4084C60.8711 89.9113 61.9139 89.6597 62.1382 89.6597C63.7963 89.6597 64.88 90.3599 65.609 91.4936C66.335 92.6273 66.6896 94.2748 66.6912 95.7192C66.6912 97.1636 66.335 98.8111 65.6075 99.9433C64.88 101.079 63.7963 101.779 62.1382 101.779C61.9124 101.779 60.8711 101.527 59.8678 101.03C58.8644 100.533 57.8126 99.8251 57.126 99.1703C56.8428 98.8982 56.4653 98.7462 56.0726 98.746H48.5005C48.0984 98.748 47.7135 98.9095 47.4305 99.1951C47.1474 99.4808 46.9893 99.8671 46.9909 100.269V115.429H12.1283C9.82753 115.429 8.75295 114.377 8.177 113.223C7.8223 112.487 7.61677 111.688 7.57227 110.873V76.016H21.2221V81.4829C20.4536 82.4169 19.7932 83.4348 19.2533 84.5172C18.6364 85.763 18.1908 86.9119 18.1908 88.132C18.1908 91.0299 19.5973 92.9835 21.4146 94.149C23.2303 95.3176 25.3795 95.7192 27.2816 95.7192C29.1837 95.7192 31.3329 95.3161 33.1486 94.1506C34.9674 92.9835 36.3724 91.0299 36.3724 88.1335C36.3724 86.9119 35.9268 85.763 35.3099 84.5172C34.77 83.4348 34.1096 82.4169 33.3411 81.4829V76.016L46.9879 76.0129Z" fill="white" fill-opacity="0.7"/>
<path d="M89.6879 12.0484L117.266 33.3662C119.076 34.7659 119.296 36.2731 119.051 37.5179C118.801 38.7848 118.086 39.7548 118.086 39.7548L96.7716 67.3278L85.9722 58.9797L89.3148 54.6556C90.4498 54.4066 91.6959 53.9618 92.7282 53.4591C93.9773 52.8518 95.0334 52.2142 95.7795 51.2489C97.5519 48.9562 97.6339 46.5503 96.9089 44.5167C96.1861 42.4829 94.7314 40.8507 93.2274 39.6862C91.7225 38.5229 89.7755 37.5275 87.6262 37.3391C85.4734 37.1502 83.167 37.8366 81.3947 40.1293C80.6485 41.0946 80.2975 42.2773 80.0245 43.639C79.7981 44.7647 79.6815 46.0827 79.7265 47.2438L76.383 51.5691L65.5889 43.229L74.8532 31.2394C74.9758 31.0824 75.0663 30.9027 75.1195 30.7107C75.1727 30.5187 75.1876 30.3181 75.1633 30.1204C75.139 29.9226 75.076 29.7316 74.9778 29.5582C74.8797 29.3848 74.7483 29.2325 74.5913 29.1098L68.6004 24.4788C68.2887 24.2378 67.8943 24.1284 67.5066 24.1715C66.5629 24.2697 65.2978 24.1864 64.1988 23.9651C63.1021 23.7457 62.1244 23.308 61.9457 23.1699C60.6339 22.1558 60.2048 20.939 60.3213 19.5962C60.4403 18.2552 61.1673 16.7349 62.0495 15.5912C62.9328 14.4484 64.2222 13.3628 65.4902 12.9119C66.7601 12.4587 68.0457 12.5675 69.3576 13.5816C69.5363 13.7197 70.2062 14.5555 70.696 15.5625C71.1858 16.5694 71.5851 17.7727 71.7267 18.7097C71.784 19.0989 71.9911 19.4506 72.3017 19.6907L78.2926 24.3217C78.9555 24.8321 79.9092 24.7035 80.4185 24.0398L89.6879 12.0484Z" fill="white"/>
</svg>
