<svg width="221" height="26" viewBox="0 0 221 26" fill="none" xmlns="http://www.w3.org/2000/svg">
<path d="M11.928 15.808H5.256L4.152 19H0.624L6.648 2.224H10.56L16.584 19H13.032L11.928 15.808ZM11.016 13.12L8.592 6.112L6.168 13.12H11.016ZM17.9717 12.352C17.9717 10.976 18.2517 9.776 18.8117 8.752C19.3717 7.712 20.1477 6.912 21.1397 6.352C22.1317 5.776 23.2677 5.488 24.5477 5.488C26.1957 5.488 27.5557 5.904 28.6277 6.736C29.7157 7.552 30.4437 8.704 30.8117 10.192H27.1877C26.9957 9.616 26.6677 9.168 26.2037 8.848C25.7557 8.512 25.1957 8.344 24.5237 8.344C23.5637 8.344 22.8037 8.696 22.2437 9.4C21.6837 10.088 21.4037 11.072 21.4037 12.352C21.4037 13.616 21.6837 14.6 22.2437 15.304C22.8037 15.992 23.5637 16.336 24.5237 16.336C25.8837 16.336 26.7717 15.728 27.1877 14.512H30.8117C30.4437 15.952 29.7157 17.096 28.6277 17.944C27.5397 18.792 26.1797 19.216 24.5477 19.216C23.2677 19.216 22.1317 18.936 21.1397 18.376C20.1477 17.8 19.3717 17 18.8117 15.976C18.2517 14.936 17.9717 13.728 17.9717 12.352ZM32.4092 12.352C32.4092 10.976 32.6892 9.776 33.2492 8.752C33.8092 7.712 34.5852 6.912 35.5772 6.352C36.5692 5.776 37.7052 5.488 38.9852 5.488C40.6332 5.488 41.9932 5.904 43.0652 6.736C44.1532 7.552 44.8812 8.704 45.2492 10.192H41.6252C41.4332 9.616 41.1052 9.168 40.6412 8.848C40.1932 8.512 39.6332 8.344 38.9612 8.344C38.0012 8.344 37.2412 8.696 36.6812 9.4C36.1212 10.088 35.8412 11.072 35.8412 12.352C35.8412 13.616 36.1212 14.6 36.6812 15.304C37.2412 15.992 38.0012 16.336 38.9612 16.336C40.3212 16.336 41.2092 15.728 41.6252 14.512H45.2492C44.8812 15.952 44.1532 17.096 43.0652 17.944C41.9772 18.792 40.6172 19.216 38.9852 19.216C37.7052 19.216 36.5692 18.936 35.5772 18.376C34.5852 17.8 33.8092 17 33.2492 15.976C32.6892 14.936 32.4092 13.728 32.4092 12.352ZM60.0707 12.064C60.0707 12.544 60.0387 12.976 59.9747 13.36H50.2547C50.3347 14.32 50.6707 15.072 51.2627 15.616C51.8547 16.16 52.5827 16.432 53.4467 16.432C54.6947 16.432 55.5827 15.896 56.1107 14.824H59.7347C59.3507 16.104 58.6147 17.16 57.5267 17.992C56.4387 18.808 55.1027 19.216 53.5187 19.216C52.2387 19.216 51.0867 18.936 50.0627 18.376C49.0547 17.8 48.2627 16.992 47.6867 15.952C47.1267 14.912 46.8467 13.712 46.8467 12.352C46.8467 10.976 47.1267 9.768 47.6867 8.728C48.2467 7.688 49.0307 6.888 50.0387 6.328C51.0467 5.768 52.2067 5.488 53.5187 5.488C54.7827 5.488 55.9107 5.76 56.9027 6.304C57.9107 6.848 58.6867 7.624 59.2307 8.632C59.7907 9.624 60.0707 10.768 60.0707 12.064ZM56.5907 11.104C56.5747 10.24 56.2627 9.552 55.6547 9.04C55.0467 8.512 54.3027 8.248 53.4227 8.248C52.5907 8.248 51.8867 8.504 51.3107 9.016C50.7507 9.512 50.4067 10.208 50.2787 11.104H56.5907ZM67.6112 19.216C66.5232 19.216 65.5472 19.024 64.6832 18.64C63.8192 18.24 63.1312 17.704 62.6192 17.032C62.1232 16.36 61.8512 15.616 61.8032 14.8H65.1872C65.2512 15.312 65.4992 15.736 65.9312 16.072C66.3792 16.408 66.9312 16.576 67.5872 16.576C68.2272 16.576 68.7232 16.448 69.0752 16.192C69.4432 15.936 69.6272 15.608 69.6272 15.208C69.6272 14.776 69.4032 14.456 68.9552 14.248C68.5232 14.024 67.8272 13.784 66.8672 13.528C65.8752 13.288 65.0592 13.04 64.4192 12.784C63.7952 12.528 63.2512 12.136 62.7872 11.608C62.3392 11.08 62.1152 10.368 62.1152 9.472C62.1152 8.736 62.3232 8.064 62.7392 7.456C63.1712 6.848 63.7792 6.368 64.5632 6.016C65.3632 5.664 66.2992 5.488 67.3712 5.488C68.9552 5.488 70.2192 5.888 71.1632 6.688C72.1072 7.472 72.6272 8.536 72.7232 9.88H69.5072C69.4592 9.352 69.2352 8.936 68.8352 8.632C68.4512 8.312 67.9312 8.152 67.2752 8.152C66.6672 8.152 66.1952 8.264 65.8592 8.488C65.5392 8.712 65.3792 9.024 65.3792 9.424C65.3792 9.872 65.6032 10.216 66.0512 10.456C66.4992 10.68 67.1952 10.912 68.1392 11.152C69.0992 11.392 69.8912 11.64 70.5152 11.896C71.1392 12.152 71.6752 12.552 72.1232 13.096C72.5872 13.624 72.8272 14.328 72.8432 15.208C72.8432 15.976 72.6272 16.664 72.1952 17.272C71.7792 17.88 71.1712 18.36 70.3712 18.712C69.5872 19.048 68.6672 19.216 67.6112 19.216ZM80.6893 19.216C79.6013 19.216 78.6253 19.024 77.7613 18.64C76.8973 18.24 76.2093 17.704 75.6973 17.032C75.2013 16.36 74.9293 15.616 74.8813 14.8H78.2653C78.3293 15.312 78.5773 15.736 79.0093 16.072C79.4573 16.408 80.0093 16.576 80.6653 16.576C81.3053 16.576 81.8013 16.448 82.1533 16.192C82.5213 15.936 82.7053 15.608 82.7053 15.208C82.7053 14.776 82.4813 14.456 82.0333 14.248C81.6013 14.024 80.9053 13.784 79.9453 13.528C78.9533 13.288 78.1373 13.04 77.4973 12.784C76.8733 12.528 76.3293 12.136 75.8653 11.608C75.4173 11.08 75.1933 10.368 75.1933 9.472C75.1933 8.736 75.4013 8.064 75.8173 7.456C76.2493 6.848 76.8573 6.368 77.6413 6.016C78.4413 5.664 79.3773 5.488 80.4493 5.488C82.0333 5.488 83.2973 5.888 84.2413 6.688C85.1853 7.472 85.7053 8.536 85.8013 9.88H82.5853C82.5373 9.352 82.3133 8.936 81.9133 8.632C81.5293 8.312 81.0093 8.152 80.3533 8.152C79.7453 8.152 79.2733 8.264 78.9373 8.488C78.6173 8.712 78.4573 9.024 78.4573 9.424C78.4573 9.872 78.6813 10.216 79.1293 10.456C79.5773 10.68 80.2733 10.912 81.2173 11.152C82.1773 11.392 82.9693 11.64 83.5933 11.896C84.2173 12.152 84.7533 12.552 85.2013 13.096C85.6653 13.624 85.9053 14.328 85.9213 15.208C85.9213 15.976 85.7053 16.664 85.2733 17.272C84.8573 17.88 84.2493 18.36 83.4493 18.712C82.6653 19.048 81.7453 19.216 80.6893 19.216ZM98.3102 8.464V14.896C98.3102 15.344 98.4142 15.672 98.6222 15.88C98.8462 16.072 99.2142 16.168 99.7262 16.168H101.286V19H99.1742C96.3422 19 94.9262 17.624 94.9262 14.872V8.464H93.3422V5.704H94.9262V2.416H98.3102V5.704H101.286V8.464H98.3102ZM109.607 19.216C108.327 19.216 107.175 18.936 106.151 18.376C105.127 17.8 104.319 16.992 103.727 15.952C103.151 14.912 102.863 13.712 102.863 12.352C102.863 10.992 103.159 9.792 103.751 8.752C104.359 7.712 105.183 6.912 106.223 6.352C107.263 5.776 108.423 5.488 109.703 5.488C110.983 5.488 112.143 5.776 113.183 6.352C114.223 6.912 115.039 7.712 115.631 8.752C116.239 9.792 116.543 10.992 116.543 12.352C116.543 13.712 116.231 14.912 115.607 15.952C114.999 16.992 114.167 17.8 113.111 18.376C112.071 18.936 110.903 19.216 109.607 19.216ZM109.607 16.288C110.215 16.288 110.783 16.144 111.311 15.856C111.855 15.552 112.287 15.104 112.607 14.512C112.927 13.92 113.087 13.2 113.087 12.352C113.087 11.088 112.751 10.12 112.079 9.448C111.423 8.76 110.615 8.416 109.655 8.416C108.695 8.416 107.887 8.76 107.231 9.448C106.591 10.12 106.271 11.088 106.271 12.352C106.271 13.616 106.583 14.592 107.207 15.28C107.847 15.952 108.647 16.288 109.607 16.288ZM135.07 2.248V4.96H128.086V9.256H133.438V11.92H128.086V19H124.726V2.248H135.07ZM150.005 5.704V19H146.621V17.32C146.189 17.896 145.621 18.352 144.917 18.688C144.229 19.008 143.477 19.168 142.661 19.168C141.621 19.168 140.701 18.952 139.901 18.52C139.101 18.072 138.469 17.424 138.005 16.576C137.557 15.712 137.333 14.688 137.333 13.504V5.704H140.693V13.024C140.693 14.08 140.957 14.896 141.485 15.472C142.013 16.032 142.733 16.312 143.645 16.312C144.573 16.312 145.301 16.032 145.829 15.472C146.357 14.896 146.621 14.08 146.621 13.024V5.704H150.005ZM160.688 5.512C162.272 5.512 163.552 6.016 164.528 7.024C165.504 8.016 165.992 9.408 165.992 11.2V19H162.632V11.656C162.632 10.6 162.368 9.792 161.84 9.232C161.312 8.656 160.592 8.368 159.68 8.368C158.752 8.368 158.016 8.656 157.472 9.232C156.944 9.792 156.68 10.6 156.68 11.656V19H153.32V5.704H156.68V7.36C157.128 6.784 157.696 6.336 158.384 6.016C159.088 5.68 159.856 5.512 160.688 5.512ZM168.323 12.304C168.323 10.96 168.587 9.768 169.115 8.728C169.659 7.688 170.395 6.888 171.323 6.328C172.251 5.768 173.283 5.488 174.419 5.488C175.283 5.488 176.107 5.68 176.891 6.064C177.675 6.432 178.299 6.928 178.763 7.552V1.24H182.171V19H178.763V17.032C178.347 17.688 177.763 18.216 177.011 18.616C176.259 19.016 175.387 19.216 174.395 19.216C173.275 19.216 172.251 18.928 171.323 18.352C170.395 17.776 169.659 16.968 169.115 15.928C168.587 14.872 168.323 13.664 168.323 12.304ZM178.787 12.352C178.787 11.536 178.627 10.84 178.307 10.264C177.987 9.672 177.555 9.224 177.011 8.92C176.467 8.6 175.883 8.44 175.259 8.44C174.635 8.44 174.059 8.592 173.531 8.896C173.003 9.2 172.571 9.648 172.235 10.24C171.915 10.816 171.755 11.504 171.755 12.304C171.755 13.104 171.915 13.808 172.235 14.416C172.571 15.008 173.003 15.464 173.531 15.784C174.075 16.104 174.651 16.264 175.259 16.264C175.883 16.264 176.467 16.112 177.011 15.808C177.555 15.488 177.987 15.04 178.307 14.464C178.627 13.872 178.787 13.168 178.787 12.352ZM187.157 4.12C186.565 4.12 186.069 3.936 185.669 3.568C185.285 3.184 185.093 2.712 185.093 2.152C185.093 1.592 185.285 1.128 185.669 0.759999C186.069 0.375999 186.565 0.183999 187.157 0.183999C187.749 0.183999 188.237 0.375999 188.621 0.759999C189.021 1.128 189.221 1.592 189.221 2.152C189.221 2.712 189.021 3.184 188.621 3.568C188.237 3.936 187.749 4.12 187.157 4.12ZM188.813 5.704V19H185.453V5.704H188.813ZM199.501 5.512C201.085 5.512 202.365 6.016 203.341 7.024C204.317 8.016 204.805 9.408 204.805 11.2V19H201.445V11.656C201.445 10.6 201.181 9.792 200.653 9.232C200.125 8.656 199.405 8.368 198.493 8.368C197.565 8.368 196.829 8.656 196.285 9.232C195.757 9.792 195.493 10.6 195.493 11.656V19H192.133V5.704H195.493V7.36C195.941 6.784 196.509 6.336 197.197 6.016C197.901 5.68 198.669 5.512 199.501 5.512ZM213.208 5.488C214.2 5.488 215.072 5.688 215.824 6.088C216.576 6.472 217.168 6.976 217.6 7.6V5.704H220.984V19.096C220.984 20.328 220.736 21.424 220.24 22.384C219.744 23.36 219 24.128 218.008 24.688C217.016 25.264 215.816 25.552 214.408 25.552C212.52 25.552 210.968 25.112 209.752 24.232C208.552 23.352 207.872 22.152 207.712 20.632H211.048C211.224 21.24 211.6 21.72 212.176 22.072C212.768 22.44 213.48 22.624 214.312 22.624C215.288 22.624 216.08 22.328 216.688 21.736C217.296 21.16 217.6 20.28 217.6 19.096V17.032C217.168 17.656 216.568 18.176 215.8 18.592C215.048 19.008 214.184 19.216 213.208 19.216C212.088 19.216 211.064 18.928 210.136 18.352C209.208 17.776 208.472 16.968 207.928 15.928C207.4 14.872 207.136 13.664 207.136 12.304C207.136 10.96 207.4 9.768 207.928 8.728C208.472 7.688 209.2 6.888 210.112 6.328C211.04 5.768 212.072 5.488 213.208 5.488ZM217.6 12.352C217.6 11.536 217.44 10.84 217.12 10.264C216.8 9.672 216.368 9.224 215.824 8.92C215.28 8.6 214.696 8.44 214.072 8.44C213.448 8.44 212.872 8.592 212.344 8.896C211.816 9.2 211.384 9.648 211.048 10.24C210.728 10.816 210.568 11.504 210.568 12.304C210.568 13.104 210.728 13.808 211.048 14.416C211.384 15.008 211.816 15.464 212.344 15.784C212.888 16.104 213.464 16.264 214.072 16.264C214.696 16.264 215.28 16.112 215.824 15.808C216.368 15.488 216.8 15.04 217.12 14.464C217.44 13.872 217.6 13.168 217.6 12.352Z" fill="#4A4A4A"/>
</svg>
