<svg width="72" height="72" viewBox="0 0 72 72" fill="none" xmlns="http://www.w3.org/2000/svg">
<path d="M17.4545 47.1272C17.0181 46.6909 16.6908 46.0363 16.5817 45.3818C14.2908 47.1272 12.8726 49.0909 7.52718 49.5272C7.19991 49.5272 7.09082 49.5272 7.09082 49.5272C6.54537 49.6363 6.109 50.1818 6.109 50.7272C6.109 51.2727 6.65446 51.8182 7.309 51.7091H7.74537C7.85446 51.7091 7.96355 51.7091 8.07264 51.7091C9.38173 51.7091 10.1454 52.0363 10.2545 52.3636C10.3635 52.4727 10.6908 53.7818 6.87264 57.6C2.509 61.6363 2.18173 68.1818 2.18173 68.4C2.18173 68.7272 2.29082 68.9454 2.509 69.1636C2.72718 69.3818 3.05446 69.4909 3.27264 69.4909C14.0726 69.0545 16.3635 61.7454 19.5272 61.7454C20.6181 61.7454 20.2908 64.4727 20.2908 64.6909C20.1817 66.1091 22.3635 66.3272 22.4726 64.9091C22.4726 64.9091 22.4726 64.6909 22.4726 64.4727C22.7999 60.5454 24.2181 58.6909 25.6363 56.7272C25.9635 56.2909 26.2908 55.8545 26.509 55.4182C25.8545 55.3091 25.1999 54.9818 24.7635 54.5454L17.4545 47.1272ZM17.2363 41.3454C18.9817 35.1273 21.709 27.7091 25.8545 20.9454C22.3635 22.8 17.5635 23.6727 14.7272 20.8363C14.509 20.6182 14.1817 20.5091 13.7454 20.5091C13.309 20.5091 13.0908 20.7272 12.9817 21.0545L1.19991 43.6363C0.981729 43.9636 0.981729 44.5091 1.309 44.8363C1.63627 45.1636 2.07264 45.2727 2.39991 45.1636L17.2363 41.3454ZM50.9454 46.1454C44.1817 50.2909 36.8726 53.0182 30.5454 54.7636L26.7272 69.6C26.6181 70.0363 26.7272 70.4727 27.0545 70.6909C27.2726 70.9091 27.4908 70.9091 27.709 70.9091C27.9272 70.9091 28.0363 70.9091 28.2545 70.8L50.7272 59.0182C51.0545 58.9091 51.2726 58.5818 51.2726 58.2545C51.2726 57.9272 51.1636 57.6 50.9454 57.3818C48.3272 54.5454 49.0908 49.6363 50.9454 46.1454ZM41.2363 17.4545C38.9454 19.7454 38.2908 22.6909 39.5999 24.1091C41.2363 25.7454 44.509 24.2182 46.2545 22.4727C47.8908 20.8363 49.5272 17.4545 47.8908 15.8182C46.2545 14.1818 42.9817 15.7091 41.2363 17.4545ZM69.1636 2.94543C68.0726 1.74543 66.5454 1.09088 64.909 1.09088H64.7999C61.4181 1.19997 56.3999 1.63634 51.0545 3.38179C52.5817 7.85452 64.1454 19.4182 68.7272 20.9454C70.4726 15.6 70.909 10.5818 71.0181 7.19997C70.909 5.56361 70.3636 4.03634 69.1636 2.94543ZM18.9817 45.6L26.509 53.1272C26.7272 53.3454 26.9454 53.4545 27.2726 53.4545C27.3817 53.4545 27.4908 53.4545 27.5999 53.4545C33.2726 52.0363 40.1454 49.7454 46.6908 46.2545C41.5635 45.3818 35.4545 41.1272 31.309 36.8727C28.0363 33.4909 25.9635 30.1091 25.0908 27.0545C22.0363 33.1636 19.9635 39.4909 18.6545 44.6182C18.5454 44.8363 18.6545 45.2727 18.9817 45.6Z" fill="white" fill-opacity="0.7"/>
<path d="M48.9819 4.03638C39.0546 7.74547 32.291 14.2909 26.9456 23.4546C26.5092 26.4 28.691 30.7637 32.8365 35.1273C38.6183 41.2364 45.8183 44.8364 49.9637 43.8546C50.0728 43.8546 50.1819 43.8546 50.291 43.8546C58.4728 38.7273 64.3637 32.1818 67.8546 22.9091C62.7274 21.3818 50.6183 9.27274 48.9819 4.03638ZM47.7819 24C45.0546 26.7273 40.5819 28.1455 38.0728 25.6364C35.7819 23.3455 36.5456 19.0909 39.7092 15.9273C42.4365 13.2 46.9092 11.6727 49.4183 14.2909C52.0365 16.9091 50.4001 21.3818 47.7819 24Z" fill="white"/>
</svg>
