<svg width="128" height="128" viewBox="0 0 128 128" fill="none" xmlns="http://www.w3.org/2000/svg">
<path d="M31.0301 83.7819C30.2543 83.0061 29.6725 81.8425 29.4786 80.6788C25.4058 83.7819 22.8846 87.2728 13.3816 88.0485C12.7998 88.0485 12.6058 88.0485 12.6058 88.0485C11.6362 88.2425 10.8604 89.2122 10.8604 90.1819C10.8604 91.1516 11.8301 92.1213 12.9937 91.9273H13.7695C13.9634 91.9273 14.1574 91.9273 14.3513 91.9273C16.6786 91.9273 18.0361 92.5092 18.2301 93.091C18.424 93.2849 19.0058 95.6122 12.218 102.4C4.46039 109.576 3.87858 121.212 3.87858 121.6C3.87858 122.182 4.07251 122.57 4.46039 122.958C4.84827 123.346 5.43009 123.539 5.81797 123.539C25.018 122.764 29.0907 109.77 34.7149 109.77C36.6543 109.77 36.0725 114.618 36.0725 115.006C35.8786 117.527 39.7574 117.915 39.9513 115.394C39.9513 115.394 39.9513 115.006 39.9513 114.618C40.5331 107.636 43.0543 104.339 45.5755 100.849C46.1574 100.073 46.7392 99.297 47.1271 98.5213C45.9634 98.3273 44.7998 97.7455 44.024 96.9698L31.0301 83.7819ZM30.6422 73.5031C33.7452 62.4486 38.5937 49.2607 45.9634 37.2364C39.7574 40.5334 31.224 42.0849 26.1816 37.0425C25.7937 36.6546 25.2119 36.4607 24.4362 36.4607C23.6604 36.4607 23.2725 36.8485 23.0786 37.4304L2.13312 77.5758C1.74524 78.1576 1.74524 79.1273 2.32706 79.7092C2.90888 80.291 3.68464 80.4849 4.26645 80.291L30.6422 73.5031ZM90.5695 82.0364C78.5452 89.4061 65.5513 94.2546 54.3028 97.3576L47.5149 123.733C47.321 124.509 47.5149 125.285 48.0968 125.673C48.4846 126.061 48.8725 126.061 49.2604 126.061C49.6483 126.061 49.8422 126.061 50.2301 125.867L90.1816 104.921C90.7634 104.727 91.1513 104.146 91.1513 103.564C91.1513 102.982 90.9574 102.4 90.5695 102.012C85.9149 96.9698 87.2725 88.2425 90.5695 82.0364ZM73.3089 31.0304C69.2362 35.1031 68.0725 40.3395 70.3998 42.8607C73.3089 45.7698 79.1271 43.0546 82.2301 39.9516C85.1392 37.0425 88.0483 31.0304 85.1392 28.1213C82.2301 25.2122 76.4119 27.9273 73.3089 31.0304ZM122.957 5.23642C121.018 3.10309 118.303 1.93945 115.394 1.93945H115.2C109.188 2.13339 100.266 2.90915 90.7634 6.01218C93.4786 13.9637 114.036 34.5213 122.182 37.2364C125.285 27.7334 126.06 18.8122 126.254 12.8001C126.06 9.89097 125.091 7.17582 122.957 5.23642ZM33.7452 81.0667L47.1271 94.4485C47.5149 94.8364 47.9028 95.0304 48.4846 95.0304C48.6786 95.0304 48.8725 95.0304 49.0664 95.0304C59.1513 92.5092 71.3695 88.4364 83.0058 82.2304C73.8907 80.6789 63.0301 73.1152 55.6604 65.5516C49.8422 59.5395 46.1574 53.5273 44.6058 48.097C39.1755 58.9576 35.4907 70.2061 33.1634 79.3213C32.9695 79.7092 33.1634 80.4849 33.7452 81.0667Z" fill="#1E3888"/>
<path d="M87.0786 7.17578C69.4301 13.7697 57.4059 25.4061 47.9028 41.697C47.1271 46.9334 51.0059 54.6909 58.3756 62.4485C68.6543 73.3091 81.4543 79.7091 88.824 77.9637C89.018 77.9637 89.2119 77.9637 89.4059 77.9637C103.951 68.8485 114.424 57.2121 120.63 40.7273C111.515 38.0121 89.9877 16.4849 87.0786 7.17578ZM84.9452 42.6667C80.0968 47.5152 72.1453 50.0364 67.6846 45.5758C63.6119 41.5031 64.9695 33.9394 70.5937 28.3152C75.4422 23.4667 83.3937 20.7515 87.8543 25.4061C92.5089 30.0606 89.5998 38.0121 84.9452 42.6667Z" fill="#FF6600"/>
</svg>
