<svg width="124" height="21" viewBox="0 0 124 21" fill="none" xmlns="http://www.w3.org/2000/svg">
<path d="M10.9929 0L13.461 7.15236H21.4478L14.9863 11.5728L17.4544 18.7251L10.9929 14.3047L4.53144 18.7251L6.9995 11.5728L0.538032 7.15236H8.52485L10.9929 0Z" fill="#FF5C00"/>
<path d="M36.4963 0L38.9644 7.15236H46.9512L40.4897 11.5728L42.9578 18.7251L36.4963 14.3047L30.0349 18.7251L32.5029 11.5728L26.0414 7.15236H34.0283L36.4963 0Z" fill="#FF5C00"/>
<path d="M61.9997 0L64.4678 7.15236H72.4546L65.9932 11.5728L68.4612 18.7251L61.9997 14.3047L55.5383 18.7251L58.0063 11.5728L51.5449 7.15236H59.5317L61.9997 0Z" fill="#FF5C00"/>
<path d="M87.5037 0L89.9717 7.15236H97.9585L91.4971 11.5728L93.9651 18.7251L87.5037 14.3047L81.0422 18.7251L83.5102 11.5728L77.0488 7.15236H85.0356L87.5037 0Z" fill="#FF5C00"/>
<path d="M113.007 0L115.475 6.9898H123.462L117 11.3097L119.469 18.2995L113.007 13.9796L106.546 18.2995L109.014 11.3097L102.552 6.9898H110.539L113.007 0Z" fill="#FF5C00"/>
</svg>
