<svg width="24" height="25" viewBox="0 0 24 25" fill="none" xmlns="http://www.w3.org/2000/svg">
<path d="M21.6 16.88C21.344 17.136 21.0294 17.264 20.656 17.264C20.2827 17.264 19.968 17.136 19.712 16.88L12.016 9.2L4.28803 16.88C4.02136 17.136 3.70403 17.264 3.33603 17.264C2.96803 17.264 2.65336 17.1333 2.39203 16.872C2.1307 16.6107 2.00003 16.296 2.00003 15.928C2.00003 15.56 2.12803 15.248 2.38403 14.992L11.024 6.384C11.2907 6.128 11.6107 6 11.984 6C12.1547 6 12.3227 6.032 12.488 6.096C12.6534 6.16 12.8 6.256 12.928 6.384L21.568 14.992C21.8454 15.248 21.9867 15.56 21.992 15.928C21.9974 16.296 21.8667 16.6133 21.6 16.88Z" fill="#4A4A4A"/>
</svg>
