<svg width="132" height="132" viewBox="0 0 132 132" fill="none" xmlns="http://www.w3.org/2000/svg">
<path d="M93.9045 71.8456C94.1573 71.8456 94.3998 71.7435 94.5785 71.5618C94.7572 71.3802 94.8577 71.1338 94.8577 70.8768V66.4266C94.8577 66.1697 94.7572 65.9233 94.5785 65.7416C94.3998 65.56 94.1573 65.4579 93.9045 65.4579H89.5447V63.5773C89.5447 63.4501 89.5201 63.3241 89.4722 63.2066C89.4243 63.089 89.3541 62.9822 89.2656 62.8923L85.7929 59.3626C85.9616 58.9937 86.0488 58.5916 86.0485 58.1848C86.0485 56.6364 84.8092 55.3768 83.2859 55.3768C81.7626 55.3768 80.5233 56.6364 80.5233 58.1848C80.5233 59.7331 81.7626 60.9927 83.2859 60.9927C83.6997 60.9927 84.0921 60.8991 84.4448 60.7327L87.6383 63.9785V65.4578H68.4531V64.2918H76.7315C77.7856 64.2918 78.722 63.8254 79.3678 62.9787C80.0138 62.132 80.2249 61.0943 79.9623 60.0566C78.8464 55.6457 75.5938 52.2529 71.5029 50.8938C73.2995 49.6096 74.4769 47.4881 74.4769 45.0911C74.477 41.1811 71.3471 38 67.5 38C63.6529 38 60.5231 41.1811 60.5231 45.0913C60.5231 47.4883 61.7005 49.6099 63.497 50.8939C59.4062 52.253 56.1536 55.6458 55.0375 60.0567C54.7749 61.0944 54.9861 62.1323 55.632 62.9789C56.2779 63.8255 57.2142 64.2919 58.2684 64.2919H66.5469V65.4579H47.3615V63.9786L50.5551 60.7328C50.9181 60.9043 51.3137 60.993 51.714 60.9927C53.2372 60.9927 54.4766 59.7331 54.4766 58.1848C54.4766 56.6364 53.2371 55.377 51.7139 55.377C50.1907 55.377 48.9512 56.6366 48.9512 58.1849C48.9512 58.6054 49.0433 59.0043 49.207 59.3628L45.7343 62.8924C45.6458 62.9824 45.5756 63.0892 45.5277 63.2067C45.4798 63.3242 45.4552 63.4502 45.4552 63.5774V65.458H41.0955C40.8427 65.458 40.6002 65.5601 40.4215 65.7417C40.2428 65.9234 40.1423 66.1698 40.1423 66.4268V70.877C40.1423 71.1339 40.2428 71.3803 40.4215 71.562C40.6002 71.7436 40.8427 71.8457 41.0955 71.8457H48.5417V93.6123H41.0955C40.8427 93.6123 40.6002 93.7144 40.4215 93.896C40.2428 94.0777 40.1423 94.3241 40.1423 94.5811V99.0312C40.1423 99.2882 40.2428 99.5346 40.4215 99.7163C40.6002 99.8979 40.8427 100 41.0955 100H93.9045C94.1573 100 94.3998 99.8979 94.5785 99.7163C94.7572 99.5346 94.8577 99.2882 94.8577 99.0312V94.5811C94.8577 94.3241 94.7572 94.0777 94.5785 93.896C94.3998 93.7144 94.1573 93.6123 93.9045 93.6123H86.4583V71.8456H93.9045ZM83.286 59.0552C82.8139 59.0552 82.4296 58.6648 82.4296 58.1848C82.4296 57.7047 82.8139 57.3143 83.286 57.3143C83.7582 57.3143 84.1424 57.7047 84.1424 58.1848C84.1424 58.6648 83.7582 59.0552 83.286 59.0552ZM62.4294 45.0913C62.4294 42.2494 64.704 39.9375 67.5 39.9375C70.296 39.9375 72.5707 42.2494 72.5707 45.0913C72.5707 47.9326 70.2967 50.2443 67.5013 50.245H67.4989C64.7034 50.2443 62.4294 47.9326 62.4294 45.0913ZM58.2685 62.3544C57.8036 62.3544 57.4234 62.1651 57.1387 61.7917C56.8537 61.4183 56.7682 60.9969 56.8839 60.5394C58.1286 55.6194 62.4937 52.1831 67.4988 52.1826H67.5012C72.5064 52.1832 76.8715 55.6195 78.1161 60.5394C78.2319 60.997 78.1463 61.4183 77.8613 61.7918C77.5764 62.1651 77.1964 62.3545 76.7315 62.3545H68.4531V60.8205C69.5081 60.425 70.2626 59.3929 70.2626 58.185C70.2626 56.6367 69.0233 55.3771 67.5 55.3771C65.9767 55.3771 64.7374 56.6367 64.7374 58.185C64.7374 59.3929 65.4918 60.4251 66.5469 60.8205V62.3545H58.2685V62.3544ZM66.6437 58.1849C66.6437 57.705 67.028 57.3145 67.5001 57.3145C67.9723 57.3145 68.3565 57.7049 68.3565 58.1849C68.3565 58.6649 67.9723 59.0553 67.5001 59.0553C67.028 59.0553 66.6437 58.6648 66.6437 58.1849ZM51.7139 57.3145C52.186 57.3145 52.5703 57.7049 52.5703 58.1849C52.5703 58.6649 52.186 59.0553 51.7139 59.0553C51.2417 59.0553 50.8575 58.6649 50.8575 58.1849C50.8575 57.7049 51.2417 57.3145 51.7139 57.3145ZM42.0486 67.3954H92.9514V69.9081H42.0486V67.3954ZM92.9514 98.0625H42.0486V95.5498H92.9514V98.0625ZM84.552 93.6123H50.448V71.8456H84.552V93.6123ZM56.5986 87.9207H78.4014C78.6542 87.9207 78.8966 87.8186 79.0753 87.6369C79.2541 87.4552 79.3545 87.2088 79.3545 86.9519V78.0515C79.3545 77.7946 79.2541 77.5482 79.0753 77.3665C78.8966 77.1848 78.6542 77.0828 78.4014 77.0828H56.5986C56.3458 77.0828 56.1034 77.1848 55.9247 77.3665C55.7459 77.5482 55.6455 77.7946 55.6455 78.0515V86.9519C55.6455 87.2088 55.7459 87.4552 55.9247 87.6369C56.1034 87.8186 56.3458 87.9207 56.5986 87.9207ZM57.5518 79.0203H77.4482V85.9832H57.5518V79.0203Z" fill="url(#paint0_linear_685_680)"/>
<circle cx="66" cy="66" r="65.75" stroke="#1E3888" stroke-width="0.5"/>
<defs>
<linearGradient id="paint0_linear_685_680" x1="67.5" y1="38" x2="67.5" y2="100" gradientUnits="userSpaceOnUse">
<stop stop-color="#FF6600"/>
</linearGradient>
</defs>
</svg>
