<svg width="132" height="132" viewBox="0 0 132 132" fill="none" xmlns="http://www.w3.org/2000/svg">
<g clip-path="url(#clip0_685_678)">
<path d="M85.726 65.3934C85.0561 65.3934 84.5128 65.9365 84.5128 66.6066C84.5128 67.2767 85.0561 67.8199 85.726 67.8199H94.9478C95.6178 67.8199 96.1611 67.2767 96.1611 66.6066V36.2757C96.1611 35.6057 95.6178 35.0625 94.9478 35.0625H35.4993C34.8292 35.0625 34.2861 35.6057 34.2861 36.2757V66.6066C34.2861 67.2767 34.8292 67.8199 35.4993 67.8199H55.7936C55.3897 68.7295 55.1144 69.7076 54.9896 70.7316H53.6978C53.0278 70.7316 52.4846 71.2748 52.4846 71.9449V80.3931C51.6931 82.5244 52.2514 84.9379 53.9467 86.5123C52.4545 87.2594 51.2079 88.4253 50.3616 89.8558C49.5152 88.4252 48.2686 87.2594 46.7764 86.5123C47.8917 85.4766 48.5912 83.9991 48.5912 82.3607C48.5912 79.2355 46.0486 76.693 42.9235 76.693C39.7983 76.693 37.2557 79.2355 37.2557 82.3607C37.2557 83.9991 37.9553 85.4766 39.0705 86.5123C36.237 87.9309 34.2861 90.8608 34.2861 94.2394V95.7243C34.2861 96.3943 34.8292 96.9375 35.4993 96.9375C38.0509 96.9375 77.5146 96.9375 80.0718 96.9375C80.0765 96.9375 80.081 96.9369 80.0856 96.9368C80.0902 96.9368 80.0948 96.9375 80.0994 96.9375H94.9478C95.6178 96.9375 96.1611 96.3943 96.1611 95.7243V94.2394C96.1611 90.8608 94.2101 87.9309 91.3766 86.5123C92.4918 85.4766 93.1913 83.9992 93.1913 82.3607C93.1913 79.2355 90.6487 76.693 87.5236 76.693C84.3984 76.693 81.8558 79.2355 81.8558 82.3607C81.8558 83.9991 82.5554 85.4766 83.6706 86.5123C82.1784 87.2594 80.9318 88.4253 80.0855 89.8558C79.2391 88.4252 77.9925 87.2594 76.5003 86.5123C78.1934 84.9399 78.7549 82.5269 77.9624 80.3931V71.9449C77.9624 71.2748 77.4191 70.7316 76.7492 70.7316H75.4575C75.3326 69.7076 75.0572 68.7295 74.6533 67.8199H80.8753C81.5452 67.8199 82.0885 67.2767 82.0885 66.6066C82.0885 65.9365 81.5452 65.3934 80.8753 65.3934H73.1454C72.3297 64.4149 71.3363 63.5904 70.2165 62.9669H90.0949C90.7648 62.9669 91.3081 62.4237 91.3081 61.7537V41.1287C91.3081 40.4586 90.7648 39.9154 90.0949 39.9154H53.9405C53.2704 39.9154 52.7272 40.4586 52.7272 41.1287C52.7272 41.7987 53.2704 42.3419 53.9405 42.3419H88.8817V60.5404H70.5588C70.8458 59.855 71.005 59.103 71.005 58.3145C71.005 55.1266 68.4115 52.5331 65.2236 52.5331C62.0357 52.5331 59.4421 55.1266 59.4421 58.3145C59.4421 59.103 59.6013 59.8548 59.8884 60.5404H41.5655V42.3419H49.0875C49.7576 42.3419 50.3008 41.7987 50.3008 41.1287C50.3008 40.4586 49.7576 39.9154 49.0875 39.9154H40.3522C39.6822 39.9154 39.139 40.4586 39.139 41.1287V61.7537C39.139 62.4237 39.6822 62.9669 40.3522 62.9669H60.2303C59.1106 63.5904 58.117 64.4149 57.3015 65.3934H36.7125V37.489H93.7346V65.3934H85.726ZM75.5361 73.1581V77.4869C74.6895 76.9833 73.7019 76.6928 72.6474 76.6928C69.5222 76.6928 66.9796 79.2354 66.9796 82.3606C66.9796 83.999 67.6792 85.4764 68.7944 86.5122C67.3107 87.255 66.0696 88.4116 65.2236 89.8311C64.3775 88.4117 63.1363 87.255 61.6527 86.5122C62.7679 85.4764 63.4674 83.9991 63.4674 82.3606C63.4674 79.2354 60.9248 76.6928 57.7997 76.6928C56.7451 76.6928 55.7575 76.9832 54.9111 77.4869V73.1581C56.5401 73.1581 74.631 73.1581 75.5361 73.1581ZM75.8888 82.3607C75.8888 84.1479 74.4347 85.602 72.6474 85.602C70.86 85.602 69.4061 84.1479 69.4061 82.3607C69.4061 80.5735 70.86 79.1194 72.6474 79.1194C74.4409 79.1194 75.8888 80.5803 75.8888 82.3607ZM54.5584 82.3607C54.5584 80.5815 56.0049 79.1194 57.7997 79.1194C59.5869 79.1194 61.0409 80.5735 61.0409 82.3607C61.0409 84.1479 59.5869 85.602 57.7997 85.602C56.0124 85.602 54.5584 84.1479 54.5584 82.3607ZM39.6823 82.3607C39.6823 80.5735 41.1364 79.1194 42.9236 79.1194C44.7108 79.1194 46.1649 80.5735 46.1649 82.3607C46.1649 84.1479 44.7108 85.602 42.9236 85.602C41.1362 85.602 39.6823 84.1479 39.6823 82.3607ZM49.1345 94.511H36.7125V94.2394C36.7125 90.8147 39.4987 88.0285 42.9235 88.0285C46.3482 88.0285 49.1344 90.8147 49.1344 94.2394L49.1345 94.511ZM51.5887 94.2394C51.5887 90.8147 54.3749 88.0285 57.7997 88.0285C61.2244 88.0285 64.01 90.8144 64.01 94.2394V94.511H51.5887V94.2394ZM84.2824 82.3607C84.2824 80.5735 85.7363 79.1194 87.5237 79.1194C89.311 79.1194 90.765 80.5735 90.765 82.3607C90.765 84.1479 89.311 85.602 87.5237 85.602C85.7363 85.602 84.2824 84.1479 84.2824 82.3607ZM81.3126 94.2394C81.3126 90.8147 84.0988 88.0285 87.5236 88.0285C90.9483 88.0285 93.7346 90.8147 93.7346 94.2394V94.511H81.3126V94.2394ZM78.8585 94.2394V94.511H66.4372C66.4372 94.491 66.4369 94.2474 66.4369 94.2277C66.4432 90.8084 69.2268 88.0285 72.6476 88.0285C76.0723 88.0285 78.8585 90.8147 78.8585 94.2394ZM65.2236 54.9596C67.0735 54.9596 68.5785 56.4646 68.5785 58.3145C68.5785 60.1645 67.0735 61.6695 65.2236 61.6695C63.3736 61.6695 61.8686 60.1645 61.8686 58.3145C61.8686 56.4646 63.3736 54.9596 65.2236 54.9596ZM65.2236 64.0964C69.1398 64.0964 72.407 66.9777 73.0096 70.7316H57.4375C58.0401 66.9777 61.3074 64.0964 65.2236 64.0964Z" fill="#FF6600"/>
</g>
<circle cx="66" cy="66" r="65.75" stroke="#1E3888" stroke-width="0.5"/>
<defs>
<clipPath id="clip0_685_678">
<rect width="62.1176" height="62.1176" fill="white" transform="translate(34.1647 34.9412)"/>
</clipPath>
</defs>
</svg>
