<svg width="131" height="131" viewBox="0 0 131 131" fill="none" xmlns="http://www.w3.org/2000/svg">
<g clip-path="url(#clip0_685_682)">
<path d="M45.7835 59.9167C45.2798 60.3822 44.6262 60.6523 43.9408 60.6781C44.701 61.7241 45.6979 62.5753 46.85 63.1623C48.0021 63.7492 49.2768 64.0552 50.5698 64.0552C51.8628 64.0552 53.1375 63.7492 54.2896 63.1623C55.4417 62.5753 56.4386 61.7241 57.1988 60.6781C56.5134 60.6523 55.8598 60.3822 55.3561 59.9167C54.7662 60.6101 54.0326 61.1671 53.2062 61.549C52.3798 61.931 51.4802 62.1288 50.5698 62.1288C49.6594 62.1288 48.7599 61.931 47.9334 61.549C47.107 61.1671 46.3734 60.6101 45.7835 59.9167ZM87.0591 60.6781C86.3737 60.6523 85.7201 60.3822 85.2164 59.9167C84.6265 60.6102 83.893 61.1672 83.0666 61.5492C82.2401 61.9312 81.3406 62.129 80.4301 62.129C79.5197 62.129 78.6201 61.9312 77.7937 61.5492C76.9672 61.1672 76.2337 60.6102 75.6438 59.9167C75.1401 60.3822 74.4865 60.6523 73.8011 60.6781C74.5613 61.7241 75.5582 62.5753 76.7103 63.1623C77.8624 63.7492 79.1371 64.0552 80.4301 64.0552C81.7231 64.0552 82.9978 63.7492 84.1499 63.1623C85.302 62.5753 86.2989 61.7241 87.0591 60.6781ZM37.1235 59.7168H38.5087C38.7716 60.5979 39.1364 61.4453 39.5957 62.2419L38.6483 63.1508C38.4273 63.3642 38.2519 63.6204 38.133 63.9037C38.014 64.187 37.9539 64.4916 37.9562 64.7989C37.9612 65.1521 38.037 65.5007 38.179 65.8242C38.321 66.1476 38.5265 66.4393 38.7832 66.682L39.9636 67.8162C40.4308 68.2857 41.0593 68.5598 41.7212 68.5827C42.3832 68.6056 43.0291 68.3756 43.5276 67.9395L44.512 66.9945C44.6238 67.0543 44.7384 67.1077 44.8511 67.1646C45.1512 66.5684 45.5699 66.0398 46.0816 65.6113C45.6649 65.426 45.2602 65.2148 44.8699 64.979C44.6882 64.8675 44.4748 64.8195 44.2629 64.8423C44.0511 64.8651 43.8528 64.9576 43.6991 65.1052L42.1935 66.55C42.0541 66.6405 41.8868 66.6778 41.7222 66.655C41.5576 66.6321 41.4067 66.5508 41.2972 66.4258L40.1187 65.293C40.0485 65.2302 39.9915 65.1541 39.951 65.0691C39.9105 64.9841 39.8873 64.8919 39.8827 64.7979C39.8807 64.75 39.8887 64.7023 39.9061 64.6577C39.9235 64.6131 39.95 64.5726 39.9839 64.5388L41.4923 63.092C41.6556 62.9353 41.7586 62.7261 41.783 62.5011C41.8075 62.2761 41.752 62.0496 41.6262 61.8615C40.9481 60.8514 40.4614 59.7253 40.1905 58.5393C40.142 58.3264 40.0227 58.1363 39.8521 58.0002C39.6814 57.864 39.4696 57.7899 39.2513 57.7899H37.1231C36.9705 57.77 36.8314 57.6922 36.7346 57.5726C36.6378 57.453 36.5906 57.3008 36.6029 57.1474V55.5475C36.5905 55.3939 36.6376 55.2415 36.7346 55.1218C36.8315 55.0021 36.9708 54.9243 37.1235 54.9045H38.7663C39.0218 54.9045 39.2668 54.803 39.4474 54.6224C39.6281 54.4417 39.7296 54.1967 39.7296 53.9413C39.7296 53.6858 39.6281 53.4408 39.4474 53.2602C39.2668 53.0795 39.0218 52.978 38.7663 52.978H37.1235C36.4587 52.9953 35.8277 53.2755 35.3691 53.7571C34.9104 54.2387 34.6613 54.8825 34.6764 55.5475V57.1474C34.6613 57.8123 34.9104 58.4561 35.3691 58.9378C35.8277 59.4194 36.4587 59.6995 37.1235 59.7168ZM93.8764 52.978H92.2336C91.9781 52.978 91.7331 53.0795 91.5525 53.2602C91.3718 53.4408 91.2704 53.6858 91.2704 53.9413C91.2704 54.1967 91.3718 54.4417 91.5525 54.6224C91.7331 54.803 91.9781 54.9045 92.2336 54.9045H93.8759C94.0288 54.9242 94.1681 55.0019 94.2652 55.1217C94.3622 55.2414 94.4094 55.3939 94.397 55.5475V57.1474C94.4094 57.3009 94.3623 57.4533 94.2654 57.573C94.1684 57.6927 94.0291 57.7706 93.8764 57.7904H91.7491C91.5309 57.7903 91.3191 57.8644 91.1485 58.0005C90.9779 58.1365 90.8585 58.3265 90.8099 58.5393C90.5388 59.7254 90.052 60.8517 89.3737 61.8619C89.2478 62.0501 89.1922 62.2765 89.2167 62.5016C89.2412 62.7266 89.3442 62.9358 89.5076 63.0925L91.0146 64.5373C91.0488 64.5714 91.0756 64.6121 91.0932 64.6571C91.1108 64.702 91.1188 64.7502 91.1167 64.7984C91.1122 64.8922 91.089 64.9842 91.0487 65.069C91.0084 65.1538 90.9516 65.2298 90.8817 65.2925L89.7041 66.4243C89.5946 66.5499 89.4434 66.6317 89.2784 66.6547C89.1134 66.6777 88.9456 66.6404 88.8059 66.5495L87.3009 65.1047C87.1472 64.9568 86.9487 64.8643 86.7366 64.8416C86.5246 64.819 86.311 64.8675 86.1296 64.9795C85.7394 65.2152 85.3348 65.4264 84.9183 65.6118C85.43 66.0402 85.8487 66.5686 86.1488 67.1646C86.2615 67.1077 86.3762 67.0543 86.4874 66.9945L87.4718 67.9395C87.9707 68.3758 88.617 68.6057 89.2793 68.5824C89.9417 68.5592 90.5702 68.2845 91.0373 67.8143L92.2172 66.681C92.4737 66.4384 92.6789 66.1469 92.8208 65.8236C92.9627 65.5003 93.0383 65.1519 93.0432 64.7989C93.0457 64.4911 92.9855 64.1861 92.8663 63.9024C92.747 63.6188 92.5713 63.3623 92.3497 63.1488L91.4043 62.2419C91.8637 61.4454 92.2285 60.598 92.4913 59.7168H93.8764C94.5413 59.6995 95.1722 59.4194 95.6309 58.9378C96.0896 58.4561 96.3386 57.8123 96.3235 57.1474V55.5475C96.3386 54.8825 96.0896 54.2387 95.6309 53.7571C95.1722 53.2755 94.5413 52.9953 93.8764 52.978ZM81.9934 74.4466C82.7561 74.4164 83.4758 74.0854 83.9951 73.526C84.5144 72.9666 84.7911 72.2244 84.7647 71.4615V69.4484C84.7911 68.6856 84.5144 67.9433 83.9951 67.3839C83.4758 66.8245 82.7561 66.4935 81.9934 66.4633H79.9933C79.7378 66.4633 79.4928 66.5648 79.3122 66.7454C79.1315 66.9261 79.03 67.1711 79.03 67.4266C79.03 67.682 79.1315 67.927 79.3122 68.1077C79.4928 68.2883 79.7378 68.3898 79.9933 68.3898H81.9934C82.2443 68.4214 82.4729 68.5497 82.6307 68.7473C82.7884 68.9449 82.8629 69.1963 82.8382 69.4479V71.4615C82.863 71.7133 82.7886 71.9647 82.6309 72.1625C82.4731 72.3602 82.2444 72.4885 81.9934 72.5201H79.4028C79.1833 72.5202 78.9705 72.5951 78.7994 72.7326C78.6284 72.8702 78.5094 73.062 78.4622 73.2763C78.1271 74.795 77.523 76.2414 76.6783 77.5473C76.5587 77.7326 76.5064 77.9535 76.5301 78.1728C76.5537 78.3921 76.652 78.5967 76.8083 78.7523L78.6419 80.5738C78.7083 80.6422 78.7605 80.7232 78.7952 80.812C78.8299 80.9008 78.8466 80.9957 78.8441 81.091C78.8346 81.3991 78.7038 81.691 78.48 81.903L77.0443 83.3281C76.8801 83.5222 76.6481 83.6464 76.3956 83.6755C76.143 83.7047 75.8889 83.6366 75.6847 83.4851L73.8498 81.667C73.6947 81.5135 73.4921 81.417 73.2751 81.3936C73.0582 81.3702 72.8396 81.421 72.6554 81.538C71.3347 82.3785 69.8757 82.9785 68.3458 83.3103C68.1309 83.3569 67.9384 83.4757 67.8003 83.6469C67.6622 83.8181 67.5869 84.0314 67.5868 84.2514V86.8227C67.5483 87.0719 67.4159 87.2968 67.2168 87.4514C67.0178 87.6061 66.7671 87.6787 66.5162 87.6545H64.4838C64.2328 87.6787 63.9822 87.6061 63.7831 87.4514C63.584 87.2968 63.4517 87.0719 63.4131 86.8227V84.2514C63.4131 84.0313 63.3378 83.8178 63.1996 83.6465C63.0614 83.4752 62.8687 83.3564 62.6536 83.3098C61.1236 82.9777 59.6643 82.3777 58.3431 81.5375C58.1588 81.4206 57.9402 81.3698 57.7232 81.3934C57.5062 81.4171 57.3036 81.5137 57.1487 81.6675L55.3152 83.4856C55.1108 83.6369 54.8566 83.7049 54.604 83.6758C54.3514 83.6468 54.1193 83.5228 53.9546 83.3291L52.5194 81.9035C52.2962 81.6908 52.1658 81.3987 52.1563 81.0905C52.1536 80.9955 52.1699 80.9008 52.2041 80.8121C52.2383 80.7234 52.2898 80.6424 52.3557 80.5738L54.1925 78.7532C54.3496 78.5975 54.4483 78.3926 54.4721 78.1727C54.4958 77.9528 54.4432 77.7315 54.3231 77.5458C53.477 76.2409 52.8723 74.7946 52.5377 73.2758C52.4905 73.0615 52.3716 72.8697 52.2005 72.7322C52.0295 72.5947 51.8166 72.5197 51.5971 72.5197H49.006C48.7565 72.4852 48.5299 72.3562 48.3727 72.1594C48.2156 71.9626 48.1401 71.7129 48.1617 71.462V69.4489C48.1397 69.1978 48.215 68.9479 48.372 68.7508C48.5291 68.5536 48.7559 68.4244 49.0055 68.3898H51.0066C51.2621 68.3898 51.5071 68.2883 51.6878 68.1077C51.8684 67.927 51.9699 67.682 51.9699 67.4266C51.9699 67.1711 51.8684 66.9261 51.6878 66.7454C51.5071 66.5648 51.2621 66.4633 51.0066 66.4633H49.0055C48.2431 66.4937 47.5236 66.8247 47.0045 67.3839C46.4854 67.9432 46.2088 68.6853 46.2353 69.4479V71.4615C46.2087 72.2242 46.4852 72.9664 47.0043 73.5258C47.5235 74.0852 48.243 74.4163 49.0055 74.4466H50.8439C51.1786 75.6616 51.6664 76.829 52.2955 77.921L50.9975 79.2069C50.7511 79.4544 50.5563 79.7485 50.4245 80.0719C50.2927 80.3953 50.2265 80.7418 50.2298 81.091C50.2404 81.9119 50.5753 82.6953 51.1612 83.2703L52.5989 84.6974C53.122 85.2518 53.8419 85.5787 54.6036 85.6078C55.3653 85.6369 56.108 85.3658 56.6719 84.8529L57.9737 83.5622C59.0794 84.1891 60.2594 84.6747 61.4862 85.0075V86.8227C61.52 87.5853 61.8542 88.3035 62.4159 88.8203C62.9776 89.3371 63.721 89.6106 64.4838 89.581H66.5162C67.2788 89.6105 68.0221 89.3369 68.5837 88.8201C69.1453 88.3033 69.4795 87.5852 69.5133 86.8227V85.0075C70.74 84.675 71.9201 84.1896 73.0257 83.5627L74.3271 84.8524C74.8909 85.3658 75.6339 85.6371 76.3958 85.6078C77.1578 85.5786 77.8778 85.2511 78.4006 84.6959L79.8377 83.2703C80.4252 82.6956 80.7607 81.9113 80.7706 81.0896C80.7737 80.7402 80.707 80.3936 80.5745 80.0703C80.4421 79.7469 80.2464 79.4533 79.9991 79.2064L78.7054 77.921C79.3337 76.8287 79.8213 75.6613 80.1566 74.4466H81.9934Z" fill="url(#paint0_linear_685_682)"/>
<path d="M59.028 75.0458C58.5322 75.4148 57.9306 75.6141 57.3125 75.6141C57.2181 75.6141 57.1246 75.6093 57.0327 75.5996C57.997 76.9451 59.2681 78.0413 60.7406 78.7975C62.2131 79.5537 63.8446 79.9482 65.5 79.9482C67.1553 79.9482 68.7868 79.5537 70.2593 78.7975C71.7318 78.0413 73.0029 76.9451 73.9673 75.5996C73.8753 75.6093 73.7819 75.6141 73.6875 75.6141C73.0694 75.6141 72.4678 75.4148 71.972 75.0458C71.1717 75.9793 70.1789 76.7287 69.0618 77.2424C67.9446 77.7562 66.7296 78.0222 65.5 78.0222C64.2704 78.0222 63.0553 77.7562 61.9382 77.2424C60.8211 76.7287 59.8283 75.9793 59.028 75.0458ZM56.3492 66.9199V72.7244C56.3492 72.9799 56.4507 73.2249 56.6314 73.4055C56.812 73.5861 57.057 73.6876 57.3125 73.6876C57.5679 73.6876 57.8129 73.5861 57.9936 73.4055C58.1742 73.2249 58.2757 72.9799 58.2757 72.7244V66.9199C58.2757 65.0272 60.0447 63.2958 62.0757 63.1103C61.392 62.7071 60.7843 62.1871 60.2802 61.574C58.0311 62.4351 56.3492 64.5639 56.3492 66.9199ZM72.7242 66.9199V72.7244C72.7242 72.9799 72.8257 73.2249 73.0064 73.4055C73.187 73.5861 73.432 73.6876 73.6875 73.6876C73.9429 73.6876 74.1879 73.5861 74.3686 73.4055C74.5492 73.2249 74.6507 72.9799 74.6507 72.7244V66.9199C74.6507 64.5639 72.9689 62.4351 70.7198 61.574C70.2158 62.1871 69.6083 62.7071 68.9248 63.1103C70.9548 63.2958 72.7242 65.0272 72.7242 66.9199ZM65.4932 71.7612H65.5096C65.7349 71.7603 65.9576 71.7139 66.1645 71.6246C66.3713 71.5354 66.558 71.4052 66.7132 71.242L67.9124 69.983C68.0915 69.7928 68.2259 69.565 68.3056 69.3161C68.3854 69.0673 68.4085 68.8038 68.3733 68.5449L67.7077 63.6762C67.097 63.8881 66.4588 64.0104 65.813 64.0394L65.2173 64.0408C64.5716 64.015 63.9331 63.896 63.3216 63.6873L62.6286 68.4553C62.5903 68.7106 62.6095 68.9712 62.6846 69.2181C62.7598 69.4651 62.889 69.6922 63.063 69.8828L64.2829 71.2169C64.4368 71.3855 64.6236 71.5208 64.8317 71.6144C65.0399 71.708 65.265 71.7579 65.4932 71.7612Z" fill="url(#paint1_linear_685_682)"/>
<path d="M65.5 62.1287C68.1599 62.1287 70.3162 59.9724 70.3162 57.3125C70.3162 54.6526 68.1599 52.4963 65.5 52.4963C62.8401 52.4963 60.6838 54.6526 60.6838 57.3125C60.6838 59.9724 62.8401 62.1287 65.5 62.1287Z" fill="#1E3888"/>
<path d="M50.5632 58.2758H50.5795C50.8047 58.2749 51.0273 58.2285 51.2341 58.1394C51.4408 58.0503 51.6274 57.9202 51.7826 57.7571L52.9828 56.4977C53.1617 56.3073 53.2958 56.0794 53.3755 55.8306C53.4551 55.5818 53.4783 55.3184 53.4432 55.0596L52.9616 51.5375C52.3617 51.7853 51.7266 51.9376 51.0794 51.9888L50.0786 51.9897C49.4318 51.9404 48.7968 51.7901 48.1965 51.5442L47.6985 54.9705C47.6603 55.2257 47.6795 55.4861 47.7546 55.733C47.8298 55.9799 47.959 56.2069 48.1329 56.3975L49.3528 57.7316C49.5067 57.9001 49.6935 58.0354 49.9016 58.129C50.1098 58.2226 50.3349 58.2726 50.5632 58.2758ZM43.8272 58.7574C44.0827 58.7574 44.3277 58.6559 44.5084 58.4753C44.689 58.2946 44.7905 58.0496 44.7905 57.7942V53.527C44.831 52.9175 45.05 52.3334 45.4203 51.8476C45.7905 51.3617 46.2956 50.9956 46.8725 50.7948C46.3245 50.3929 45.845 49.905 45.4527 49.35C44.6946 49.7601 44.0569 50.3613 43.6028 51.094C43.1488 51.8266 42.8941 52.6652 42.864 53.5266V57.7942C42.864 58.0496 42.9655 58.2946 43.1461 58.4753C43.3268 58.6559 43.5718 58.7574 43.8272 58.7574ZM56.3493 53.527V57.7942C56.3493 58.0496 56.4508 58.2946 56.6314 58.4753C56.8121 58.6559 57.0571 58.7574 57.3125 58.7574C57.568 58.7574 57.813 58.6559 57.9937 58.4753C58.1743 58.2946 58.2758 58.0496 58.2758 57.7942V53.527C58.2458 52.6656 57.9911 51.8269 57.5371 51.0942C57.083 50.3615 56.4452 49.7602 55.6871 49.35C55.2948 49.905 54.8153 50.3929 54.2673 50.7948C54.8441 50.9955 55.3492 51.3616 55.7194 51.8474C56.0897 52.3331 56.3087 52.9176 56.3493 53.527Z" fill="#1E3888"/>
<path d="M50.5699 50.0883C52.9638 50.0883 54.9045 48.1477 54.9045 45.7537C54.9045 43.3598 52.9638 41.4192 50.5699 41.4192C48.176 41.4192 46.2354 43.3598 46.2354 45.7537C46.2354 48.1477 48.176 50.0883 50.5699 50.0883Z" fill="#1E3888"/>
<path d="M80.4224 58.2758H80.4398C80.665 58.2749 80.8878 58.2285 81.0946 58.1393C81.3015 58.0501 81.4881 57.9199 81.6433 57.7566L82.8425 56.4977C83.0217 56.3075 83.156 56.0796 83.2358 55.8308C83.3155 55.582 83.3387 55.3185 83.3035 55.0596L82.8218 51.5375C82.2217 51.7854 81.5865 51.9376 80.9392 51.9888L79.9389 51.9897C79.2921 51.9404 78.657 51.7901 78.0567 51.5442L77.5587 54.9705C77.5205 55.2257 77.5398 55.4862 77.615 55.7331C77.6902 55.98 77.8196 56.2069 77.9936 56.3975L79.2131 57.7311C79.3668 57.8997 79.5533 58.035 79.7613 58.1287C79.9693 58.2224 80.1943 58.2724 80.4224 58.2758ZM73.6875 58.7574C73.9429 58.7574 74.1879 58.6559 74.3686 58.4753C74.5492 58.2946 74.6507 58.0496 74.6507 57.7942V53.527C74.6912 52.9175 74.9102 52.3334 75.2805 51.8476C75.6507 51.3617 76.1558 50.9956 76.7327 50.7948C76.1847 50.3929 75.7052 49.905 75.3129 49.35C74.5549 49.7601 73.9172 50.3613 73.4631 51.094C73.009 51.8266 72.7543 52.6652 72.7242 53.5266V57.7942C72.7242 58.0496 72.8257 58.2946 73.0064 58.4753C73.187 58.6559 73.432 58.7574 73.6875 58.7574ZM86.2095 53.527V57.7942C86.2095 58.0496 86.311 58.2946 86.4917 58.4753C86.6723 58.6559 86.9173 58.7574 87.1728 58.7574C87.4282 58.7574 87.6732 58.6559 87.8539 58.4753C88.0345 58.2946 88.136 58.0496 88.136 57.7942V53.527C88.106 52.6656 87.8514 51.8269 87.3973 51.0942C86.9432 50.3615 86.3055 49.7602 85.5473 49.35C85.155 49.905 84.6755 50.3929 84.1275 50.7948C84.7044 50.9955 85.2094 51.3616 85.5796 51.8474C85.9499 52.3331 86.1689 52.9176 86.2095 53.527Z" fill="#1E3888"/>
<path d="M80.4301 50.0883C82.8241 50.0883 84.7647 48.1477 84.7647 45.7537C84.7647 43.3598 82.8241 41.4192 80.4301 41.4192C78.0362 41.4192 76.0956 43.3598 76.0956 45.7537C76.0956 48.1477 78.0362 50.0883 80.4301 50.0883Z" fill="#1E3888"/>
</g>
<circle cx="65.5" cy="65.5" r="65.25" stroke="#FF6600" stroke-width="0.5"/>
<defs>
<linearGradient id="paint0_linear_685_682" x1="65.5" y1="52.978" x2="65.5" y2="89.5832" gradientUnits="userSpaceOnUse">
<stop offset="1" stop-color="#1E3888"/>
</linearGradient>
<linearGradient id="paint1_linear_685_682" x1="65.5" y1="61.574" x2="65.5" y2="79.9482" gradientUnits="userSpaceOnUse">
<stop offset="1" stop-color="#1E3888"/>
</linearGradient>
<clipPath id="clip0_685_682">
<rect width="61.6471" height="61.6471" fill="white" transform="translate(34.6765 34.6765)"/>
</clipPath>
</defs>
</svg>
