<svg width="98" height="98" viewBox="0 0 98 98" fill="none" xmlns="http://www.w3.org/2000/svg">
<g clip-path="url(#clip0_685_433)">
<path d="M63.6974 30.6353C60.8561 30.6353 58.2214 30.6353 55.5351 30.6353C55.2768 30.6353 54.9152 30.4286 54.7602 30.1703C52.4354 27.6389 49.3358 26.864 46.3395 28.0006C43.3432 29.1888 41.4834 31.9784 41.4834 35.3364C41.4834 41.019 41.4834 46.7017 41.4834 52.3843C41.4834 52.6943 41.4834 52.9526 41.4834 53.3659C38.9004 53.3659 36.369 53.3659 33.8377 53.3659C33.786 53.1592 33.6827 53.0559 33.6827 52.9009C33.6827 46.65 33.476 40.3991 33.8377 34.1482C34.1476 28.1039 37.5572 23.8161 42.8266 21.0264C43.0849 20.8714 43.6015 20.9231 43.9115 21.0264C47.3727 22.4729 50.7823 22.4729 54.2436 21.0264C54.5019 20.9231 54.9152 20.7681 55.1735 20.9231C59.3063 22.9378 62.1476 26.0891 63.6974 30.6353Z" fill="#1E3888"/>
<path d="M53.3654 64.1629C52.5388 64.1629 51.8672 64.1629 51.1956 64.1629C45.9262 64.1629 40.6052 64.2663 35.3358 64.1113C29.0332 63.9563 24.3321 60.96 21.3875 55.3807C21.2325 55.019 21.1808 54.5024 21.3358 54.1408C22.7307 50.7312 22.5757 47.3216 21.2325 43.9637C20.9742 43.3438 20.9742 42.8788 21.2842 42.3105C23.2989 38.436 26.3986 35.8013 30.6347 34.3032C30.6864 34.6648 30.6864 34.8714 30.6864 35.1297C30.6864 36.6795 30.6347 38.2294 30.6864 39.7792C30.738 41.5356 30.5831 42.9821 29.1882 44.4286C27.1218 46.5467 27.0185 49.388 28.31 52.0744C29.6532 54.9157 31.9779 56.4139 35.1292 56.4655C40.8635 56.5172 46.6495 56.4655 52.3838 56.4655C52.6938 56.4655 53.0554 56.4655 53.417 56.4655C53.3654 59.0486 53.3654 61.5799 53.3654 64.1629Z" fill="#1E3888"/>
<path d="M67.3653 63.4397C67.3653 60.7017 67.3653 58.0153 67.3653 55.3806C67.3653 55.1223 67.6236 54.8124 67.8302 54.6057C70.3099 52.3327 71.1365 49.233 70 46.2884C68.8634 43.2921 66.0221 41.329 62.7158 41.329C57.1365 41.329 51.5572 41.329 45.9262 41.329C45.5129 41.329 45.0996 41.329 44.583 41.329C44.583 38.746 44.583 36.2663 44.583 33.7865C44.7896 33.7349 44.8413 33.6832 44.893 33.6832C51.2989 33.7349 57.7048 33.4249 64.1107 33.8382C69.9483 34.1998 74.0812 37.6094 76.7158 42.7755C76.8708 43.0338 76.8708 43.4987 76.7158 43.757C75.2177 47.2183 75.476 50.5762 76.7675 54.0375C76.8708 54.3474 76.9742 54.8124 76.8708 55.1223C75.0111 59.1519 72.0147 61.9415 67.8302 63.388C67.7786 63.4397 67.6236 63.4397 67.3653 63.4397Z" fill="#1E3888"/>
<path d="M34.6648 67.2109C37.3512 67.2109 40.0375 67.2109 42.7239 67.2109C42.9822 67.2109 43.2405 67.4692 43.3955 67.6759C45.6685 70.1556 48.8715 70.9821 51.8161 69.8456C54.8124 68.6574 56.6722 65.8678 56.6722 62.5098C56.6722 58.1187 56.6722 53.7792 56.6722 49.3881C56.6722 46.5984 59.2036 44.7903 61.735 45.6685C63.3364 46.2368 64.163 47.425 64.2663 49.0781C64.318 50.2146 64.318 51.4028 64.318 52.5393C64.318 56.3106 64.473 60.0301 64.2147 63.8013C63.7497 69.6906 60.6501 73.9785 55.4324 76.7165C55.1224 76.8714 54.6058 76.8714 54.2958 76.7165C50.8346 75.27 47.425 75.27 43.9637 76.7165C43.6538 76.8714 43.1888 76.9231 42.8789 76.7681C38.8493 74.9084 36.163 71.8604 34.6132 67.7792C34.5615 67.6759 34.5615 67.5726 34.5615 67.4692C34.5615 67.4176 34.6132 67.3659 34.6648 67.2109Z" fill="#1E3888"/>
<path d="M9.91882 58.9452C4.4428 58.9452 0 54.5024 0 49.0264C0 43.4987 4.4428 39.0559 9.97048 39.0559C15.4465 39.0559 19.8893 43.4987 19.8893 48.9748C19.941 54.5024 15.4465 58.9452 9.91882 58.9452Z" fill="#FF6600"/>
<path d="M88.0812 58.9452C82.5535 58.9452 78.059 54.5024 78.1107 48.9748C78.1107 43.4987 82.5535 39.0559 88.0295 39.0559C93.5055 39.0559 97.9483 43.4471 98 48.9231C98 54.4508 93.6088 58.9452 88.0812 58.9452Z" fill="#FF6600"/>
<path d="M58.9447 88.1851C58.893 93.7128 54.3986 98.0523 48.8192 98.0006C43.3432 97.9489 39.0037 93.4545 39.0554 87.9268C39.107 82.4508 43.6015 78.008 49.0775 78.1113C54.6052 78.163 58.9963 82.6574 58.9447 88.1851Z" fill="#FF6600"/>
<path d="M58.9447 10.0227C58.893 15.4987 54.4502 19.9415 48.9742 19.8899C43.3949 19.8899 39.0037 15.3438 39.0554 9.76442C39.107 4.2884 43.6015 -0.051082 49.1292 0.000578563C54.6052 0.0522391 58.9963 4.49504 58.9447 10.0227Z" fill="#FF6600"/>
</g>
<defs>
<clipPath id="clip0_685_433">
<rect width="98" height="98" fill="white"/>
</clipPath>
</defs>
</svg>
