<svg width="131" height="131" viewBox="0 0 131 131" fill="none" xmlns="http://www.w3.org/2000/svg">
<g clip-path="url(#clip0_685_684)">
<path d="M91.1863 86.049H39.8137C36.9805 86.049 34.6765 83.745 34.6765 80.9118V42.3824C34.6765 39.5492 36.9805 37.2451 39.8137 37.2451H91.1863C94.0195 37.2451 96.3235 39.5492 96.3235 42.3824V80.9118C96.3235 83.745 94.0195 86.049 91.1863 86.049ZM39.8137 39.8137C38.3971 39.8137 37.2451 40.9658 37.2451 42.3824V80.9118C37.2451 82.3284 38.3971 83.4804 39.8137 83.4804H91.1863C92.6029 83.4804 93.7549 82.3284 93.7549 80.9118V42.3824C93.7549 40.9658 92.6029 39.8137 91.1863 39.8137H39.8137Z" fill="url(#paint0_linear_685_684)"/>
<path d="M83.4804 93.7549H47.5196C47.179 93.7549 46.8523 93.6196 46.6115 93.3787C46.3706 93.1379 46.2353 92.8112 46.2353 92.4706C46.2353 92.13 46.3706 91.8033 46.6115 91.5624C46.8523 91.3216 47.179 91.1863 47.5196 91.1863H83.4804C83.821 91.1863 84.1477 91.3216 84.3885 91.5624C84.6294 91.8033 84.7647 92.13 84.7647 92.4706C84.7647 92.8112 84.6294 93.1379 84.3885 93.3787C84.1477 93.6196 83.821 93.7549 83.4804 93.7549Z" fill="url(#paint1_linear_685_684)"/>
<path d="M74.5158 93.755H56.5098C56.3063 93.7545 56.1059 93.7059 55.9249 93.6129C55.7439 93.52 55.5875 93.3855 55.4685 93.2204C55.3496 93.0554 55.2715 92.8644 55.2406 92.6633C55.2097 92.4622 55.227 92.2567 55.291 92.0635L57.8596 84.3577C57.945 84.1021 58.1087 83.8798 58.3274 83.7224C58.5462 83.5649 58.8089 83.4803 59.0784 83.4805H71.9215C72.1912 83.4804 72.454 83.5652 72.6728 83.7229C72.8916 83.8806 73.0551 84.1031 73.1403 84.3589L75.6319 91.8349C75.7432 92.0303 75.8013 92.2514 75.8003 92.4763C75.7993 92.7011 75.7393 92.9217 75.6263 93.1161C75.5134 93.3105 75.3513 93.4718 75.1564 93.5839C74.9616 93.696 74.7407 93.755 74.5158 93.755ZM58.2911 91.1864H72.7088L70.9968 86.0491H60.0044L58.2911 91.1864Z" fill="url(#paint2_linear_685_684)"/>
<path d="M91.1863 75.7745H39.8137V42.3823H91.1863V75.7745ZM42.3823 73.2059H88.6176V44.951H42.3823V73.2059Z" fill="url(#paint3_linear_685_684)"/>
<path d="M65.5 82.1961C66.9186 82.1961 68.0686 81.0461 68.0686 79.6275C68.0686 78.2089 66.9186 77.0588 65.5 77.0588C64.0813 77.0588 62.9313 78.2089 62.9313 79.6275C62.9313 81.0461 64.0813 82.1961 65.5 82.1961Z" fill="url(#paint4_linear_685_684)"/>
</g>
<circle cx="65.5" cy="65.5" r="65.25" stroke="#FF6600" stroke-width="0.5"/>
<defs>
<linearGradient id="paint0_linear_685_684" x1="65.5" y1="37.2451" x2="65.5" y2="86.049" gradientUnits="userSpaceOnUse">
<stop offset="1" stop-color="#1E3888"/>
</linearGradient>
<linearGradient id="paint1_linear_685_684" x1="65.5" y1="91.1863" x2="65.5" y2="93.7549" gradientUnits="userSpaceOnUse">
<stop stop-color="#FF6600"/>
<stop offset="0.0001" stop-color="#69475A"/>
<stop offset="0.0002" stop-color="#1E3888"/>
</linearGradient>
<linearGradient id="paint2_linear_685_684" x1="65.513" y1="83.4805" x2="65.513" y2="93.755" gradientUnits="userSpaceOnUse">
<stop stop-color="#FF6600"/>
<stop offset="0.0001" stop-color="#3E3E75"/>
<stop offset="1" stop-color="#1E3888"/>
</linearGradient>
<linearGradient id="paint3_linear_685_684" x1="65.5" y1="42.3823" x2="65.5" y2="75.7745" gradientUnits="userSpaceOnUse">
<stop offset="1" stop-color="#1E3888"/>
</linearGradient>
<linearGradient id="paint4_linear_685_684" x1="65.5" y1="77.0588" x2="65.5" y2="82.1961" gradientUnits="userSpaceOnUse">
<stop stop-color="#FF6600"/>
<stop offset="0.0001" stop-color="#403F74"/>
<stop offset="1" stop-color="#1E3888"/>
</linearGradient>
<clipPath id="clip0_685_684">
<rect width="61.6471" height="61.6471" fill="white" transform="translate(34.6765 34.6765)"/>
</clipPath>
</defs>
</svg>
