<svg width="132" height="132" viewBox="0 0 132 132" fill="none" xmlns="http://www.w3.org/2000/svg">
<path d="M87.6119 82.8234C89.0354 81.7881 90.0707 80.2352 90.3295 78.5528C90.459 78.0352 90.459 77.647 90.459 77.1293C90.459 75.5764 89.9413 74.0234 89.0354 72.8587C87.6119 71.047 85.6707 70.0117 83.3413 70.0117C82.1766 70.0117 81.0119 70.2705 80.106 70.7881C77.7766 71.9528 76.2237 74.4117 76.2237 77.1293C76.2237 78.0352 76.3531 78.8117 76.7413 79.5881C77.259 80.8823 78.1648 82.047 79.2001 82.8234C78.6825 82.9528 78.1648 83.2117 77.7766 83.4705C75.8354 81.5293 73.3766 80.1058 70.659 79.3293C72.7295 78.0352 74.2825 75.9646 74.8001 73.5058C74.9295 72.9881 74.9295 72.3411 74.9295 71.694C74.9295 70.7881 74.8001 69.8823 74.4119 68.9764H96.4119V35.5881H35.5884V68.847H57.5884C57.3296 69.7528 57.2001 70.6587 57.2001 71.5646C57.2001 72.5999 57.459 73.7646 57.7178 74.6705C58.3648 76.6117 59.7884 78.0352 61.4707 79.0705C58.7531 79.847 56.4237 81.2705 54.3531 83.2117C53.8354 82.9528 53.4472 82.8234 52.9296 82.5646C54.3531 81.5293 55.3884 79.9764 55.7766 78.294C55.906 77.9058 55.906 77.3881 55.906 76.8705C55.906 75.3175 55.3884 73.7646 54.4825 72.5999C53.059 70.7881 51.1178 69.7528 48.7884 69.7528C47.6237 69.7528 46.459 70.0117 45.5531 70.5293C43.2237 71.694 41.6707 74.1528 41.6707 76.8705C41.6707 77.7764 41.8001 78.5528 42.1884 79.3293C42.706 80.6234 43.6119 81.7881 44.6472 82.5646C39.4707 84.3764 35.8472 89.1646 35.8472 94.8587V96.1528H49.6943H52.2825H80.3648H82.9531H96.8001V94.8587C96.4119 89.4234 92.659 84.5058 87.6119 82.8234ZM78.8119 76.9999C78.8119 75.3175 79.7178 73.7646 81.2707 72.9881C81.9178 72.5999 82.5648 72.4705 83.3413 72.4705C84.7648 72.4705 86.059 73.1175 86.9648 74.2823C87.6119 75.0587 87.8707 75.9646 87.8707 76.9999C87.8707 77.2587 87.8707 77.647 87.7413 77.9058C87.3531 79.9764 85.4119 81.5293 83.2119 81.5293C81.2707 81.5293 79.5884 80.3646 78.9413 78.5528C78.9413 78.1646 78.8119 77.647 78.8119 76.9999ZM52.2825 92.6587C52.2825 92.5293 52.2825 92.3999 52.4119 92.2705C52.4119 92.0117 52.5413 91.7528 52.5413 91.494C52.5413 91.3646 52.6707 91.2352 52.6707 91.1058C52.8001 90.847 52.8001 90.5881 52.9296 90.4587C52.9296 90.3293 53.059 90.1999 53.059 89.9411C53.1884 89.6823 53.1884 89.5528 53.3178 89.294C53.4472 89.1646 53.4472 89.0352 53.5766 88.7764C53.706 88.5175 53.8354 88.3881 53.9648 88.1293C54.0943 87.9999 54.0943 87.8705 54.2237 87.7411C54.3531 87.4823 54.4825 87.3528 54.6119 87.094C54.7413 86.9646 54.7413 86.8352 54.8707 86.7058C55.1296 86.447 55.259 86.1881 55.5178 85.9293C55.5178 85.9293 55.5178 85.9293 55.6472 85.7999C58.2354 82.8234 62.1178 81.1411 66.1295 81.1411C70.1413 81.1411 73.8943 82.8234 76.6119 85.7999C76.8707 86.0587 77.1295 86.447 77.3884 86.7058C77.5178 86.8352 77.5178 86.9646 77.6472 86.9646C77.7766 87.2234 77.906 87.3528 78.0354 87.6117C78.1648 87.7411 78.1648 87.8705 78.2943 87.9999C78.4237 88.2587 78.5531 88.3881 78.6825 88.647C78.8119 88.7764 78.8119 88.9058 78.9413 89.0352C79.0707 89.294 79.2001 89.4234 79.2001 89.6823C79.2001 89.8117 79.3295 89.9411 79.3295 90.1999C79.459 90.4587 79.459 90.7175 79.5884 90.847C79.5884 90.9764 79.7178 91.1058 79.7178 91.2352C79.8472 91.494 79.8472 91.7528 79.8472 92.0117C79.8472 92.1411 79.8472 92.2705 79.9766 92.3999C80.106 92.7881 80.106 93.1764 80.106 93.5646H52.0237C52.1531 93.4352 52.1531 93.047 52.2825 92.6587ZM38.1766 38.1764H93.8237V66.2587H73.1178C71.4354 64.0587 68.8472 62.7646 66.1295 62.7646C64.706 62.7646 63.2825 63.1528 61.9884 63.7999C61.6001 63.9293 61.3413 64.1881 61.0825 64.3175C60.9531 64.447 60.9531 64.447 60.8237 64.5764C60.5648 64.7058 60.4354 64.8352 60.306 65.094C60.1766 65.2234 60.0472 65.2234 60.0472 65.3528C59.9178 65.4823 59.7884 65.6117 59.5295 65.8705C59.4001 65.9999 59.4001 66.1293 59.2707 66.2587C59.2707 66.3881 59.1413 66.3881 59.1413 66.3881H38.4354V38.1764H38.1766ZM59.659 71.5646C59.659 70.3999 60.0472 69.2352 60.6943 68.1999C61.3413 67.294 62.1178 66.5175 63.1531 65.9999C64.059 65.4823 64.9648 65.3528 66.0001 65.3528C67.9413 65.3528 69.7531 66.2587 70.9178 67.8117C71.0472 67.9411 71.1766 68.0705 71.306 68.3293C71.9531 69.3646 72.3413 70.5293 72.3413 71.694C72.3413 72.2117 72.3413 72.5999 72.2119 72.9881C71.5648 75.9646 68.9766 78.0352 66.0001 78.0352C63.4119 78.0352 61.0825 76.3528 60.0472 73.894C59.7884 73.1175 59.659 72.3411 59.659 71.5646ZM44.1296 76.9999C44.1296 75.3175 45.0354 73.7646 46.5884 72.9881C47.2354 72.5999 47.8825 72.4705 48.659 72.4705C50.0825 72.4705 51.3766 73.1175 52.2825 74.2823C52.9296 75.0587 53.1884 75.9646 53.1884 76.9999C53.1884 77.2587 53.1884 77.647 53.059 77.9058C52.6707 79.9764 50.7296 81.5293 48.5296 81.5293C46.5884 81.5293 44.906 80.3646 44.259 78.5528C44.259 78.1646 44.1296 77.647 44.1296 76.9999ZM38.306 93.8234C38.9531 88.647 43.3531 84.6352 48.659 84.6352C49.9531 84.6352 51.3766 84.894 52.5413 85.4117C52.2825 85.7999 52.0237 86.0587 51.8943 86.447C51.8943 86.5764 51.7648 86.5764 51.7648 86.7058C51.6354 86.9646 51.3766 87.3528 51.2472 87.6117C51.2472 87.7411 51.1178 87.8705 51.1178 87.9999C50.9884 88.2587 50.859 88.647 50.7296 89.0352C50.7296 89.1646 50.6001 89.1646 50.6001 89.294C50.4707 89.6823 50.3413 90.1999 50.2119 90.5881C50.2119 90.7175 50.2119 90.7175 50.0825 90.847C49.9531 91.2352 49.9531 91.494 49.8237 91.8823C49.8237 92.0117 49.8237 92.1411 49.6943 92.2705C49.6943 92.6587 49.5648 92.9175 49.5648 93.3058C49.5648 93.4352 49.5648 93.5646 49.5648 93.694V93.8234H38.306ZM82.5648 93.8234C82.5648 93.5646 82.5648 93.4352 82.5648 93.3058C82.5648 92.9175 82.4354 92.6587 82.4354 92.2705C82.4354 92.1411 82.4354 92.0117 82.306 91.8823C82.1766 91.494 82.1766 91.2352 82.0472 90.847C82.0472 90.7175 82.0472 90.5881 81.9178 90.5881C81.7884 90.1999 81.659 89.6823 81.5295 89.294C81.5295 89.1646 81.4001 89.0352 81.4001 89.0352C81.2707 88.7764 81.1413 88.3881 81.0119 88.1293C81.0119 87.9999 80.8825 87.8705 80.7531 87.7411C80.6237 87.4823 80.4943 87.094 80.2354 86.8352C80.2354 86.7058 80.106 86.5764 80.106 86.5764C79.8472 86.1881 79.7178 85.9293 79.459 85.5411C80.7531 85.0234 82.0472 84.7646 83.3413 84.7646C88.6472 84.7646 93.0472 88.7764 93.6942 93.9528H82.5648V93.8234Z" fill="url(#paint0_linear_685_679)"/>
<path d="M89.2942 42.1881H79.5883V62.3763H89.2942V42.1881ZM86.7059 59.6587H82.1765V44.7763H86.7059V59.6587ZM77 49.1763H67.2942V62.3763H77V49.1763ZM74.4118 59.6587H69.8824V51.7646H74.4118V59.6587ZM64.7059 44.9058H55V62.2469H64.7059V44.9058ZM62.1177 59.6587H57.5883V47.494H62.1177V59.6587ZM42.7059 62.2469H52.4118V54.2234H42.7059V62.2469ZM45.2942 56.8116H49.8236V59.6587H45.2942V56.8116Z" fill="url(#paint1_linear_685_679)"/>
<circle cx="66" cy="66" r="65.75" stroke="#FF6600" stroke-width="0.5"/>
<defs>
<linearGradient id="paint0_linear_685_679" x1="66.1943" y1="35.5881" x2="66.1943" y2="96.1528" gradientUnits="userSpaceOnUse">
<stop offset="1" stop-color="#1E3888"/>
</linearGradient>
<linearGradient id="paint1_linear_685_679" x1="66" y1="42.1881" x2="66" y2="62.3763" gradientUnits="userSpaceOnUse">
<stop offset="1" stop-color="#1E3888"/>
</linearGradient>
</defs>
</svg>
