<svg width="25" height="25" viewBox="0 0 25 25" fill="none" xmlns="http://www.w3.org/2000/svg">
<path d="M20.8672 20.8281H4.13281C3.25253 20.8271 2.40859 20.4769 1.78614 19.8545C1.16368 19.232 0.813534 18.3881 0.8125 17.5078V7.49219C0.813534 6.6119 1.16368 5.76797 1.78614 5.14551C2.40859 4.52306 3.25253 4.17291 4.13281 4.17188H20.8672C21.7475 4.17291 22.5914 4.52306 23.2139 5.14551C23.8363 5.76797 24.1865 6.6119 24.1875 7.49219V17.5078C24.1865 18.3881 23.8363 19.232 23.2139 19.8545C22.5914 20.4769 21.7475 20.8271 20.8672 20.8281ZM4.13281 5.34375C3.56301 5.34375 3.01655 5.5701 2.61364 5.97301C2.21073 6.37592 1.98438 6.92239 1.98438 7.49219V17.5078C1.98438 18.0776 2.21073 18.6241 2.61364 19.027C3.01655 19.4299 3.56301 19.6562 4.13281 19.6562H20.8672C21.437 19.6562 21.9835 19.4299 22.3864 19.027C22.7893 18.6241 23.0156 18.0776 23.0156 17.5078V7.49219C23.0156 6.92239 22.7893 6.37592 22.3864 5.97301C21.9835 5.5701 21.437 5.34375 20.8672 5.34375H4.13281Z" fill="#1E3888"/>
<path d="M12.5003 14.8751C11.7775 14.8762 11.074 14.6417 10.4964 14.2071L1.37531 7.30871C1.31087 7.26348 1.2562 7.20572 1.21457 7.1389C1.17294 7.07207 1.14521 6.99754 1.13303 6.91975C1.12085 6.84197 1.12447 6.76253 1.14368 6.68617C1.16288 6.60982 1.19728 6.53812 1.24481 6.47535C1.29234 6.41259 1.35204 6.36005 1.42033 6.32087C1.48862 6.28169 1.56411 6.25667 1.64228 6.24732C1.72046 6.23796 1.79972 6.24445 1.87532 6.26641C1.95093 6.28837 2.02134 6.32534 2.08234 6.37511L11.2034 13.2814C11.578 13.561 12.0329 13.712 12.5003 13.712C12.9677 13.712 13.4226 13.561 13.7972 13.2814L22.9183 6.37511C22.9793 6.32534 23.0497 6.28837 23.1253 6.26641C23.2009 6.24445 23.2802 6.23796 23.3583 6.24732C23.4365 6.25667 23.512 6.28169 23.5803 6.32087C23.6486 6.36005 23.7083 6.41259 23.7558 6.47535C23.8033 6.53812 23.8377 6.60982 23.8569 6.68617C23.8762 6.76253 23.8798 6.84197 23.8676 6.91975C23.8554 6.99754 23.8277 7.07207 23.7861 7.1389C23.7444 7.20572 23.6898 7.26348 23.6253 7.30871L14.5042 14.2071C13.9266 14.6417 13.2231 14.8762 12.5003 14.8751Z" fill="#1E3888"/>
<path d="M1.62891 19.1954C1.51007 19.1956 1.39398 19.1596 1.29606 19.0923C1.19814 19.0249 1.123 18.9294 1.08063 18.8184C1.03825 18.7074 1.03063 18.5861 1.05879 18.4706C1.08695 18.3552 1.14955 18.251 1.23828 18.172L8.42578 11.7618C8.54181 11.6582 8.69425 11.6049 8.84955 11.6137C9.00486 11.6225 9.15031 11.6926 9.25391 11.8087C9.35751 11.9247 9.41077 12.0771 9.40198 12.2324C9.39319 12.3878 9.32306 12.5332 9.20703 12.6368L2.01953 19.047C1.91279 19.1441 1.77321 19.1971 1.62891 19.1954ZM23.3711 19.1954C23.2268 19.1971 23.0872 19.1441 22.9805 19.047L15.793 12.6368C15.6769 12.5332 15.6068 12.3878 15.598 12.2324C15.5892 12.0771 15.6425 11.9247 15.7461 11.8087C15.8497 11.6926 15.9951 11.6225 16.1504 11.6137C16.3058 11.6049 16.4582 11.6582 16.5742 11.7618L23.7578 18.172C23.8465 18.251 23.9091 18.3552 23.9373 18.4706C23.9655 18.5861 23.9578 18.7074 23.9155 18.8184C23.8731 18.9294 23.798 19.0249 23.7 19.0923C23.6021 19.1596 23.486 19.1956 23.3672 19.1954H23.3711Z" fill="#1E3888"/>
</svg>
