<svg width="23" height="23" viewBox="0 0 23 23" fill="none" xmlns="http://www.w3.org/2000/svg">
<g clip-path="url(#clip0_685_669)">
<path d="M23 11.5C23 5.14873 17.8513 0 11.5 0C5.14873 0 0 5.14873 0 11.5C0 17.8513 5.14873 23 11.5 23C17.8513 23 23 17.8513 23 11.5Z" fill="#1778F2"/>
<path d="M12.4162 17.9912V11.8354H14.4825L14.7923 9.43634H12.4162V7.90464C12.4162 7.21011 12.6091 6.73677 13.6052 6.73677H14.8755V4.59169C14.2606 4.52664 13.6426 4.49512 13.0243 4.4973C11.1927 4.4973 9.93874 5.61525 9.93874 7.66844V9.43634H7.86719V11.8354H9.93874V17.9912H12.4162Z" fill="#FDFDFD"/>
</g>
<defs>
<clipPath id="clip0_685_669">
<rect width="23" height="23" fill="white"/>
</clipPath>
</defs>
</svg>
