<svg width="57" height="57" viewBox="0 0 57 57" fill="none" xmlns="http://www.w3.org/2000/svg">
<g clip-path="url(#clip0_685_470)">
<path d="M57 28.5C57 12.7599 44.2401 0 28.5 0C12.7599 0 0 12.7599 0 28.5C0 44.2401 12.7599 57 28.5 57C44.2401 57 57 44.2401 57 28.5Z" fill="#1E3888"/>
<path d="M30.7726 44.5867V29.3311H35.8935L36.6613 23.3856H30.7726V19.5897C30.7726 17.8685 31.2508 16.6954 33.7192 16.6954H36.8675V11.3793C35.3436 11.2181 33.8121 11.14 32.2797 11.1454C27.7404 11.1454 24.6329 13.916 24.6329 19.0043V23.3856H19.499V29.3311H24.6329V44.5867H30.7726Z" fill="#FDFDFD"/>
</g>
<defs>
<clipPath id="clip0_685_470">
<rect width="57" height="57" fill="white"/>
</clipPath>
</defs>
</svg>
