<svg width="45" height="45" viewBox="0 0 45 45" fill="none" xmlns="http://www.w3.org/2000/svg">
<g clip-path="url(#clip0_1465_1502)">
<path d="M45 22.5C45 10.0736 34.9264 0 22.5 0C10.0736 0 0 10.0736 0 22.5C0 34.9264 10.0736 45 22.5 45C34.9264 45 45 34.9264 45 22.5Z" fill="#1E3888"/>
<path d="M24.2934 35.2005V23.1566H28.3362L28.9424 18.4629H24.2934V15.4661C24.2934 14.1072 24.6709 13.1811 26.6196 13.1811H29.1051V8.9842C27.9021 8.85692 26.693 8.79526 25.4832 8.79952C21.8995 8.79952 19.4462 10.9868 19.4462 15.0039V18.4629H15.3932V23.1566H19.4462V35.2005H24.2934Z" fill="#FDFDFD"/>
</g>
<defs>
<clipPath id="clip0_1465_1502">
<rect width="45" height="45" fill="white"/>
</clipPath>
</defs>
</svg>
