<svg width="23" height="23" viewBox="0 0 23 23" fill="none" xmlns="http://www.w3.org/2000/svg">
<path d="M11.5 23C17.8513 23 23 17.8513 23 11.5C23 5.14873 17.8513 0 11.5 0C5.14873 0 0 5.14873 0 11.5C0 17.8513 5.14873 23 11.5 23Z" fill="url(#paint0_linear_703_17)"/>
<path fill-rule="evenodd" clip-rule="evenodd" d="M14.8805 5.33545H8.11882C6.60777 5.33545 5.37109 6.57213 5.37109 8.08317V14.9166C5.37109 16.4276 6.60777 17.6643 8.11882 17.6643H14.8805C16.3915 17.6643 17.6282 16.4276 17.6282 14.9166V8.08317C17.6282 6.57213 16.3915 5.33545 14.8805 5.33545ZM16.4928 14.2835C16.4928 15.5117 15.484 16.5205 14.2558 16.5205H8.74771C7.51525 16.5205 6.5107 15.5117 6.5107 14.2835V8.72051C6.5107 7.48804 7.51525 6.48349 8.74771 6.48349H14.2558C15.484 6.48349 16.4928 7.48804 16.4928 8.72051V14.2835Z" fill="white"/>
<path d="M11.5 8.45895C9.82439 8.45895 8.46106 9.82647 8.46106 11.5021C8.46106 13.1778 9.82436 14.5411 11.5 14.5411C13.1756 14.5411 14.5432 13.1778 14.5432 11.5021C14.5432 9.8265 13.1757 8.45895 11.5 8.45895ZM11.5 13.5154C10.39 13.5154 9.4867 12.6122 9.4867 11.5021C9.4867 10.3921 10.39 9.48884 11.5 9.48884C12.6101 9.48884 13.5133 10.3921 13.5133 11.5021C13.5133 12.6122 12.6101 13.5154 11.5 13.5154Z" fill="white"/>
<path fill-rule="evenodd" clip-rule="evenodd" d="M14.5462 8.75308C14.8923 8.75308 15.1709 8.47449 15.1709 8.13261C15.1709 7.78652 14.8924 7.50793 14.5462 7.50793C14.2044 7.50793 13.9258 7.78652 13.9258 8.13261C13.9258 8.47449 14.2044 8.75308 14.5462 8.75308Z" fill="white"/>
<defs>
<linearGradient id="paint0_linear_703_17" x1="19.1082" y1="-2.14443" x2="3.89175" y2="25.1444" gradientUnits="userSpaceOnUse">
<stop stop-color="#4845A2"/>
<stop offset="0.278" stop-color="#A844A1"/>
<stop offset="0.302" stop-color="#A844A1"/>
<stop offset="0.38" stop-color="#A844A1"/>
<stop offset="0.6" stop-color="#D7233E"/>
<stop offset="0.871" stop-color="#F8A325"/>
<stop offset="1" stop-color="#F8DD25"/>
</linearGradient>
</defs>
</svg>
