<svg width="45" height="45" viewBox="0 0 45 45" fill="none" xmlns="http://www.w3.org/2000/svg">
<path d="M22.5 45C34.9264 45 45 34.9264 45 22.5C45 10.0736 34.9264 0 22.5 0C10.0736 0 0 10.0736 0 22.5C0 34.9264 10.0736 45 22.5 45Z" fill="#1E3888"/>
<path fill-rule="evenodd" clip-rule="evenodd" d="M28.7896 11.0312H16.2095C13.3982 11.0312 11.0974 13.3321 11.0974 16.1434V28.857C11.0974 31.6683 13.3982 33.9691 16.2095 33.9691H28.7896C31.6009 33.9691 33.9017 31.6683 33.9017 28.857V16.1434C33.9017 13.3321 31.6009 11.0312 28.7896 11.0312ZM31.7893 27.6791C31.7893 29.9642 29.9125 31.841 27.6273 31.841H17.3796C15.0866 31.841 13.2176 29.9642 13.2176 27.6791V17.3292C13.2176 15.0362 15.0866 13.1672 17.3796 13.1672H27.6273C29.9125 13.1672 31.7893 15.0362 31.7893 17.3292V27.6791Z" fill="white"/>
<path d="M22.4997 16.8423C19.3822 16.8423 16.8457 19.3866 16.8457 22.5041C16.8457 25.6216 19.3821 28.1581 22.4997 28.1581C25.6172 28.1581 28.1615 25.6216 28.1615 22.5041C28.1615 19.3866 25.6173 16.8423 22.4997 16.8423ZM22.4997 26.2499C20.4344 26.2499 18.7539 24.5694 18.7539 22.5041C18.7539 20.4389 20.4344 18.7584 22.4997 18.7584C24.565 18.7584 26.2455 20.4389 26.2455 22.5041C26.2455 24.5694 24.565 26.2499 22.4997 26.2499Z" fill="white"/>
<path fill-rule="evenodd" clip-rule="evenodd" d="M28.1661 17.3893C28.81 17.3893 29.3283 16.871 29.3283 16.235C29.3283 15.5911 28.8101 15.0728 28.1661 15.0728C27.53 15.0728 27.0117 15.5911 27.0117 16.235C27.0117 16.871 27.53 17.3893 28.1661 17.3893Z" fill="white"/>
</svg>
