<svg width="57" height="57" viewBox="0 0 57 57" fill="none" xmlns="http://www.w3.org/2000/svg">
<g clip-path="url(#clip0_685_454)">
<path d="M28.5 57C44.2401 57 57 44.2401 57 28.5C57 12.7599 44.2401 0 28.5 0C12.7599 0 0 12.7599 0 28.5C0 44.2401 12.7599 57 28.5 57Z" fill="#1E3888"/>
<path fill-rule="evenodd" clip-rule="evenodd" d="M37.8147 13.3389H21.1847C17.4683 13.3389 14.4268 16.3804 14.4268 20.0968V36.9033C14.4268 40.6196 17.4683 43.6612 21.1847 43.6612H37.8147C41.531 43.6612 44.5726 40.6196 44.5726 36.9033V20.0968C44.5726 16.3804 41.531 13.3389 37.8147 13.3389ZM41.7801 35.3462C41.7801 38.367 39.2991 40.848 36.2783 40.848H22.7314C19.7002 40.848 17.2296 38.367 17.2296 35.3462V21.6643C17.2296 18.6331 19.7002 16.1624 22.7314 16.1624H36.2783C39.2991 16.1624 41.7801 18.6331 41.7801 21.6643V35.3462Z" fill="white"/>
<path d="M29.4996 21.0206C25.3784 21.0206 22.0254 24.384 22.0254 28.5052C22.0254 32.6263 25.3784 35.9793 29.4996 35.9793C33.6207 35.9793 36.9842 32.6263 36.9842 28.5052C36.9842 24.3841 33.6208 21.0206 29.4996 21.0206ZM29.4996 33.4568C26.7695 33.4568 24.5479 31.2353 24.5479 28.5052C24.5479 25.7751 26.7695 23.5536 29.4996 23.5536C32.2297 23.5536 34.4513 25.7751 34.4513 28.5052C34.4513 31.2353 32.2298 33.4568 29.4996 33.4568Z" fill="white"/>
<path fill-rule="evenodd" clip-rule="evenodd" d="M36.9899 21.744C37.8411 21.744 38.5262 21.0589 38.5262 20.218C38.5262 19.3668 37.8412 18.6816 36.9899 18.6816C36.149 18.6816 35.4639 19.3668 35.4639 20.218C35.4639 21.0589 36.149 21.744 36.9899 21.744Z" fill="white"/>
</g>
<defs>
<clipPath id="clip0_685_454">
<rect width="57" height="57" fill="white"/>
</clipPath>
</defs>
</svg>
