<svg width="23" height="23" viewBox="0 0 23 23" fill="none" xmlns="http://www.w3.org/2000/svg">
<g clip-path="url(#clip0_685_659)">
<circle cx="11.5" cy="11.5" r="8.5" fill="white"/>
<path d="M11.5 3.05176e-05C5.14867 3.05176e-05 0 5.1487 0 11.5C0 17.8513 5.14867 23 11.5 23C17.8513 23 23 17.8513 23 11.5C23 5.1487 17.8512 3.05176e-05 11.5 3.05176e-05ZM8.43176 17.0597H5.90682V8.90237H8.43176V17.0597ZM7.15726 7.8341C6.33264 7.8341 5.66415 7.16015 5.66415 6.32893C5.66415 5.49762 6.33274 4.82372 7.15726 4.82372C7.98179 4.82372 8.65028 5.49762 8.65028 6.32893C8.65033 7.1602 7.98183 7.8341 7.15726 7.8341ZM17.894 17.0597H15.3813V12.7778C15.3813 11.6034 14.9352 10.9478 14.0065 10.9478C12.9959 10.9478 12.4679 11.6306 12.4679 12.7778V17.0597H10.0462V8.90237H12.4679V10.001C12.4679 10.001 13.1963 8.65355 14.926 8.65355C16.6558 8.65355 17.894 9.70971 17.894 11.8946L17.894 17.0597Z" fill="url(#paint0_linear_685_659)"/>
</g>
<defs>
<linearGradient id="paint0_linear_685_659" x1="3.36826" y1="3.36829" x2="19.6317" y2="19.6317" gradientUnits="userSpaceOnUse">
<stop stop-color="#2489BE"/>
<stop offset="1" stop-color="#0575B3"/>
</linearGradient>
<clipPath id="clip0_685_659">
<rect width="23" height="23" fill="white"/>
</clipPath>
</defs>
</svg>
