<svg width="57" height="57" viewBox="0 0 57 57" fill="none" xmlns="http://www.w3.org/2000/svg">
<g clip-path="url(#clip0_685_460)">
<circle cx="28.5" cy="28.5" r="21.0652" fill="white"/>
<path d="M28.4999 6.10352e-05C12.7598 6.10352e-05 0 12.7598 0 28.5C0 44.2402 12.7598 56.9999 28.4999 56.9999C44.2401 56.9999 57 44.2402 57 28.5C56.9999 12.7598 44.2399 6.10352e-05 28.4999 6.10352e-05ZM20.8961 42.2784H14.6387V22.0624H20.8961V42.2784ZM17.7376 19.4149C15.6939 19.4149 14.0372 17.7447 14.0372 15.6847C14.0372 13.6245 15.6942 11.9544 17.7376 11.9544C19.7809 11.9544 21.4377 13.6245 21.4377 15.6847C21.4378 17.7448 19.7811 19.4149 17.7376 19.4149ZM44.3459 42.2784H38.1188V31.6667C38.1188 28.7562 37.0132 27.1315 34.7118 27.1315C32.2071 27.1315 30.8986 28.8236 30.8986 31.6667V42.2784H24.897V22.0624H30.8986V24.7851C30.8986 24.7851 32.7039 21.4457 36.9906 21.4457C41.2773 21.4457 44.346 24.0632 44.346 29.4779L44.3459 42.2784Z" fill="#1E3888"/>
</g>
<defs>
<clipPath id="clip0_685_460">
<rect width="57" height="57" fill="white"/>
</clipPath>
</defs>
</svg>
