<svg width="25" height="25" viewBox="0 0 25 25" fill="none" xmlns="http://www.w3.org/2000/svg">
<g clip-path="url(#clip0_685_101)">
<path d="M12.5 0.319824C8.034 0.319824 4.38 3.91582 4.38 8.35282C4.38 17.8068 11.804 24.2738 12.123 24.5638C12.326 24.7378 12.674 24.7378 12.877 24.5638C13.196 24.2738 20.62 17.7778 20.62 8.35282C20.62 3.91582 16.966 0.319824 12.5 0.319824ZM12.5 23.3168C10.992 21.8668 5.54 16.0668 5.54 8.35282C5.54 4.55382 8.672 1.47982 12.5 1.47982C16.328 1.47982 19.46 4.55382 19.46 8.35282C19.46 16.0668 14.008 21.8668 12.5 23.3168ZM12.5 3.79982C9.948 3.79982 7.86 5.88782 7.86 8.43982C7.86 10.9918 9.948 13.0798 12.5 13.0798C15.052 13.0798 17.14 10.9918 17.14 8.43982C17.14 5.88782 15.052 3.79982 12.5 3.79982ZM12.5 11.9198C10.586 11.9198 9.02 10.3538 9.02 8.43982C9.02 6.52582 10.586 4.95982 12.5 4.95982C14.414 4.95982 15.98 6.52582 15.98 8.43982C15.98 10.3538 14.414 11.9198 12.5 11.9198Z" fill="#1E3888"/>
<path d="M474.76 -109.3V379.06H-42.6V-109.3H474.76ZM477.08 -111.62H-44.92V381.38H477.08V-111.62Z" fill="#0000FF"/>
</g>
<defs>
<clipPath id="clip0_685_101">
<rect width="25" height="25" fill="white"/>
</clipPath>
</defs>
</svg>
