<svg width="57" height="57" viewBox="0 0 57 57" fill="none" xmlns="http://www.w3.org/2000/svg">
<path d="M28.5 57C44.2401 57 57 44.2401 57 28.5C57 12.7599 44.2401 0 28.5 0C12.7599 0 0 12.7599 0 28.5C0 44.2401 12.7599 57 28.5 57Z" fill="#1E3888"/>
<path d="M41.6357 16H15.4622C14.5443 16.001 13.6643 16.3661 13.0152 17.0152C12.3661 17.6643 12.001 18.5443 12 19.4622V36.5378C12.001 37.4557 12.3661 38.3357 13.0152 38.9848C13.6643 39.6339 14.5443 39.999 15.4622 40H41.6356C42.5536 39.999 43.4336 39.6339 44.0826 38.9848C44.7317 38.3357 45.0968 37.4557 45.0978 36.5378V19.4622C45.0968 18.5443 44.7318 17.6643 44.0827 17.0152C43.4336 16.3661 42.5536 16.001 41.6357 16ZM35.4799 27.9953L43.713 21.5336V35.9874L35.4799 27.9953ZM15.4622 17.3849H41.6356C42.1864 17.3855 42.7144 17.6046 43.1038 17.994C43.4933 18.3834 43.7123 18.9115 43.713 19.4622V19.7731L30.3897 30.2302C29.9026 30.6105 29.3022 30.8168 28.6842 30.8163C28.0663 30.8158 27.4662 30.6085 26.9797 30.2274L13.3849 19.7705V19.4622C13.3855 18.9115 13.6046 18.3834 13.994 17.994C14.3834 17.6046 14.9115 17.3855 15.4622 17.3849ZM21.863 28.0388L13.3849 36.0154V21.5176L21.863 28.0388ZM41.6357 38.6151H15.4622C15.1076 38.6149 14.7589 38.5239 14.4493 38.3509C14.1398 38.1778 13.8797 37.9283 13.6938 37.6263L22.9749 28.8946L26.1312 31.3223C26.8611 31.8925 27.7608 32.2021 28.6871 32.2019C29.6133 32.2016 30.5129 31.8916 31.2425 31.321L34.3806 28.8586L43.4076 37.6208C43.2221 37.9243 42.9617 38.1752 42.6515 38.3493C42.3412 38.5234 41.9915 38.6149 41.6357 38.6151Z" fill="white"/>
</svg>
