<svg width="23" height="23" viewBox="0 0 23 23" fill="none" xmlns="http://www.w3.org/2000/svg">
<g clip-path="url(#clip0_1339_12997)">
<path d="M0 11.5C0 5.14865 5.14865 0 11.5 0C17.8514 0 23 5.14865 23 11.5C23 17.8514 17.8514 23 11.5 23C5.14865 23 0 17.8514 0 11.5Z" fill="#FF2147"/>
<path d="M17.032 7.82617H6.9677C6.87282 7.82632 6.78187 7.86409 6.71479 7.93119C6.64771 7.9983 6.60998 8.08927 6.60986 8.18415V8.90431C6.60986 8.93749 6.64584 8.97557 6.67524 8.99097L11.9653 12.0126C11.9788 12.0203 11.9942 12.0243 12.0098 12.0242C12.0258 12.0243 12.0414 12.02 12.0552 12.0119L17.1853 8.99391C17.2142 8.97781 17.2906 8.93525 17.3193 8.91565C17.354 8.89199 17.3899 8.87057 17.3899 8.82815V8.18401C17.3897 8.08915 17.352 7.99822 17.2849 7.93114C17.2178 7.86407 17.1269 7.82632 17.032 7.82617ZM17.3452 9.99015C17.3315 9.98224 17.3158 9.97813 17.3 9.97822C17.2841 9.97832 17.2686 9.98263 17.2549 9.99071L14.3517 11.6989C14.3402 11.7056 14.3303 11.7149 14.3228 11.7259C14.3153 11.737 14.3103 11.7497 14.3084 11.7629C14.3064 11.7762 14.3075 11.7897 14.3115 11.8025C14.3155 11.8152 14.3223 11.827 14.3314 11.8368L17.235 14.9667C17.2433 14.9758 17.2534 14.983 17.2647 14.9879C17.276 14.9928 17.2881 14.9953 17.3004 14.9953C17.3241 14.9953 17.3469 14.9858 17.3636 14.969C17.3804 14.9523 17.3898 14.9295 17.3899 14.9058V10.0679C17.3899 10.0521 17.3858 10.0367 17.3779 10.023C17.3701 10.0094 17.3588 9.99804 17.3452 9.99015ZM13.5151 12.2724C13.5013 12.2574 13.4828 12.2476 13.4626 12.2446C13.4425 12.2416 13.4219 12.2456 13.4043 12.2559L12.2407 12.9407C12.1725 12.9801 12.0952 13.0011 12.0165 13.0016C11.9377 13.0021 11.8602 12.9821 11.7915 12.9436L10.7674 12.3585C10.7509 12.3491 10.7318 12.3452 10.7129 12.3474C10.694 12.3495 10.6763 12.3577 10.6623 12.3706L6.77338 15.9778C6.76319 15.9873 6.75536 15.9991 6.75053 16.0122C6.74569 16.0253 6.74398 16.0393 6.74553 16.0532C6.74708 16.0671 6.75185 16.0804 6.75945 16.0921C6.76706 16.1038 6.7773 16.1136 6.78934 16.1206C6.84982 16.1562 6.9082 16.1731 6.96756 16.1731H16.929C16.9464 16.1731 16.9634 16.1679 16.978 16.1584C16.9925 16.1488 17.0039 16.1352 17.0109 16.1192C17.0178 16.1033 17.0199 16.0857 17.017 16.0685C17.014 16.0514 17.0062 16.0355 16.9944 16.0228L13.5151 12.2724ZM9.80662 11.9439C9.8169 11.9343 9.82479 11.9225 9.82966 11.9094C9.83454 11.8962 9.83626 11.8821 9.8347 11.8682C9.83313 11.8543 9.82832 11.8409 9.82065 11.8292C9.81298 11.8174 9.80266 11.8077 9.79052 11.8006L6.74328 10.0602C6.72969 10.0524 6.7143 10.0484 6.69866 10.0485C6.68302 10.0486 6.66768 10.0528 6.65417 10.0607C6.64067 10.0686 6.62946 10.0798 6.62169 10.0934C6.61391 10.107 6.60984 10.1224 6.60986 10.138V14.7048C6.60977 14.7222 6.61478 14.7393 6.6243 14.7539C6.63381 14.7686 6.6474 14.7801 6.66339 14.787C6.67938 14.794 6.69706 14.7961 6.71425 14.7932C6.73143 14.7902 6.74737 14.7823 6.76008 14.7703L9.80662 11.9439Z" fill="white"/>
</g>
<defs>
<clipPath id="clip0_1339_12997">
<rect width="23" height="23" fill="white"/>
</clipPath>
</defs>
</svg>
