<svg width="25" height="25" viewBox="0 0 25 25" fill="none" xmlns="http://www.w3.org/2000/svg">
<path d="M9.673 7.29191C9.42231 4.40835 6.41406 2.99348 6.28675 2.93573C6.16773 2.87978 6.03436 2.8619 5.90481 2.88454C2.43194 3.46073 1.90956 5.48198 1.88856 5.56598C1.85999 5.68303 1.86454 5.80573 1.90169 5.92035C6.04394 18.7724 14.6526 21.1545 17.4824 21.9381C17.7002 21.9985 17.8801 22.047 18.0166 22.0917C18.1723 22.1426 18.3416 22.1327 18.4904 22.0641C18.577 22.0247 20.6219 21.0614 21.1219 17.9192C21.1441 17.7821 21.1221 17.6414 21.0589 17.5176C21.0143 17.431 19.9446 15.3953 16.9784 14.676C16.8777 14.6503 16.7724 14.6494 16.6713 14.6734C16.5703 14.6974 16.4766 14.7456 16.3982 14.8139C15.4624 15.6132 14.1696 16.465 13.6118 16.5529C9.8725 14.7246 7.78431 11.2163 7.70556 10.5509C7.65962 10.1768 8.51669 8.86298 9.50237 7.7946C9.56433 7.72736 9.61152 7.6479 9.6409 7.56132C9.67029 7.47474 9.68122 7.38297 9.673 7.29191Z" fill="#1E3888"/>
</svg>
