<svg width="86" height="108" viewBox="0 0 86 108" fill="none" xmlns="http://www.w3.org/2000/svg">
<path d="M15.5899 106.926C15.2998 106.782 15.0098 106.71 14.7197 106.566C12.2543 105.7 10.7315 103.247 11.0216 100.722C11.3116 98.0526 13.197 96.0326 15.8799 95.6719C17.2577 95.5276 18.7079 95.5276 20.0857 95.5276C39.374 95.5276 58.6624 95.5276 78.0233 95.5276C78.3858 95.5276 78.8209 95.5276 79.3285 95.5276C79.3285 99.3512 79.3285 103.103 79.3285 106.782C58.0823 106.926 36.8361 106.926 15.5899 106.926Z" fill="#1E3888"/>
<path d="M79.1838 89.6839C62.3609 89.6839 45.538 89.6839 28.715 89.6839C28.715 89.3231 28.6425 89.0346 28.6425 88.746C28.6425 76.3372 28.6425 63.9283 28.6425 51.5195C28.6425 50.7259 28.9326 50.4374 29.5852 50.2209C35.4587 48.273 41.3322 46.253 47.2058 44.233C49.3811 43.5115 49.9612 42.7179 49.9612 40.4093C49.9612 39.255 49.9612 38.1007 49.9612 36.8742C59.7504 36.8742 69.3946 36.8742 79.1838 36.8742C79.1838 54.4053 79.1838 71.9364 79.1838 89.6839Z" fill="#1E3888"/>
<path d="M51.484 16.3853C50.0337 16.9624 48.7285 17.4674 47.4233 17.9003C40.7521 20.4253 34.0084 22.9504 27.3373 25.4754C26.6121 25.764 26.032 25.764 25.3069 25.4754C17.258 22.5897 9.28162 19.7039 1.23271 16.8181C0.870152 16.6738 0.580101 16.6017 0 16.3853C1.81282 15.736 3.40809 15.1588 5.00337 14.5817C11.8921 12.1288 18.7808 9.6037 25.6695 7.15079C26.1046 7.0065 26.6121 6.93436 27.0472 7.07865C34.9511 10.0366 42.855 12.9945 50.6863 16.0245C50.9039 16.0967 51.1214 16.241 51.484 16.3853Z" fill="#FF6700"/>
<path d="M7.17877 25.3311C9.42666 26.1247 11.5295 26.9183 13.7049 27.6398C17.4031 28.9384 21.1012 30.3091 24.7993 31.6798C25.887 32.1127 26.9022 32.1127 28.0624 31.6798C32.9933 29.8041 37.9241 27.9283 42.855 26.1247C43.2176 25.9804 43.5801 25.9083 44.0877 25.6919C44.0877 28.2169 44.0877 30.6698 44.0877 33.1227C44.0877 34.7821 44.0877 36.5135 44.0877 38.1728C44.0877 38.75 43.9427 39.0386 43.3626 39.255C37.6341 41.2029 31.9781 43.1508 26.2496 45.0265C25.887 45.1708 25.3069 45.1708 24.9444 45.0265C19.2884 43.1508 13.7049 41.2029 8.04892 39.255C7.75887 39.1107 7.3238 38.75 7.3238 38.4614C7.17877 34.1328 7.17877 29.8041 7.17877 25.3311Z" fill="#FF6700"/>
<path d="M22.5517 89.6116C18.7086 89.9002 14.7204 88.9623 11.0947 91.0545C11.0947 76.1928 11.0947 61.4754 11.0947 46.6858C11.3848 46.7579 11.6023 46.7579 11.8199 46.9022C15.1554 48.0565 18.4185 49.2108 21.7541 50.293C22.3342 50.5094 22.6242 50.7259 22.6242 51.4473C22.6242 63.8561 22.6242 76.3371 22.6242 88.7459C22.6242 89.0345 22.6242 89.3231 22.5517 89.6116Z" fill="#1E3888"/>
</svg>
