<svg width="23" height="23" viewBox="0 0 23 23" fill="none" xmlns="http://www.w3.org/2000/svg">
<g clip-path="url(#clip0_685_662)">
<path d="M11.5001 23C17.8513 23 23.0001 17.8513 23.0001 11.5C23.0001 5.14876 17.8513 3.05176e-05 11.5001 3.05176e-05C5.14879 3.05176e-05 6.10352e-05 5.14876 6.10352e-05 11.5C6.10352e-05 17.8513 5.14879 23 11.5001 23Z" fill="#2DAAE1"/>
<path d="M18.8723 6.92573C18.3298 7.16643 17.7472 7.32915 17.1346 7.40229C17.7598 7.02792 18.2388 6.43469 18.4649 5.72864C17.871 6.08136 17.2211 6.32968 16.5433 6.4628C15.9918 5.87488 15.2052 5.50781 14.335 5.50781C12.6648 5.50781 11.3102 6.86184 11.3102 8.53307C11.3102 8.76987 11.3369 9.00088 11.3882 9.22268C8.87382 9.09632 6.64469 7.89192 5.15262 6.06184C4.89208 6.5088 4.74295 7.02847 4.74295 7.58293C4.74295 8.63238 5.27711 9.55831 6.08875 10.1007C5.60827 10.0858 5.13834 9.95613 4.71824 9.72247V9.7607C4.71824 11.2266 5.76089 12.4489 7.14495 12.7269C6.8907 12.7966 6.62388 12.833 6.34784 12.833C6.15267 12.833 5.96332 12.8145 5.77834 12.7797C6.16333 13.9812 7.28061 14.8558 8.60406 14.8805C7.56867 15.6922 6.26404 16.176 4.84706 16.176C4.603 16.176 4.36179 16.1614 4.125 16.1329C5.46404 16.9915 7.05393 17.4927 8.76245 17.4927C14.3268 17.4927 17.37 12.8829 17.37 8.88518C17.37 8.75394 17.3671 8.62367 17.3608 8.49387C17.9537 8.06501 18.4655 7.53401 18.8723 6.92573Z" fill="white"/>
</g>
<defs>
<clipPath id="clip0_685_662">
<rect width="23" height="23" fill="white"/>
</clipPath>
</defs>
</svg>
