<svg width="57" height="57" viewBox="0 0 57 57" fill="none" xmlns="http://www.w3.org/2000/svg">
<g clip-path="url(#clip0_685_463)">
<path d="M28.5 57.0001C44.2401 57.0001 57 44.2402 57 28.5001C57 12.7599 44.2401 6.10352e-05 28.5 6.10352e-05C12.7599 6.10352e-05 0 12.7599 0 28.5001C0 44.2402 12.7599 57.0001 28.5 57.0001Z" fill="#1E3888"/>
<path d="M46.7741 17.1632C45.4298 17.7597 43.986 18.163 42.4679 18.3442C44.0172 17.4165 45.2041 15.9463 45.7646 14.1965C44.2928 15.0706 42.6821 15.686 41.0024 16.0159C39.6355 14.5589 37.6862 13.6492 35.5297 13.6492C31.3904 13.6492 28.0334 17.0049 28.0334 21.1466C28.0334 21.7335 28.0995 22.306 28.2266 22.8557C21.9954 22.5425 16.471 19.5577 12.7733 15.0223C12.1276 16.1299 11.758 17.4178 11.758 18.7919C11.758 21.3927 13.0818 23.6874 15.0932 25.0316C13.9025 24.9947 12.7379 24.6733 11.6968 24.0943V24.189C11.6968 27.8219 14.2807 30.8511 17.7108 31.5401C17.0807 31.7127 16.4194 31.8029 15.7353 31.8029C15.2517 31.8029 14.7824 31.7571 14.324 31.6709C15.2781 34.6486 18.047 36.816 21.3269 36.8773C18.7609 38.8887 15.5277 40.0877 12.016 40.0877C11.4112 40.0877 10.8134 40.0517 10.2266 39.9809C13.545 42.1088 17.4852 43.351 21.7194 43.351C35.5093 43.351 43.0511 31.9266 43.0511 22.0192C43.0511 21.694 43.0439 21.3711 43.0283 21.0495C44.4977 19.9866 45.7661 18.6707 46.7741 17.1632Z" fill="white"/>
</g>
<defs>
<clipPath id="clip0_685_463">
<rect width="57" height="57" fill="white"/>
</clipPath>
</defs>
</svg>
