<svg width="130" height="130" viewBox="0 0 130 130" fill="none" xmlns="http://www.w3.org/2000/svg">
<path d="M90.8086 90.8089H80.2939C80.0404 90.8089 79.7972 90.7082 79.618 90.5289C79.4387 90.3497 79.338 90.1065 79.338 89.853V86.0295C79.338 85.776 79.4387 85.5328 79.618 85.3536C79.7972 85.1743 80.0404 85.0736 80.2939 85.0736H90.8086C91.0621 85.0736 91.3052 85.1743 91.4845 85.3536C91.6638 85.5328 91.7645 85.776 91.7645 86.0295V89.853C91.7645 90.1065 91.6638 90.3497 91.4845 90.5289C91.3052 90.7082 91.0621 90.8089 90.8086 90.8089ZM81.2498 88.8971H89.8527V86.9854H81.2498V88.8971Z" fill="url(#paint0_linear_685_683)"/>
<path d="M87.941 86.9854H83.1616C82.9081 86.9854 82.6649 86.8847 82.4857 86.7054C82.3064 86.5262 82.2057 86.283 82.2057 86.0295V51.6177C82.2057 51.3642 82.3064 51.1211 82.4857 50.9418C82.6649 50.7626 82.9081 50.6619 83.1616 50.6619H87.941C88.1945 50.6619 88.4376 50.7626 88.6169 50.9418C88.7962 51.1211 88.8969 51.3642 88.8969 51.6177V86.0295C88.8969 86.283 88.7962 86.5262 88.6169 86.7054C88.4376 86.8847 88.1945 86.9854 87.941 86.9854ZM84.1175 85.0736H86.9851V52.5736H84.1175V85.0736Z" fill="url(#paint1_linear_685_683)"/>
<path d="M89.8528 52.5736H81.2498C80.9963 52.5736 80.7532 52.4729 80.5739 52.2936C80.3947 52.1144 80.2939 51.8712 80.2939 51.6177V48.7501C80.2939 48.4966 80.3947 48.2534 80.5739 48.0742C80.7532 47.8949 80.9963 47.7942 81.2498 47.7942H89.8528C90.1063 47.7942 90.3494 47.8949 90.5287 48.0742C90.7079 48.2534 90.8087 48.4966 90.8087 48.7501V51.6177C90.8087 51.8712 90.7079 52.1144 90.5287 52.2936C90.3494 52.4729 90.1063 52.5736 89.8528 52.5736ZM82.2057 50.6618H88.8969V49.706H82.2057V50.6618Z" fill="#FF6600"/>
<path d="M85.5513 49.706C84.5115 49.706 83.495 49.3977 82.6305 48.82C81.7659 48.2423 81.092 47.4212 80.6941 46.4605C80.2962 45.4999 80.1921 44.4428 80.395 43.423C80.5978 42.4032 81.0985 41.4664 81.8338 40.7311C82.569 39.9959 83.5058 39.4952 84.5256 39.2923C85.5455 39.0894 86.6025 39.1936 87.5632 39.5915C88.5238 39.9894 89.3449 40.6632 89.9226 41.5278C90.5003 42.3924 90.8086 43.4088 90.8086 44.4486C90.8069 45.8424 90.2524 47.1787 89.2669 48.1642C88.2813 49.1498 86.9451 49.7042 85.5513 49.706ZM85.5513 41.1031C84.8896 41.1031 84.2428 41.2993 83.6926 41.6669C83.1424 42.0345 82.7136 42.557 82.4604 43.1683C82.2071 43.7797 82.1409 44.4524 82.27 45.1013C82.3991 45.7503 82.7177 46.3464 83.1856 46.8143C83.6535 47.2822 84.2496 47.6009 84.8986 47.7299C85.5476 47.859 86.2203 47.7928 86.8316 47.5396C87.4429 47.2863 87.9654 46.8575 88.333 46.3073C88.7007 45.7572 88.8969 45.1103 88.8969 44.4486C88.8958 43.5617 88.543 42.7113 87.9158 42.0841C87.2886 41.4569 86.4383 41.1041 85.5513 41.1031ZM49.7057 90.8089H39.191C38.9375 90.8089 38.6943 90.7082 38.5151 90.529C38.3358 90.3497 38.2351 90.1066 38.2351 89.8531V86.0295C38.2351 85.776 38.3358 85.5329 38.5151 85.3536C38.6943 85.1744 38.9375 85.0736 39.191 85.0736H49.7057C49.9592 85.0736 50.2023 85.1744 50.3816 85.3536C50.5609 85.5329 50.6616 85.776 50.6616 86.0295V89.8531C50.6616 90.1066 50.5609 90.3497 50.3816 90.529C50.2023 90.7082 49.9592 90.8089 49.7057 90.8089ZM40.1469 88.8972H48.7498V86.9854H40.1469V88.8972Z" fill="#FF6600"/>
<path d="M46.8381 86.9854H42.0587C41.8051 86.9854 41.562 86.8847 41.3828 86.7054C41.2035 86.5262 41.1028 86.283 41.1028 86.0295V51.6177C41.1028 51.3642 41.2035 51.1211 41.3828 50.9418C41.562 50.7626 41.8051 50.6619 42.0587 50.6619H46.8381C47.0916 50.6619 47.3347 50.7626 47.514 50.9418C47.6933 51.1211 47.794 51.3642 47.794 51.6177V86.0295C47.794 86.283 47.6933 86.5262 47.514 86.7054C47.3347 86.8847 47.0916 86.9854 46.8381 86.9854ZM43.0145 85.0736H45.8822V52.5736H43.0145V85.0736Z" fill="url(#paint2_linear_685_683)"/>
<path d="M48.7499 52.5736H40.1469C39.8934 52.5736 39.6503 52.4729 39.471 52.2936C39.2917 52.1144 39.191 51.8712 39.191 51.6177V48.7501C39.191 48.4966 39.2917 48.2534 39.471 48.0742C39.6503 47.8949 39.8934 47.7942 40.1469 47.7942H48.7499C49.0034 47.7942 49.2465 47.8949 49.4258 48.0742C49.605 48.2534 49.7057 48.4966 49.7057 48.7501V51.6177C49.7057 51.8712 49.605 52.1144 49.4258 52.2936C49.2465 52.4729 49.0034 52.5736 48.7499 52.5736ZM41.1028 50.6618H47.794V49.706H41.1028V50.6618Z" fill="#FF6600"/>
<path d="M44.4484 49.706C43.4086 49.706 42.3921 49.3977 41.5276 48.82C40.663 48.2423 39.9892 47.4212 39.5912 46.4605C39.1933 45.4999 39.0892 44.4428 39.2921 43.423C39.4949 42.4032 39.9956 41.4664 40.7309 40.7311C41.4661 39.9959 42.4029 39.4952 43.4227 39.2923C44.4426 39.0894 45.4996 39.1936 46.4603 39.5915C47.421 39.9894 48.242 40.6632 48.8197 41.5278C49.3974 42.3924 49.7057 43.4088 49.7057 44.4486C49.704 45.8424 49.1495 47.1787 48.164 48.1642C47.1784 49.1498 45.8422 49.7042 44.4484 49.706ZM44.4484 41.1031C43.7867 41.1031 43.1399 41.2993 42.5897 41.6669C42.0395 42.0345 41.6107 42.557 41.3575 43.1683C41.1043 43.7797 41.038 44.4524 41.1671 45.1013C41.2962 45.7503 41.6148 46.3464 42.0827 46.8143C42.5506 47.2822 43.1467 47.6009 43.7957 47.7299C44.4447 47.859 45.1174 47.7928 45.7287 47.5396C46.34 47.2863 46.8625 46.8575 47.2302 46.3073C47.5978 45.7572 47.794 45.1103 47.794 44.4486C47.7929 43.5617 47.4401 42.7113 46.8129 42.0841C46.1857 41.4569 45.3354 41.1041 44.4484 41.1031ZM64.9999 56.3972C59.2166 56.3841 53.5135 55.0427 48.3307 52.4765C48.1093 52.3617 47.9415 52.1648 47.8632 51.9279C47.7849 51.691 47.8024 51.4329 47.9118 51.2087C48.0212 50.9845 48.214 50.812 48.4489 50.728C48.6838 50.6439 48.9422 50.6551 49.169 50.759C54.0911 53.1968 59.5072 54.4717 64.9999 54.4854C70.4926 54.4719 75.9088 53.197 80.8307 50.759C81.0575 50.6551 81.316 50.6439 81.5509 50.728C81.7858 50.812 81.9785 50.9845 82.0879 51.2087C82.1974 51.4329 82.2148 51.691 82.1365 51.9279C82.0583 52.1648 81.8905 52.3617 81.669 52.4765C76.4863 55.0429 70.7832 56.3843 64.9999 56.3972ZM59.7425 68.8236C59.5539 68.8235 59.3695 68.7676 59.2125 68.663C59.0556 68.5583 58.933 68.4096 58.8603 68.2356L56.4706 62.5003C56.3747 62.2666 56.3751 62.0045 56.4718 61.7711C56.5685 61.5378 56.7537 61.3522 56.9868 61.255C57.2199 61.1577 57.4821 61.1567 57.716 61.2521C57.9499 61.3475 58.1365 61.5317 58.235 61.7643L59.7425 65.3825L61.25 61.7643C61.3486 61.5317 61.5352 61.3475 61.7691 61.2521C62.0029 61.1567 62.2651 61.1577 62.4982 61.255C62.7313 61.3522 62.9165 61.5378 63.0132 61.7711C63.1099 62.0045 63.1104 62.2666 63.0144 62.5003L60.6247 68.2356C60.552 68.4096 60.4295 68.5583 60.2725 68.663C60.1155 68.7676 59.9312 68.8235 59.7425 68.8236ZM64.9999 68.8236C64.7464 68.8236 64.5032 68.7229 64.324 68.5437C64.1447 68.3644 64.044 68.1213 64.044 67.8678V62.1325C64.044 61.8789 64.1447 61.6358 64.324 61.4566C64.5032 61.2773 64.7464 61.1766 64.9999 61.1766C65.2534 61.1766 65.4965 61.2773 65.6758 61.4566C65.855 61.6358 65.9557 61.8789 65.9557 62.1325V67.8678C65.9557 68.1213 65.855 68.3644 65.6758 68.5437C65.4965 68.7229 65.2534 68.8236 64.9999 68.8236ZM67.8675 68.8236C67.614 68.8236 67.3709 68.7229 67.1916 68.5437C67.0123 68.3644 66.9116 68.1213 66.9116 67.8678V62.1325C66.9116 61.8789 67.0123 61.6358 67.1916 61.4566C67.3709 61.2773 67.614 61.1766 67.8675 61.1766H70.1903C70.8416 61.1775 71.4659 61.4366 71.9264 61.8971C72.3869 62.3576 72.646 62.9819 72.6469 63.6332C72.6464 64.2491 72.4015 64.8396 71.966 65.275C71.5305 65.7105 70.94 65.9554 70.3241 65.956H68.8234V67.8678C68.8234 68.1213 68.7227 68.3644 68.5434 68.5437C68.3642 68.7229 68.121 68.8236 67.8675 68.8236ZM68.8234 64.0442H70.3241C70.4331 64.0442 70.5377 64.0009 70.6148 63.9238C70.6919 63.8468 70.7352 63.7422 70.7352 63.6332C70.7349 63.4888 70.6774 63.3503 70.5753 63.2482C70.4732 63.1461 70.3347 63.0886 70.1903 63.0883H68.8234V64.0442Z" fill="#FF6600"/>
<path d="M75.5145 71.6913H54.4851C54.2315 71.6913 53.9884 71.5906 53.8091 71.4113C53.6299 71.2321 53.5292 70.9889 53.5292 70.7354V59.2648C53.5292 59.0113 53.6299 58.7682 53.8091 58.5889C53.9884 58.4097 54.2315 58.309 54.4851 58.309H75.5145C75.768 58.309 76.0111 58.4097 76.1904 58.5889C76.3696 58.7682 76.4704 59.0113 76.4704 59.2648V70.7354C76.4704 70.9889 76.3696 71.2321 76.1904 71.4113C76.0111 71.5906 75.768 71.6913 75.5145 71.6913ZM55.4409 69.7795H74.5586V60.2207H55.4409V69.7795Z" fill="#FF6600"/>
<path d="M56.3969 60.2207C56.1434 60.2207 55.9003 60.12 55.721 59.9407C55.5417 59.7615 55.441 59.5184 55.441 59.2648V54.4854C55.441 54.2319 55.5417 53.9888 55.721 53.8095C55.9003 53.6302 56.1434 53.5295 56.3969 53.5295C56.6504 53.5295 56.8936 53.6302 57.0728 53.8095C57.2521 53.9888 57.3528 54.2319 57.3528 54.4854V59.2648C57.3528 59.5184 57.2521 59.7615 57.0728 59.9407C56.8936 60.12 56.6504 60.2207 56.3969 60.2207ZM73.6028 60.2207C73.3493 60.2207 73.1062 60.12 72.9269 59.9407C72.7476 59.7615 72.6469 59.5184 72.6469 59.2648V54.4854C72.6469 54.2319 72.7476 53.9888 72.9269 53.8095C73.1062 53.6302 73.3493 53.5295 73.6028 53.5295C73.8563 53.5295 74.0995 53.6302 74.2787 53.8095C74.458 53.9888 74.5587 54.2319 74.5587 54.4854V59.2648C74.5587 59.5184 74.458 59.7615 74.2787 59.9407C74.0995 60.12 73.8563 60.2207 73.6028 60.2207Z" fill="#FF6600"/>
<path d="M49.758 90.8301H39.1175C38.8609 90.8301 38.6149 90.7287 38.4335 90.5481C38.2521 90.3675 38.1501 90.1226 38.1501 89.8672V86.0153C38.1501 85.7599 38.2521 85.515 38.4335 85.3344C38.6149 85.1538 38.8609 85.0524 39.1175 85.0524H49.758C50.0145 85.0524 50.2606 85.1538 50.442 85.3344C50.6234 85.515 50.7253 85.7599 50.7253 86.0153V89.8672C50.7253 90.1226 50.6234 90.3675 50.442 90.5481C50.2606 90.7287 50.0145 90.8301 49.758 90.8301ZM40.0848 88.9042H48.7907V86.9783H40.0848V88.9042Z" fill="url(#paint3_linear_685_683)"/>
<circle cx="65" cy="65" r="64.75" stroke="#1E3888" stroke-width="0.5"/>
<defs>
<linearGradient id="paint0_linear_685_683" x1="85.5512" y1="85.0736" x2="85.5512" y2="90.8089" gradientUnits="userSpaceOnUse">
<stop offset="1" stop-color="#FF6600"/>
</linearGradient>
<linearGradient id="paint1_linear_685_683" x1="85.5513" y1="50.6619" x2="85.5513" y2="86.9854" gradientUnits="userSpaceOnUse">
<stop offset="1" stop-color="#FF6600"/>
</linearGradient>
<linearGradient id="paint2_linear_685_683" x1="44.4484" y1="50.6619" x2="44.4484" y2="86.9854" gradientUnits="userSpaceOnUse">
<stop offset="1" stop-color="#FF6600"/>
</linearGradient>
<linearGradient id="paint3_linear_685_683" x1="44.4377" y1="85.0524" x2="44.4377" y2="90.8301" gradientUnits="userSpaceOnUse">
<stop offset="1" stop-color="#FF6600"/>
</linearGradient>
</defs>
</svg>
