<svg width="45" height="45" viewBox="0 0 45 45" fill="none" xmlns="http://www.w3.org/2000/svg">
<path d="M22.5 45C34.9264 45 45 34.9264 45 22.5C45 10.0736 34.9264 0 22.5 0C10.0736 0 0 10.0736 0 22.5C0 34.9264 10.0736 45 22.5 45Z" fill="#1E3888"/>
<path d="M22 11.3335C28.4435 11.3335 33.6667 16.5567 33.6667 23.0002C33.6667 29.4437 28.4435 34.6668 22 34.6668C15.5565 34.6668 10.3333 29.4437 10.3333 23.0002C10.3333 16.5567 15.5565 11.3335 22 11.3335ZM23.9635 27.6085C22.6556 27.6845 21.3444 27.6845 20.0365 27.6085C20.1952 28.5255 20.397 29.3515 20.6315 30.0562C20.9255 30.9382 21.2498 31.5682 21.5532 31.9532C21.6558 32.0815 21.8133 32.3335 22.0023 32.3335C22.1715 32.3183 22.3547 32.0687 22.4457 31.9532C22.749 31.5682 23.0745 30.9382 23.3673 30.0562C23.6267 29.2563 23.8267 28.4381 23.9635 27.6085ZM30.7652 26.2143C30.4556 26.3473 30.1317 26.4698 29.7933 26.5818C28.7993 26.9132 27.6373 27.1792 26.3633 27.3635C26.2049 28.5277 25.9433 29.6756 25.5817 30.7935C25.4697 31.1318 25.3472 31.4558 25.2142 31.7653C26.4863 31.2974 27.6415 30.5586 28.6 29.6001C29.5584 28.6417 30.2972 27.4864 30.7652 26.2143ZM13.2348 26.2143C13.7028 27.4864 14.4416 28.6417 15.4 29.6001C16.3585 30.5586 17.5137 31.2974 18.7858 31.7653C18.6503 31.4465 18.5277 31.1223 18.4183 30.7935C18.0567 29.6756 17.7951 28.5277 17.6367 27.3635C16.4724 27.2051 15.3246 26.9435 14.2067 26.5818C13.8683 26.4698 13.5444 26.3473 13.2348 26.2143ZM19.7507 20.7508C19.6371 22.2482 19.6371 23.7521 19.7507 25.2495C21.2463 25.3627 22.7537 25.3627 24.2493 25.2495C24.3629 23.7521 24.3629 22.2482 24.2493 20.7508C22.7519 20.6373 21.2481 20.6373 19.7507 20.7508ZM26.6083 21.0367C26.6844 22.3446 26.6844 23.6558 26.6083 24.9637C27.438 24.8269 28.2562 24.628 29.056 24.3687C29.938 24.0747 30.568 23.7503 30.953 23.447C31.0813 23.3455 31.3333 23.1857 31.3333 22.9978C31.3182 22.8287 31.0685 22.6455 30.953 22.5545C30.568 22.2512 29.938 21.9257 29.056 21.6328C28.2562 21.3735 27.438 21.1735 26.6083 21.0367ZM17.3917 21.0367C16.4747 21.1953 15.6498 21.3972 14.944 21.6317C14.062 21.9257 13.4332 22.25 13.047 22.5533C12.767 22.775 12.683 22.9418 12.6702 22.9827C12.6177 23.1577 12.9385 23.3595 13.047 23.4458C13.432 23.7492 14.062 24.0747 14.944 24.3675C15.6498 24.6032 16.4747 24.805 17.3917 24.9625C17.313 23.6555 17.313 22.3437 17.3917 21.0367ZM18.7858 14.235C17.5137 14.703 16.3585 15.4417 15.4 16.4002C14.4416 17.3586 13.7028 18.5139 13.2348 19.786C13.5444 19.653 13.8683 19.5305 14.2067 19.4185C15.3246 19.0569 16.4724 18.7953 17.6367 18.6368C17.821 17.3628 18.087 16.2008 18.4183 15.2068C18.5303 14.8685 18.6528 14.5446 18.7858 14.235ZM25.2142 14.235C25.3472 14.5453 25.4697 14.8693 25.5817 15.2068C25.913 16.2008 26.179 17.3628 26.3633 18.6368C27.6373 18.8212 28.7993 19.0872 29.7933 19.4185C30.1317 19.5305 30.4556 19.653 30.7652 19.786C30.2972 18.5139 29.5584 17.3586 28.6 16.4002C27.6415 15.4417 26.4863 14.703 25.2142 14.235ZM22 13.6668C21.8378 13.6668 21.636 13.9433 21.5543 14.0472C21.251 14.4322 20.9255 15.0622 20.6327 15.9442C20.3734 16.744 20.1745 17.5622 20.0377 18.3918C21.3447 18.3132 22.6553 18.3132 23.9623 18.3918C23.8255 17.5622 23.6267 16.744 23.3673 15.9442C23.0745 15.0622 22.749 14.4333 22.4457 14.0472C22.364 13.9422 22.1633 13.6668 22 13.6668Z" fill="white"/>
</svg>
