<svg width="23" height="23" viewBox="0 0 23 23" fill="none" xmlns="http://www.w3.org/2000/svg">
<g clip-path="url(#clip0_685_665)">
<path d="M0 11.5C0 5.14865 5.14865 0 11.5 0C17.8514 0 23 5.14865 23 11.5C23 17.8514 17.8514 23 11.5 23C5.14865 23 0 17.8514 0 11.5Z" fill="#FF0000"/>
<path d="M17.3775 8.65985C17.2366 8.11839 16.8207 7.69145 16.2931 7.54627C15.3362 7.2832 11.5005 7.2832 11.5005 7.2832C11.5005 7.2832 7.66479 7.2832 6.7079 7.54674C6.18033 7.69145 5.76442 8.11791 5.62354 8.65985C5.36719 9.64214 5.36719 11.6915 5.36719 11.6915C5.36719 11.6915 5.36719 13.7409 5.62354 14.7232C5.76442 15.2647 6.18033 15.6916 6.7079 15.8368C7.66479 16.0999 11.5005 16.0999 11.5005 16.0999C11.5005 16.0999 15.3362 16.0999 16.2931 15.8363C16.8207 15.6916 17.2366 15.2652 17.3775 14.7232C17.6339 13.7409 17.6339 11.6915 17.6339 11.6915C17.6339 11.6915 17.6339 9.64214 17.3775 8.65985Z" fill="white"/>
<path d="M10.3516 13.8001V9.9668L13.4182 11.8835L10.3516 13.8001Z" fill="#FF0000"/>
</g>
<defs>
<clipPath id="clip0_685_665">
<rect width="23" height="23" fill="white"/>
</clipPath>
</defs>
</svg>
