<svg width="57" height="57" viewBox="0 0 57 57" fill="none" xmlns="http://www.w3.org/2000/svg">
<g clip-path="url(#clip0_685_76)">
<path d="M0 28.5C0 12.7597 12.7597 0 28.5 0C44.2403 0 57 12.7597 57 28.5C57 44.2403 44.2403 57 28.5 57C12.7597 57 0 44.2403 0 28.5Z" fill="#1E3888"/>
<path d="M43.0647 21.4615C42.7155 20.1196 41.6848 19.0616 40.3774 18.7017C38.0059 18.0498 28.5 18.0498 28.5 18.0498C28.5 18.0498 18.9941 18.0498 16.6226 18.7029C15.3152 19.0616 14.2844 20.1184 13.9353 21.4615C13.3 23.8959 13.3 28.9748 13.3 28.9748C13.3 28.9748 13.3 34.0537 13.9353 36.4881C14.2844 37.83 15.3152 38.8881 16.6226 39.2479C18.9941 39.8998 28.5 39.8998 28.5 39.8998C28.5 39.8998 38.0059 39.8998 40.3774 39.2467C41.6848 38.8881 42.7155 37.8312 43.0647 36.4881C43.7 34.0537 43.7 28.9748 43.7 28.9748C43.7 28.9748 43.7 23.8959 43.0647 21.4615Z" fill="white"/>
<path d="M25.6504 34.2002V24.7002L33.2504 29.4502L25.6504 34.2002Z" fill="#1E3888"/>
</g>
<defs>
<clipPath id="clip0_685_76">
<rect width="57" height="57" fill="white"/>
</clipPath>
</defs>
</svg>
