<svg width="239" height="20" viewBox="0 0 239 20" fill="none" xmlns="http://www.w3.org/2000/svg">
<path d="M4.016 2.248V19H0.656V2.248H4.016ZM14.7037 5.512C16.2877 5.512 17.5677 6.016 18.5437 7.024C19.5197 8.016 20.0077 9.408 20.0077 11.2V19H16.6477V11.656C16.6477 10.6 16.3837 9.792 15.8557 9.232C15.3277 8.656 14.6077 8.368 13.6957 8.368C12.7677 8.368 12.0317 8.656 11.4877 9.232C10.9597 9.792 10.6957 10.6 10.6957 11.656V19H7.33569V5.704H10.6957V7.36C11.1437 6.784 11.7117 6.336 12.3997 6.016C13.1037 5.68 13.8717 5.512 14.7037 5.512ZM22.3389 12.352C22.3389 10.976 22.6189 9.776 23.1789 8.752C23.7389 7.712 24.5149 6.912 25.5069 6.352C26.4989 5.776 27.6349 5.488 28.9149 5.488C30.5629 5.488 31.9229 5.904 32.9949 6.736C34.0829 7.552 34.8109 8.704 35.1789 10.192H31.5549C31.3629 9.616 31.0349 9.168 30.5709 8.848C30.1229 8.512 29.5629 8.344 28.8909 8.344C27.9309 8.344 27.1709 8.696 26.6109 9.4C26.0509 10.088 25.7709 11.072 25.7709 12.352C25.7709 13.616 26.0509 14.6 26.6109 15.304C27.1709 15.992 27.9309 16.336 28.8909 16.336C30.2509 16.336 31.1389 15.728 31.5549 14.512H35.1789C34.8109 15.952 34.0829 17.096 32.9949 17.944C31.9069 18.792 30.5469 19.216 28.9149 19.216C27.6349 19.216 26.4989 18.936 25.5069 18.376C24.5149 17.8 23.7389 17 23.1789 15.976C22.6189 14.936 22.3389 13.728 22.3389 12.352ZM50.1924 5.704V19H46.8084V17.32C46.3764 17.896 45.8084 18.352 45.1044 18.688C44.4164 19.008 43.6644 19.168 42.8484 19.168C41.8084 19.168 40.8884 18.952 40.0884 18.52C39.2884 18.072 38.6564 17.424 38.1924 16.576C37.7444 15.712 37.5204 14.688 37.5204 13.504V5.704H40.8804V13.024C40.8804 14.08 41.1444 14.896 41.6724 15.472C42.2004 16.032 42.9204 16.312 43.8324 16.312C44.7604 16.312 45.4884 16.032 46.0164 15.472C46.5444 14.896 46.8084 14.08 46.8084 13.024V5.704H50.1924ZM56.8676 7.648C57.2996 7.008 57.8916 6.488 58.6436 6.088C59.4116 5.688 60.2836 5.488 61.2596 5.488C62.3956 5.488 63.4196 5.768 64.3316 6.328C65.2596 6.888 65.9876 7.688 66.5156 8.728C67.0596 9.752 67.3316 10.944 67.3316 12.304C67.3316 13.664 67.0596 14.872 66.5156 15.928C65.9876 16.968 65.2596 17.776 64.3316 18.352C63.4196 18.928 62.3956 19.216 61.2596 19.216C60.2676 19.216 59.3956 19.024 58.6436 18.64C57.9076 18.24 57.3156 17.728 56.8676 17.104V19H53.5076V1.24H56.8676V7.648ZM63.8996 12.304C63.8996 11.504 63.7316 10.816 63.3956 10.24C63.0756 9.648 62.6436 9.2 62.0996 8.896C61.5716 8.592 60.9956 8.44 60.3716 8.44C59.7636 8.44 59.1876 8.6 58.6436 8.92C58.1156 9.224 57.6836 9.672 57.3476 10.264C57.0276 10.856 56.8676 11.552 56.8676 12.352C56.8676 13.152 57.0276 13.848 57.3476 14.44C57.6836 15.032 58.1156 15.488 58.6436 15.808C59.1876 16.112 59.7636 16.264 60.3716 16.264C60.9956 16.264 61.5716 16.104 62.0996 15.784C62.6436 15.464 63.0756 15.008 63.3956 14.416C63.7316 13.824 63.8996 13.12 63.8996 12.304ZM68.9092 12.304C68.9092 10.96 69.1732 9.768 69.7012 8.728C70.2452 7.688 70.9732 6.888 71.8852 6.328C72.8132 5.768 73.8452 5.488 74.9812 5.488C75.9732 5.488 76.8372 5.688 77.5732 6.088C78.3252 6.488 78.9252 6.992 79.3732 7.6V5.704H82.7572V19H79.3732V17.056C78.9412 17.68 78.3412 18.2 77.5732 18.616C76.8212 19.016 75.9492 19.216 74.9572 19.216C73.8372 19.216 72.8132 18.928 71.8852 18.352C70.9732 17.776 70.2452 16.968 69.7012 15.928C69.1732 14.872 68.9092 13.664 68.9092 12.304ZM79.3732 12.352C79.3732 11.536 79.2132 10.84 78.8932 10.264C78.5732 9.672 78.1412 9.224 77.5972 8.92C77.0532 8.6 76.4692 8.44 75.8452 8.44C75.2212 8.44 74.6452 8.592 74.1172 8.896C73.5892 9.2 73.1572 9.648 72.8212 10.24C72.5012 10.816 72.3412 11.504 72.3412 12.304C72.3412 13.104 72.5012 13.808 72.8212 14.416C73.1572 15.008 73.5892 15.464 74.1172 15.784C74.6612 16.104 75.2372 16.264 75.8452 16.264C76.4692 16.264 77.0532 16.112 77.5972 15.808C78.1412 15.488 78.5732 15.04 78.8932 14.464C79.2132 13.872 79.3732 13.168 79.3732 12.352ZM89.9508 8.464V14.896C89.9508 15.344 90.0548 15.672 90.2628 15.88C90.4868 16.072 90.8548 16.168 91.3668 16.168H92.9268V19H90.8148C87.9828 19 86.5668 17.624 86.5668 14.872V8.464H84.9828V5.704H86.5668V2.416H89.9508V5.704H92.9268V8.464H89.9508ZM97.0475 4.12C96.4555 4.12 95.9595 3.936 95.5595 3.568C95.1755 3.184 94.9835 2.712 94.9835 2.152C94.9835 1.592 95.1755 1.128 95.5595 0.759999C95.9595 0.375999 96.4555 0.183999 97.0475 0.183999C97.6395 0.183999 98.1275 0.375999 98.5115 0.759999C98.9115 1.128 99.1115 1.592 99.1115 2.152C99.1115 2.712 98.9115 3.184 98.5115 3.568C98.1275 3.936 97.6395 4.12 97.0475 4.12ZM98.7035 5.704V19H95.3435V5.704H98.7035ZM107.927 19.216C106.647 19.216 105.495 18.936 104.471 18.376C103.447 17.8 102.639 16.992 102.047 15.952C101.471 14.912 101.183 13.712 101.183 12.352C101.183 10.992 101.479 9.792 102.071 8.752C102.679 7.712 103.503 6.912 104.543 6.352C105.583 5.776 106.743 5.488 108.023 5.488C109.303 5.488 110.463 5.776 111.503 6.352C112.543 6.912 113.359 7.712 113.951 8.752C114.559 9.792 114.863 10.992 114.863 12.352C114.863 13.712 114.551 14.912 113.927 15.952C113.319 16.992 112.487 17.8 111.431 18.376C110.391 18.936 109.223 19.216 107.927 19.216ZM107.927 16.288C108.535 16.288 109.103 16.144 109.631 15.856C110.175 15.552 110.607 15.104 110.927 14.512C111.247 13.92 111.407 13.2 111.407 12.352C111.407 11.088 111.071 10.12 110.399 9.448C109.743 8.76 108.935 8.416 107.975 8.416C107.015 8.416 106.207 8.76 105.551 9.448C104.911 10.12 104.591 11.088 104.591 12.352C104.591 13.616 104.903 14.592 105.527 15.28C106.167 15.952 106.967 16.288 107.927 16.288ZM124.696 5.512C126.28 5.512 127.56 6.016 128.536 7.024C129.512 8.016 130 9.408 130 11.2V19H126.64V11.656C126.64 10.6 126.376 9.792 125.848 9.232C125.32 8.656 124.6 8.368 123.688 8.368C122.76 8.368 122.024 8.656 121.48 9.232C120.952 9.792 120.688 10.6 120.688 11.656V19H117.328V5.704H120.688V7.36C121.136 6.784 121.704 6.336 122.392 6.016C123.096 5.68 123.864 5.512 124.696 5.512ZM144.698 19.168C143.53 19.168 142.474 18.968 141.53 18.568C140.602 18.168 139.866 17.592 139.322 16.84C138.778 16.088 138.498 15.2 138.482 14.176H142.082C142.13 14.864 142.37 15.408 142.802 15.808C143.25 16.208 143.858 16.408 144.626 16.408C145.41 16.408 146.026 16.224 146.474 15.856C146.922 15.472 147.146 14.976 147.146 14.368C147.146 13.872 146.994 13.464 146.69 13.144C146.386 12.824 146.002 12.576 145.538 12.4C145.09 12.208 144.466 12 143.666 11.776C142.578 11.456 141.69 11.144 141.002 10.84C140.33 10.52 139.746 10.048 139.25 9.424C138.77 8.784 138.53 7.936 138.53 6.88C138.53 5.888 138.778 5.024 139.274 4.288C139.77 3.552 140.466 2.992 141.362 2.608C142.258 2.208 143.282 2.008 144.434 2.008C146.162 2.008 147.562 2.432 148.634 3.28C149.722 4.112 150.322 5.28 150.434 6.784H146.738C146.706 6.208 146.458 5.736 145.994 5.368C145.546 4.984 144.946 4.792 144.194 4.792C143.538 4.792 143.01 4.96 142.61 5.296C142.226 5.632 142.034 6.12 142.034 6.76C142.034 7.208 142.178 7.584 142.466 7.888C142.77 8.176 143.138 8.416 143.57 8.608C144.018 8.784 144.642 8.992 145.442 9.232C146.53 9.552 147.418 9.872 148.106 10.192C148.794 10.512 149.386 10.992 149.882 11.632C150.378 12.272 150.626 13.112 150.626 14.152C150.626 15.048 150.394 15.88 149.93 16.648C149.466 17.416 148.786 18.032 147.89 18.496C146.994 18.944 145.93 19.168 144.698 19.168ZM165.899 12.064C165.899 12.544 165.867 12.976 165.803 13.36H156.083C156.163 14.32 156.499 15.072 157.091 15.616C157.683 16.16 158.411 16.432 159.275 16.432C160.523 16.432 161.411 15.896 161.939 14.824H165.563C165.179 16.104 164.443 17.16 163.355 17.992C162.267 18.808 160.931 19.216 159.347 19.216C158.067 19.216 156.915 18.936 155.891 18.376C154.883 17.8 154.091 16.992 153.515 15.952C152.955 14.912 152.675 13.712 152.675 12.352C152.675 10.976 152.955 9.768 153.515 8.728C154.075 7.688 154.859 6.888 155.867 6.328C156.875 5.768 158.035 5.488 159.347 5.488C160.611 5.488 161.739 5.76 162.731 6.304C163.739 6.848 164.515 7.624 165.059 8.632C165.619 9.624 165.899 10.768 165.899 12.064ZM162.419 11.104C162.403 10.24 162.091 9.552 161.483 9.04C160.875 8.512 160.131 8.248 159.251 8.248C158.419 8.248 157.715 8.504 157.139 9.016C156.579 9.512 156.235 10.208 156.107 11.104H162.419ZM171.711 7.768C172.143 7.064 172.703 6.512 173.391 6.112C174.095 5.712 174.895 5.512 175.791 5.512V9.04H174.903C173.847 9.04 173.047 9.288 172.503 9.784C171.975 10.28 171.711 11.144 171.711 12.376V19H168.351V5.704H171.711V7.768ZM183.598 15.904L186.958 5.704H190.534L185.614 19H181.534L176.638 5.704H180.238L183.598 15.904ZM194.126 4.12C193.534 4.12 193.038 3.936 192.638 3.568C192.254 3.184 192.062 2.712 192.062 2.152C192.062 1.592 192.254 1.128 192.638 0.759999C193.038 0.375999 193.534 0.183999 194.126 0.183999C194.718 0.183999 195.206 0.375999 195.59 0.759999C195.99 1.128 196.19 1.592 196.19 2.152C196.19 2.712 195.99 3.184 195.59 3.568C195.206 3.936 194.718 4.12 194.126 4.12ZM195.782 5.704V19H192.422V5.704H195.782ZM198.237 12.352C198.237 10.976 198.517 9.776 199.077 8.752C199.637 7.712 200.413 6.912 201.405 6.352C202.397 5.776 203.533 5.488 204.813 5.488C206.461 5.488 207.821 5.904 208.893 6.736C209.981 7.552 210.709 8.704 211.077 10.192H207.453C207.261 9.616 206.933 9.168 206.469 8.848C206.021 8.512 205.461 8.344 204.789 8.344C203.829 8.344 203.069 8.696 202.509 9.4C201.949 10.088 201.669 11.072 201.669 12.352C201.669 13.616 201.949 14.6 202.509 15.304C203.069 15.992 203.829 16.336 204.789 16.336C206.149 16.336 207.037 15.728 207.453 14.512H211.077C210.709 15.952 209.981 17.096 208.893 17.944C207.805 18.792 206.445 19.216 204.813 19.216C203.533 19.216 202.397 18.936 201.405 18.376C200.413 17.8 199.637 17 199.077 15.976C198.517 14.936 198.237 13.728 198.237 12.352ZM225.899 12.064C225.899 12.544 225.867 12.976 225.803 13.36H216.083C216.163 14.32 216.499 15.072 217.091 15.616C217.683 16.16 218.411 16.432 219.275 16.432C220.523 16.432 221.411 15.896 221.939 14.824H225.563C225.179 16.104 224.443 17.16 223.355 17.992C222.267 18.808 220.931 19.216 219.347 19.216C218.067 19.216 216.915 18.936 215.891 18.376C214.883 17.8 214.091 16.992 213.515 15.952C212.955 14.912 212.675 13.712 212.675 12.352C212.675 10.976 212.955 9.768 213.515 8.728C214.075 7.688 214.859 6.888 215.867 6.328C216.875 5.768 218.035 5.488 219.347 5.488C220.611 5.488 221.739 5.76 222.731 6.304C223.739 6.848 224.515 7.624 225.059 8.632C225.619 9.624 225.899 10.768 225.899 12.064ZM222.419 11.104C222.403 10.24 222.091 9.552 221.483 9.04C220.875 8.512 220.131 8.248 219.251 8.248C218.419 8.248 217.715 8.504 217.139 9.016C216.579 9.512 216.235 10.208 216.107 11.104H222.419ZM233.439 19.216C232.351 19.216 231.375 19.024 230.511 18.64C229.647 18.24 228.959 17.704 228.447 17.032C227.951 16.36 227.679 15.616 227.631 14.8H231.015C231.079 15.312 231.327 15.736 231.759 16.072C232.207 16.408 232.759 16.576 233.415 16.576C234.055 16.576 234.551 16.448 234.903 16.192C235.271 15.936 235.455 15.608 235.455 15.208C235.455 14.776 235.231 14.456 234.783 14.248C234.351 14.024 233.655 13.784 232.695 13.528C231.703 13.288 230.887 13.04 230.247 12.784C229.623 12.528 229.079 12.136 228.615 11.608C228.167 11.08 227.943 10.368 227.943 9.472C227.943 8.736 228.151 8.064 228.567 7.456C228.999 6.848 229.607 6.368 230.391 6.016C231.191 5.664 232.127 5.488 233.199 5.488C234.783 5.488 236.047 5.888 236.991 6.688C237.935 7.472 238.455 8.536 238.551 9.88H235.335C235.287 9.352 235.063 8.936 234.663 8.632C234.279 8.312 233.759 8.152 233.103 8.152C232.495 8.152 232.023 8.264 231.687 8.488C231.367 8.712 231.207 9.024 231.207 9.424C231.207 9.872 231.431 10.216 231.879 10.456C232.327 10.68 233.023 10.912 233.967 11.152C234.927 11.392 235.719 11.64 236.343 11.896C236.967 12.152 237.503 12.552 237.951 13.096C238.415 13.624 238.655 14.328 238.671 15.208C238.671 15.976 238.455 16.664 238.023 17.272C237.607 17.88 236.999 18.36 236.199 18.712C235.415 19.048 234.495 19.216 233.439 19.216Z" fill="#4A4A4A"/>
</svg>
