<svg width="592" height="138" viewBox="0 0 592 138" fill="none" xmlns="http://www.w3.org/2000/svg">
<circle cx="496" cy="41" r="32" fill="white" fill-opacity="0.2"/>
<rect width="592" height="138" rx="10" fill="#1E3888"/>
<path d="M290 19L290 118" stroke="#EFF7FF"/>
<path d="M131.639 75.832V83.672C131.639 84.76 131.325 85.608 130.695 86.216C130.066 86.8133 129.223 87.112 128.167 87.112C127.101 87.112 126.237 86.8027 125.575 86.184C124.925 85.5653 124.599 84.7013 124.599 83.592H126.839C126.85 84.072 126.962 84.4453 127.175 84.712C127.399 84.9787 127.719 85.112 128.135 85.112C128.541 85.112 128.85 84.984 129.063 84.728C129.277 84.472 129.383 84.12 129.383 83.672V75.832H131.639ZM133.676 82.536C133.676 81.64 133.852 80.8453 134.204 80.152C134.567 79.4587 135.052 78.9253 135.66 78.552C136.279 78.1787 136.967 77.992 137.724 77.992C138.386 77.992 138.962 78.1253 139.452 78.392C139.954 78.6587 140.354 78.9947 140.652 79.4V78.136H142.908V87H140.652V85.704C140.364 86.12 139.964 86.4667 139.452 86.744C138.951 87.0107 138.37 87.144 137.708 87.144C136.962 87.144 136.279 86.952 135.66 86.568C135.052 86.184 134.567 85.6453 134.204 84.952C133.852 84.248 133.676 83.4427 133.676 82.536ZM140.652 82.568C140.652 82.024 140.546 81.56 140.332 81.176C140.119 80.7813 139.831 80.4827 139.468 80.28C139.106 80.0667 138.716 79.96 138.3 79.96C137.884 79.96 137.5 80.0613 137.148 80.264C136.796 80.4667 136.508 80.7653 136.284 81.16C136.071 81.544 135.964 82.0027 135.964 82.536C135.964 83.0693 136.071 83.5387 136.284 83.944C136.508 84.3387 136.796 84.6427 137.148 84.856C137.511 85.0693 137.895 85.176 138.3 85.176C138.716 85.176 139.106 85.0747 139.468 84.872C139.831 84.6587 140.119 84.36 140.332 83.976C140.546 83.5813 140.652 83.112 140.652 82.568ZM150.008 78.008C151.064 78.008 151.918 78.344 152.568 79.016C153.219 79.6773 153.544 80.6053 153.544 81.8V87H151.304V82.104C151.304 81.4 151.128 80.8613 150.776 80.488C150.424 80.104 149.944 79.912 149.336 79.912C148.718 79.912 148.227 80.104 147.864 80.488C147.512 80.8613 147.336 81.4 147.336 82.104V87H145.096V78.136H147.336V79.24C147.635 78.856 148.014 78.5573 148.472 78.344C148.942 78.12 149.454 78.008 150.008 78.008ZM164.042 78.136V87H161.786V85.88C161.498 86.264 161.12 86.568 160.65 86.792C160.192 87.0053 159.69 87.112 159.146 87.112C158.453 87.112 157.84 86.968 157.306 86.68C156.773 86.3813 156.352 85.9493 156.042 85.384C155.744 84.808 155.594 84.1253 155.594 83.336V78.136H157.834V83.016C157.834 83.72 158.01 84.264 158.362 84.648C158.714 85.0213 159.194 85.208 159.802 85.208C160.421 85.208 160.906 85.0213 161.258 84.648C161.61 84.264 161.786 83.72 161.786 83.016V78.136H164.042ZM165.676 82.536C165.676 81.64 165.852 80.8453 166.204 80.152C166.567 79.4587 167.052 78.9253 167.66 78.552C168.279 78.1787 168.967 77.992 169.724 77.992C170.386 77.992 170.962 78.1253 171.452 78.392C171.954 78.6587 172.354 78.9947 172.652 79.4V78.136H174.908V87H172.652V85.704C172.364 86.12 171.964 86.4667 171.452 86.744C170.951 87.0107 170.37 87.144 169.708 87.144C168.962 87.144 168.279 86.952 167.66 86.568C167.052 86.184 166.567 85.6453 166.204 84.952C165.852 84.248 165.676 83.4427 165.676 82.536ZM172.652 82.568C172.652 82.024 172.546 81.56 172.332 81.176C172.119 80.7813 171.831 80.4827 171.468 80.28C171.106 80.0667 170.716 79.96 170.3 79.96C169.884 79.96 169.5 80.0613 169.148 80.264C168.796 80.4667 168.508 80.7653 168.284 81.16C168.071 81.544 167.964 82.0027 167.964 82.536C167.964 83.0693 168.071 83.5387 168.284 83.944C168.508 84.3387 168.796 84.6427 169.148 84.856C169.511 85.0693 169.895 85.176 170.3 85.176C170.716 85.176 171.106 85.0747 171.468 84.872C171.831 84.6587 172.119 84.36 172.332 83.976C172.546 83.5813 172.652 83.112 172.652 82.568ZM179.336 79.512C179.624 79.0427 179.998 78.6747 180.456 78.408C180.926 78.1413 181.459 78.008 182.056 78.008V80.36H181.464C180.76 80.36 180.227 80.5253 179.864 80.856C179.512 81.1867 179.336 81.7627 179.336 82.584V87H177.096V78.136H179.336V79.512ZM192.045 78.136L186.557 91.192H184.173L186.093 86.776L182.541 78.136H185.053L187.341 84.328L189.661 78.136H192.045ZM197.513 84.472C198.537 83.6187 199.353 82.9093 199.961 82.344C200.569 81.768 201.076 81.1707 201.481 80.552C201.886 79.9333 202.089 79.3253 202.089 78.728C202.089 78.184 201.961 77.7573 201.705 77.448C201.449 77.1387 201.054 76.984 200.521 76.984C199.988 76.984 199.577 77.1653 199.289 77.528C199.001 77.88 198.852 78.3653 198.841 78.984H196.665C196.708 77.704 197.086 76.7333 197.801 76.072C198.526 75.4107 199.444 75.08 200.553 75.08C201.769 75.08 202.702 75.4053 203.353 76.056C204.004 76.696 204.329 77.544 204.329 78.6C204.329 79.432 204.105 80.2267 203.657 80.984C203.209 81.7413 202.697 82.4027 202.121 82.968C201.545 83.5227 200.793 84.1947 199.865 84.984H204.585V86.84H196.681V85.176L197.513 84.472ZM205.996 81.016C205.996 79.1707 206.327 77.7253 206.988 76.68C207.66 75.6347 208.77 75.112 210.316 75.112C211.863 75.112 212.967 75.6347 213.628 76.68C214.3 77.7253 214.636 79.1707 214.636 81.016C214.636 82.872 214.3 84.328 213.628 85.384C212.967 86.44 211.863 86.968 210.316 86.968C208.77 86.968 207.66 86.44 206.988 85.384C206.327 84.328 205.996 82.872 205.996 81.016ZM212.428 81.016C212.428 80.2267 212.375 79.5653 212.268 79.032C212.172 78.488 211.97 78.0453 211.66 77.704C211.362 77.3627 210.914 77.192 210.316 77.192C209.719 77.192 209.266 77.3627 208.956 77.704C208.658 78.0453 208.455 78.488 208.348 79.032C208.252 79.5653 208.204 80.2267 208.204 81.016C208.204 81.8267 208.252 82.5093 208.348 83.064C208.444 83.608 208.647 84.0507 208.956 84.392C209.266 84.7227 209.719 84.888 210.316 84.888C210.914 84.888 211.367 84.7227 211.676 84.392C211.986 84.0507 212.188 83.608 212.284 83.064C212.38 82.5093 212.428 81.8267 212.428 81.016ZM217.044 84.472C218.068 83.6187 218.884 82.9093 219.492 82.344C220.1 81.768 220.607 81.1707 221.012 80.552C221.418 79.9333 221.62 79.3253 221.62 78.728C221.62 78.184 221.492 77.7573 221.236 77.448C220.98 77.1387 220.586 76.984 220.052 76.984C219.519 76.984 219.108 77.1653 218.82 77.528C218.532 77.88 218.383 78.3653 218.372 78.984H216.196C216.239 77.704 216.618 76.7333 217.332 76.072C218.058 75.4107 218.975 75.08 220.084 75.08C221.3 75.08 222.234 75.4053 222.884 76.056C223.535 76.696 223.86 77.544 223.86 78.6C223.86 79.432 223.636 80.2267 223.188 80.984C222.74 81.7413 222.228 82.4027 221.652 82.968C221.076 83.5227 220.324 84.1947 219.396 84.984H224.116V86.84H216.212V85.176L217.044 84.472ZM233.368 77.272H228.184V80.008C228.408 79.7307 228.728 79.5067 229.144 79.336C229.56 79.1547 230.002 79.064 230.472 79.064C231.325 79.064 232.024 79.2507 232.568 79.624C233.112 79.9973 233.506 80.4773 233.752 81.064C233.997 81.64 234.12 82.2587 234.12 82.92C234.12 84.1467 233.768 85.1333 233.064 85.88C232.37 86.6267 231.378 87 230.088 87C228.872 87 227.901 86.696 227.176 86.088C226.45 85.48 226.04 84.6853 225.944 83.704H228.12C228.216 84.1307 228.429 84.472 228.76 84.728C229.101 84.984 229.533 85.112 230.056 85.112C230.685 85.112 231.16 84.9147 231.48 84.52C231.8 84.1253 231.96 83.6027 231.96 82.952C231.96 82.2907 231.794 81.7893 231.464 81.448C231.144 81.096 230.669 80.92 230.04 80.92C229.592 80.92 229.218 81.032 228.92 81.256C228.621 81.48 228.408 81.7787 228.28 82.152H226.136V75.304H233.368V77.272Z" fill="white"/>
<circle cx="72" cy="67" r="30" fill="white" fill-opacity="0.2"/>
<circle cx="354" cy="67" r="30" fill="white" fill-opacity="0.2"/>
<path d="M80.75 55H63.25C61.8693 55 60.75 56.1193 60.75 57.5V75C60.75 76.3807 61.8693 77.5 63.25 77.5H80.75C82.1307 77.5 83.25 76.3807 83.25 75V57.5C83.25 56.1193 82.1307 55 80.75 55Z" stroke="white" stroke-width="2" stroke-linecap="round" stroke-linejoin="round"/>
<path d="M77 52.5V57.5" stroke="white" stroke-width="2" stroke-linecap="round" stroke-linejoin="round"/>
<path d="M67 52.5V57.5" stroke="white" stroke-width="2" stroke-linecap="round" stroke-linejoin="round"/>
<path d="M60.75 62.5H83.25" stroke="white" stroke-width="2" stroke-linecap="round" stroke-linejoin="round"/>
<path d="M127.763 49.4V47.336H131.619V59H129.315V49.4H127.763ZM133.832 53.016C133.832 51.1707 134.162 49.7253 134.824 48.68C135.496 47.6347 136.605 47.112 138.152 47.112C139.698 47.112 140.802 47.6347 141.464 48.68C142.136 49.7253 142.472 51.1707 142.472 53.016C142.472 54.872 142.136 56.328 141.464 57.384C140.802 58.44 139.698 58.968 138.152 58.968C136.605 58.968 135.496 58.44 134.824 57.384C134.162 56.328 133.832 54.872 133.832 53.016ZM140.264 53.016C140.264 52.2267 140.21 51.5653 140.104 51.032C140.008 50.488 139.805 50.0453 139.496 49.704C139.197 49.3627 138.749 49.192 138.152 49.192C137.554 49.192 137.101 49.3627 136.792 49.704C136.493 50.0453 136.29 50.488 136.184 51.032C136.088 51.5653 136.04 52.2267 136.04 53.016C136.04 53.8267 136.088 54.5093 136.184 55.064C136.28 55.608 136.482 56.0507 136.792 56.392C137.101 56.7227 137.554 56.888 138.152 56.888C138.749 56.888 139.202 56.7227 139.512 56.392C139.821 56.0507 140.024 55.608 140.12 55.064C140.216 54.5093 140.264 53.8267 140.264 53.016ZM145.555 48.7856V51.3584C145.555 51.5376 145.596 51.6688 145.679 51.752C145.769 51.8288 145.916 51.8672 146.121 51.8672H146.745V53H145.9C144.767 53 144.201 52.4496 144.201 51.3488V48.7856H143.567V47.6816H144.201V46.3664H145.555V47.6816H146.745V48.7856H145.555ZM150.995 47.6048C151.398 47.6048 151.756 47.6944 152.07 47.8736C152.384 48.0464 152.627 48.3056 152.8 48.6512C152.979 48.9904 153.068 49.4 153.068 49.88V53H151.724V50.0624C151.724 49.64 151.619 49.3168 151.408 49.0928C151.196 48.8624 150.908 48.7472 150.544 48.7472C150.172 48.7472 149.878 48.8624 149.66 49.0928C149.449 49.3168 149.344 49.64 149.344 50.0624V53H148V45.896H149.344V48.344C149.516 48.1136 149.747 47.9344 150.035 47.8064C150.323 47.672 150.643 47.6048 150.995 47.6048ZM158.313 54.536C158.313 53.64 158.489 52.8453 158.841 52.152C159.203 51.4587 159.689 50.9253 160.297 50.552C160.915 50.1787 161.603 49.992 162.361 49.992C163.022 49.992 163.598 50.1253 164.089 50.392C164.59 50.6587 164.99 50.9947 165.289 51.4V50.136H167.545V59H165.289V57.704C165.001 58.12 164.601 58.4667 164.089 58.744C163.587 59.0107 163.006 59.144 162.345 59.144C161.598 59.144 160.915 58.952 160.297 58.568C159.689 58.184 159.203 57.6453 158.841 56.952C158.489 56.248 158.313 55.4427 158.313 54.536ZM165.289 54.568C165.289 54.024 165.182 53.56 164.969 53.176C164.755 52.7813 164.467 52.4827 164.105 52.28C163.742 52.0667 163.353 51.96 162.937 51.96C162.521 51.96 162.137 52.0613 161.785 52.264C161.433 52.4667 161.145 52.7653 160.921 53.16C160.707 53.544 160.601 54.0027 160.601 54.536C160.601 55.0693 160.707 55.5387 160.921 55.944C161.145 56.3387 161.433 56.6427 161.785 56.856C162.147 57.0693 162.531 57.176 162.937 57.176C163.353 57.176 163.742 57.0747 164.105 56.872C164.467 56.6587 164.755 56.36 164.969 55.976C165.182 55.5813 165.289 55.112 165.289 54.568ZM174.644 50.008C175.7 50.008 176.554 50.344 177.204 51.016C177.855 51.6773 178.18 52.6053 178.18 53.8V59H175.94V54.104C175.94 53.4 175.764 52.8613 175.412 52.488C175.06 52.104 174.58 51.912 173.972 51.912C173.354 51.912 172.863 52.104 172.5 52.488C172.148 52.8613 171.972 53.4 171.972 54.104V59H169.732V50.136H171.972V51.24C172.271 50.856 172.65 50.5573 173.108 50.344C173.578 50.12 174.09 50.008 174.644 50.008ZM179.734 54.536C179.734 53.64 179.91 52.8453 180.262 52.152C180.625 51.4587 181.116 50.9253 181.734 50.552C182.353 50.1787 183.041 49.992 183.798 49.992C184.374 49.992 184.924 50.12 185.446 50.376C185.969 50.6213 186.385 50.952 186.694 51.368V47.16H188.966V59H186.694V57.688C186.417 58.1253 186.028 58.4773 185.526 58.744C185.025 59.0107 184.444 59.144 183.782 59.144C183.036 59.144 182.353 58.952 181.734 58.568C181.116 58.184 180.625 57.6453 180.262 56.952C179.91 56.248 179.734 55.4427 179.734 54.536ZM186.71 54.568C186.71 54.024 186.604 53.56 186.39 53.176C186.177 52.7813 185.889 52.4827 185.526 52.28C185.164 52.0667 184.774 51.96 184.358 51.96C183.942 51.96 183.558 52.0613 183.206 52.264C182.854 52.4667 182.566 52.7653 182.342 53.16C182.129 53.544 182.022 54.0027 182.022 54.536C182.022 55.0693 182.129 55.5387 182.342 55.944C182.566 56.3387 182.854 56.6427 183.206 56.856C183.569 57.0693 183.953 57.176 184.358 57.176C184.774 57.176 185.164 57.0747 185.526 56.872C185.889 56.6587 186.177 56.36 186.39 55.976C186.604 55.5813 186.71 55.112 186.71 54.568ZM194.439 49.4V47.336H198.295V59H195.991V49.4H194.439ZM200.236 49.4V47.336H204.092V59H201.788V49.4H200.236ZM207.684 48.7856V51.3584C207.684 51.5376 207.725 51.6688 207.808 51.752C207.898 51.8288 208.045 51.8672 208.25 51.8672H208.874V53H208.029C206.896 53 206.33 52.4496 206.33 51.3488V48.7856H205.696V47.6816H206.33V46.3664H207.684V47.6816H208.874V48.7856H207.684ZM213.124 47.6048C213.527 47.6048 213.886 47.6944 214.199 47.8736C214.513 48.0464 214.756 48.3056 214.929 48.6512C215.108 48.9904 215.198 49.4 215.198 49.88V53H213.854V50.0624C213.854 49.64 213.748 49.3168 213.537 49.0928C213.326 48.8624 213.038 48.7472 212.673 48.7472C212.302 48.7472 212.007 48.8624 211.79 49.0928C211.578 49.3168 211.473 49.64 211.473 50.0624V53H210.129V45.896H211.473V48.344C211.646 48.1136 211.876 47.9344 212.164 47.8064C212.452 47.672 212.772 47.6048 213.124 47.6048Z" fill="white"/>
<g clip-path="url(#clip0_1816_473)">
<path d="M365.5 65.25C365.5 74 354.25 81.5 354.25 81.5C354.25 81.5 343 74 343 65.25C343 62.2663 344.185 59.4048 346.295 57.295C348.405 55.1853 351.266 54 354.25 54C357.234 54 360.095 55.1853 362.205 57.295C364.315 59.4048 365.5 62.2663 365.5 65.25Z" stroke="white" stroke-width="2" stroke-linecap="round" stroke-linejoin="round"/>
<path d="M354 68.25C356.071 68.25 357.75 66.5711 357.75 64.5C357.75 62.4289 356.071 60.75 354 60.75C351.929 60.75 350.25 62.4289 350.25 64.5C350.25 66.5711 351.929 68.25 354 68.25Z" stroke="white" stroke-width="2" stroke-linecap="round" stroke-linejoin="round"/>
</g>
<path d="M443.554 66.412C442.775 66.412 442.071 66.2787 441.442 66.012C440.823 65.7454 440.332 65.3614 439.97 64.86C439.607 64.3587 439.42 63.7667 439.41 63.084H441.81C441.842 63.5427 442.002 63.9054 442.29 64.172C442.588 64.4387 442.994 64.572 443.506 64.572C444.028 64.572 444.439 64.4494 444.738 64.204C445.036 63.948 445.186 63.6174 445.186 63.212C445.186 62.8814 445.084 62.6094 444.882 62.396C444.679 62.1827 444.423 62.0174 444.114 61.9C443.815 61.772 443.399 61.6334 442.866 61.484C442.14 61.2707 441.548 61.0627 441.09 60.86C440.642 60.6467 440.252 60.332 439.922 59.916C439.602 59.4894 439.442 58.924 439.442 58.22C439.442 57.5587 439.607 56.9827 439.938 56.492C440.268 56.0014 440.732 55.628 441.33 55.372C441.927 55.1054 442.61 54.972 443.378 54.972C444.53 54.972 445.463 55.2547 446.178 55.82C446.903 56.3747 447.303 57.1534 447.378 58.156H444.914C444.892 57.772 444.727 57.4574 444.418 57.212C444.119 56.956 443.719 56.828 443.218 56.828C442.78 56.828 442.428 56.94 442.162 57.164C441.906 57.388 441.778 57.7134 441.778 58.14C441.778 58.4387 441.874 58.6894 442.066 58.892C442.268 59.084 442.514 59.244 442.802 59.372C443.1 59.4894 443.516 59.628 444.05 59.788C444.775 60.0014 445.367 60.2147 445.826 60.428C446.284 60.6414 446.679 60.9614 447.01 61.388C447.34 61.8147 447.506 62.3747 447.506 63.068C447.506 63.6654 447.351 64.22 447.042 64.732C446.732 65.244 446.279 65.6547 445.682 65.964C445.084 66.2627 444.375 66.412 443.554 66.412ZM451.688 58.812C451.976 58.3427 452.349 57.9747 452.808 57.708C453.277 57.4414 453.81 57.308 454.408 57.308V59.66H453.816C453.112 59.66 452.578 59.8254 452.216 60.156C451.864 60.4867 451.688 61.0627 451.688 61.884V66.3H449.448V57.436H451.688V58.812ZM457.053 56.38C456.658 56.38 456.327 56.2574 456.061 56.012C455.805 55.756 455.677 55.4414 455.677 55.068C455.677 54.6947 455.805 54.3854 456.061 54.14C456.327 53.884 456.658 53.756 457.053 53.756C457.447 53.756 457.773 53.884 458.029 54.14C458.295 54.3854 458.429 54.6947 458.429 55.068C458.429 55.4414 458.295 55.756 458.029 56.012C457.773 56.2574 457.447 56.38 457.053 56.38ZM458.157 57.436V66.3H455.917V57.436H458.157ZM470.518 60.572C471.147 60.6894 471.665 61.004 472.07 61.516C472.475 62.028 472.678 62.6147 472.678 63.276C472.678 63.8734 472.529 64.4014 472.23 64.86C471.942 65.308 471.521 65.66 470.966 65.916C470.411 66.172 469.755 66.3 468.998 66.3H464.182V55.132H468.79C469.547 55.132 470.198 55.2547 470.742 55.5C471.297 55.7454 471.713 56.0867 471.99 56.524C472.278 56.9614 472.422 57.4574 472.422 58.012C472.422 58.6627 472.246 59.2067 471.894 59.644C471.553 60.0814 471.094 60.3907 470.518 60.572ZM466.422 59.74H468.47C469.003 59.74 469.414 59.6227 469.702 59.388C469.99 59.1427 470.134 58.796 470.134 58.348C470.134 57.9 469.99 57.5534 469.702 57.308C469.414 57.0627 469.003 56.94 468.47 56.94H466.422V59.74ZM468.678 64.476C469.222 64.476 469.643 64.348 469.942 64.092C470.251 63.836 470.406 63.4734 470.406 63.004C470.406 62.524 470.246 62.1507 469.926 61.884C469.606 61.6067 469.174 61.468 468.63 61.468H466.422V64.476H468.678ZM473.887 61.836C473.887 60.94 474.063 60.1454 474.415 59.452C474.778 58.7587 475.263 58.2254 475.871 57.852C476.49 57.4787 477.178 57.292 477.935 57.292C478.597 57.292 479.173 57.4254 479.663 57.692C480.165 57.9587 480.565 58.2947 480.863 58.7V57.436H483.119V66.3H480.863V65.004C480.575 65.42 480.175 65.7667 479.663 66.044C479.162 66.3107 478.581 66.444 477.919 66.444C477.173 66.444 476.49 66.252 475.871 65.868C475.263 65.484 474.778 64.9454 474.415 64.252C474.063 63.548 473.887 62.7427 473.887 61.836ZM480.863 61.868C480.863 61.324 480.757 60.86 480.543 60.476C480.33 60.0814 480.042 59.7827 479.679 59.58C479.317 59.3667 478.927 59.26 478.511 59.26C478.095 59.26 477.711 59.3614 477.359 59.564C477.007 59.7667 476.719 60.0654 476.495 60.46C476.282 60.844 476.175 61.3027 476.175 61.836C476.175 62.3694 476.282 62.8387 476.495 63.244C476.719 63.6387 477.007 63.9427 477.359 64.156C477.722 64.3694 478.106 64.476 478.511 64.476C478.927 64.476 479.317 64.3747 479.679 64.172C480.042 63.9587 480.33 63.66 480.543 63.276C480.757 62.8814 480.863 62.412 480.863 61.868ZM487.547 54.46V66.3H485.307V54.46H487.547ZM489.184 61.836C489.184 60.94 489.36 60.1454 489.712 59.452C490.075 58.7587 490.56 58.2254 491.168 57.852C491.787 57.4787 492.475 57.292 493.232 57.292C493.894 57.292 494.47 57.4254 494.96 57.692C495.462 57.9587 495.862 58.2947 496.16 58.7V57.436H498.416V66.3H496.16V65.004C495.872 65.42 495.472 65.7667 494.96 66.044C494.459 66.3107 493.878 66.444 493.216 66.444C492.47 66.444 491.787 66.252 491.168 65.868C490.56 65.484 490.075 64.9454 489.712 64.252C489.36 63.548 489.184 62.7427 489.184 61.836ZM496.16 61.868C496.16 61.324 496.054 60.86 495.84 60.476C495.627 60.0814 495.339 59.7827 494.976 59.58C494.614 59.3667 494.224 59.26 493.808 59.26C493.392 59.26 493.008 59.3614 492.656 59.564C492.304 59.7667 492.016 60.0654 491.792 60.46C491.579 60.844 491.472 61.3027 491.472 61.836C491.472 62.3694 491.579 62.8387 491.792 63.244C492.016 63.6387 492.304 63.9427 492.656 64.156C493.019 64.3694 493.403 64.476 493.808 64.476C494.224 64.476 494.614 64.3747 494.976 64.172C495.339 63.9587 495.627 63.66 495.84 63.276C496.054 62.8814 496.16 62.412 496.16 61.868ZM501.74 56.38C501.335 56.38 500.999 56.2574 500.732 56.012C500.476 55.756 500.348 55.4414 500.348 55.068C500.348 54.6947 500.476 54.3854 500.732 54.14C500.999 53.884 501.335 53.756 501.74 53.756C502.135 53.756 502.46 53.884 502.716 54.14C502.972 54.3854 503.1 54.6947 503.1 55.068C503.1 55.4414 502.972 55.756 502.716 56.012C502.46 56.2574 502.135 56.38 501.74 56.38ZM502.844 67.756C502.844 68.7374 502.599 69.4414 502.108 69.868C501.628 70.3054 500.935 70.524 500.028 70.524H499.036V68.62H499.676C500.017 68.62 500.257 68.5507 500.396 68.412C500.535 68.284 500.604 68.0707 500.604 67.772V57.436H502.844V67.756ZM506.193 56.38C505.798 56.38 505.468 56.2574 505.201 56.012C504.945 55.756 504.817 55.4414 504.817 55.068C504.817 54.6947 504.945 54.3854 505.201 54.14C505.468 53.884 505.798 53.756 506.193 53.756C506.588 53.756 506.913 53.884 507.169 54.14C507.436 54.3854 507.569 54.6947 507.569 55.068C507.569 55.4414 507.436 55.756 507.169 56.012C506.913 56.2574 506.588 56.38 506.193 56.38ZM507.297 57.436V66.3H505.057V57.436H507.297ZM411.906 79.132V86.044C411.906 86.8014 412.103 87.3827 412.498 87.788C412.892 88.1827 413.447 88.38 414.162 88.38C414.887 88.38 415.447 88.1827 415.842 87.788C416.236 87.3827 416.434 86.8014 416.434 86.044V79.132H418.69V86.028C418.69 86.9774 418.482 87.7827 418.066 88.444C417.66 89.0947 417.111 89.5854 416.418 89.916C415.735 90.2467 414.972 90.412 414.13 90.412C413.298 90.412 412.54 90.2467 411.858 89.916C411.186 89.5854 410.652 89.0947 410.258 88.444C409.863 87.7827 409.666 86.9774 409.666 86.028V79.132H411.906ZM425.766 81.308C426.822 81.308 427.675 81.644 428.326 82.316C428.977 82.9774 429.302 83.9054 429.302 85.1V90.3H427.062V85.404C427.062 84.7 426.886 84.1614 426.534 83.788C426.182 83.404 425.702 83.212 425.094 83.212C424.475 83.212 423.985 83.404 423.622 83.788C423.27 84.1614 423.094 84.7 423.094 85.404V90.3H420.854V81.436H423.094V82.54C423.393 82.156 423.771 81.8574 424.23 81.644C424.699 81.42 425.211 81.308 425.766 81.308ZM432.568 80.38C432.173 80.38 431.843 80.2574 431.576 80.012C431.32 79.756 431.192 79.4414 431.192 79.068C431.192 78.6947 431.32 78.3854 431.576 78.14C431.843 77.884 432.173 77.756 432.568 77.756C432.963 77.756 433.288 77.884 433.544 78.14C433.811 78.3854 433.944 78.6947 433.944 79.068C433.944 79.4414 433.811 79.756 433.544 80.012C433.288 80.2574 432.963 80.38 432.568 80.38ZM433.672 81.436V90.3H431.432V81.436H433.672ZM439.581 88.236L441.821 81.436H444.205L440.925 90.3H438.205L434.941 81.436H437.341L439.581 88.236ZM453.703 85.676C453.703 85.996 453.682 86.284 453.639 86.54H447.159C447.213 87.18 447.437 87.6814 447.831 88.044C448.226 88.4067 448.711 88.588 449.287 88.588C450.119 88.588 450.711 88.2307 451.063 87.516H453.479C453.223 88.3694 452.733 89.0734 452.007 89.628C451.282 90.172 450.391 90.444 449.335 90.444C448.482 90.444 447.714 90.2574 447.031 89.884C446.359 89.5 445.831 88.9614 445.447 88.268C445.074 87.5747 444.887 86.7747 444.887 85.868C444.887 84.9507 445.074 84.1454 445.447 83.452C445.821 82.7587 446.343 82.2254 447.015 81.852C447.687 81.4787 448.461 81.292 449.335 81.292C450.178 81.292 450.93 81.4734 451.591 81.836C452.263 82.1987 452.781 82.716 453.143 83.388C453.517 84.0494 453.703 84.812 453.703 85.676ZM451.383 85.036C451.373 84.46 451.165 84.0014 450.759 83.66C450.354 83.308 449.858 83.132 449.271 83.132C448.717 83.132 448.247 83.3027 447.863 83.644C447.49 83.9747 447.261 84.4387 447.175 85.036H451.383ZM457.578 82.812C457.866 82.3427 458.24 81.9747 458.698 81.708C459.168 81.4414 459.701 81.308 460.298 81.308V83.66H459.706C459.002 83.66 458.469 83.8254 458.106 84.156C457.754 84.4867 457.578 85.0627 457.578 85.884V90.3H455.338V81.436H457.578V82.812ZM465.199 90.444C464.474 90.444 463.823 90.316 463.247 90.06C462.671 89.7934 462.212 89.436 461.871 88.988C461.54 88.54 461.359 88.044 461.327 87.5H463.583C463.626 87.8414 463.791 88.124 464.079 88.348C464.378 88.572 464.746 88.684 465.183 88.684C465.61 88.684 465.94 88.5987 466.175 88.428C466.42 88.2574 466.543 88.0387 466.543 87.772C466.543 87.484 466.394 87.2707 466.095 87.132C465.807 86.9827 465.343 86.8227 464.703 86.652C464.042 86.492 463.498 86.3267 463.071 86.156C462.655 85.9854 462.292 85.724 461.983 85.372C461.684 85.02 461.535 84.5454 461.535 83.948C461.535 83.4574 461.674 83.0094 461.951 82.604C462.239 82.1987 462.644 81.8787 463.167 81.644C463.7 81.4094 464.324 81.292 465.039 81.292C466.095 81.292 466.938 81.5587 467.567 82.092C468.196 82.6147 468.543 83.324 468.607 84.22H466.463C466.431 83.868 466.282 83.5907 466.015 83.388C465.759 83.1747 465.412 83.068 464.975 83.068C464.57 83.068 464.255 83.1427 464.031 83.292C463.818 83.4414 463.711 83.6494 463.711 83.916C463.711 84.2147 463.86 84.444 464.159 84.604C464.458 84.7534 464.922 84.908 465.551 85.068C466.191 85.228 466.719 85.3934 467.135 85.564C467.551 85.7347 467.908 86.0014 468.207 86.364C468.516 86.716 468.676 87.1854 468.687 87.772C468.687 88.284 468.543 88.7427 468.255 89.148C467.978 89.5534 467.572 89.8734 467.039 90.108C466.516 90.332 465.903 90.444 465.199 90.444ZM471.662 80.38C471.267 80.38 470.937 80.2574 470.67 80.012C470.414 79.756 470.286 79.4414 470.286 79.068C470.286 78.6947 470.414 78.3854 470.67 78.14C470.937 77.884 471.267 77.756 471.662 77.756C472.057 77.756 472.382 77.884 472.638 78.14C472.905 78.3854 473.038 78.6947 473.038 79.068C473.038 79.4414 472.905 79.756 472.638 80.012C472.382 80.2574 472.057 80.38 471.662 80.38ZM472.766 81.436V90.3H470.526V81.436H472.766ZM477.587 83.276V87.564C477.587 87.8627 477.656 88.0814 477.795 88.22C477.944 88.348 478.19 88.412 478.531 88.412H479.571V90.3H478.163C476.275 90.3 475.331 89.3827 475.331 87.548V83.276H474.275V81.436H475.331V79.244H477.587V81.436H479.571V83.276H477.587ZM489.662 81.436L484.174 94.492H481.79L483.71 90.076L480.158 81.436H482.67L484.958 87.628L487.278 81.436H489.662ZM493.318 87.948L491.446 92.444H490.006L491.046 87.948H493.318ZM506.889 82.588C506.889 83.1854 506.745 83.7454 506.457 84.268C506.179 84.7907 505.737 85.212 505.129 85.532C504.531 85.852 503.774 86.012 502.857 86.012H500.985V90.3H498.745V79.132H502.857C503.721 79.132 504.457 79.2814 505.065 79.58C505.673 79.8787 506.126 80.2894 506.425 80.812C506.734 81.3347 506.889 81.9267 506.889 82.588ZM502.761 84.204C503.379 84.204 503.838 84.0654 504.137 83.788C504.435 83.5 504.585 83.1 504.585 82.588C504.585 81.5 503.977 80.956 502.761 80.956H500.985V84.204H502.761ZM516.847 81.436V90.3H514.591V89.18C514.303 89.564 513.924 89.868 513.455 90.092C512.996 90.3054 512.495 90.412 511.951 90.412C511.258 90.412 510.644 90.268 510.111 89.98C509.578 89.6814 509.156 89.2494 508.847 88.684C508.548 88.108 508.399 87.4254 508.399 86.636V81.436H510.639V86.316C510.639 87.02 510.815 87.564 511.167 87.948C511.519 88.3214 511.999 88.508 512.607 88.508C513.226 88.508 513.711 88.3214 514.063 87.948C514.415 87.564 514.591 87.02 514.591 86.316V81.436H516.847ZM523.969 81.308C525.025 81.308 525.878 81.644 526.529 82.316C527.18 82.9774 527.505 83.9054 527.505 85.1V90.3H525.265V85.404C525.265 84.7 525.089 84.1614 524.737 83.788C524.385 83.404 523.905 83.212 523.297 83.212C522.678 83.212 522.188 83.404 521.825 83.788C521.473 84.1614 521.297 84.7 521.297 85.404V90.3H519.057V81.436H521.297V82.54C521.596 82.156 521.974 81.8574 522.433 81.644C522.902 81.42 523.414 81.308 523.969 81.308ZM537.875 85.676C537.875 85.996 537.854 86.284 537.811 86.54H531.331C531.385 87.18 531.609 87.6814 532.003 88.044C532.398 88.4067 532.883 88.588 533.459 88.588C534.291 88.588 534.883 88.2307 535.235 87.516H537.651C537.395 88.3694 536.905 89.0734 536.179 89.628C535.454 90.172 534.563 90.444 533.507 90.444C532.654 90.444 531.886 90.2574 531.203 89.884C530.531 89.5 530.003 88.9614 529.619 88.268C529.246 87.5747 529.059 86.7747 529.059 85.868C529.059 84.9507 529.246 84.1454 529.619 83.452C529.993 82.7587 530.515 82.2254 531.187 81.852C531.859 81.4787 532.633 81.292 533.507 81.292C534.35 81.292 535.102 81.4734 535.763 81.836C536.435 82.1987 536.953 82.716 537.315 83.388C537.689 84.0494 537.875 84.812 537.875 85.676ZM535.555 85.036C535.545 84.46 535.337 84.0014 534.931 83.66C534.526 83.308 534.03 83.132 533.443 83.132C532.889 83.132 532.419 83.3027 532.035 83.644C531.662 83.9747 531.433 84.4387 531.347 85.036H535.555Z" fill="white"/>
<defs>
<clipPath id="clip0_1816_473">
<rect width="30" height="30" fill="white" transform="translate(339 52)"/>
</clipPath>
</defs>
</svg>
