<svg width="1519" height="419" viewBox="0 0 1519 419" fill="none" xmlns="http://www.w3.org/2000/svg">
<path d="M116.996 145C41.8356 73.4493 93.1554 103.051 17.9949 31.5L24.8739 325.635L1488.02 325.635L1500.88 98.4111C1500.88 98.4111 1427.62 62.9291 1405.6 93.0209C1391.32 112.546 1413.25 133.415 1402.1 154.89C1377.31 202.641 1317.83 155.026 1264.65 147.114C1214.92 139.714 1181.36 89.6945 1139.38 117.39C1107.97 138.115 1136.06 192.568 1100.82 205.754C1064.78 219.238 1050.73 168.193 1012.87 161.346C996.63 158.41 985.661 165.889 970.685 158.96C955.886 152.113 957.682 132.292 941.746 128.845C922.313 124.641 916.917 148.847 897.959 154.845C837.421 173.998 813.517 49.554 755.773 75.9711C734.551 85.68 734.531 116.342 711.203 115.801C687.059 115.242 606.881 64.2379 542.798 83.6371C491.981 99.0205 488.27 157.259 436.306 168.157C378.135 180.358 382.75 123.381 291.747 120.548C179.086 117.04 192.157 216.551 116.996 145Z" fill="#1E3888"/>
<path d="M114.627 154.183C39.1524 82.1029 93.4731 110.58 17.9989 38.5001L19.102 332.758L1503.42 344L1503.42 104.258C1503.42 104.258 1429.81 68.4554 1407.62 98.6835C1393.22 118.297 1415.24 139.32 1404 160.9C1378.99 208.884 1319.24 160.902 1265.77 152.858C1215.77 145.336 1182.1 94.977 1139.84 122.763C1108.21 143.556 1136.38 198.364 1100.92 211.569C1064.65 225.072 1050.59 173.713 1012.53 166.766C996.205 163.787 985.161 171.291 970.111 164.298C955.238 157.389 957.076 137.458 941.055 133.965C921.518 129.705 916.052 154.041 896.976 160.043C836.062 179.208 812.222 54.0148 754.106 80.4897C732.747 90.2199 732.677 121.057 709.218 120.476C684.936 119.874 604.383 68.4498 539.903 87.8565C488.771 103.246 484.945 161.811 432.667 172.688C374.144 184.864 378.878 127.57 287.359 124.573C174.061 120.864 190.101 226.263 114.627 154.183Z" fill="white"/>
</svg>
