<svg width="79" height="117" viewBox="0 0 79 117" fill="none" xmlns="http://www.w3.org/2000/svg">
<g clip-path="url(#clip0_584_115)">
<path d="M17.5958 94C17.3428 93.8745 17.0899 93.8117 16.8369 93.6861C14.6869 92.9326 13.3589 90.7976 13.6118 88.5999C13.8648 86.2766 15.5089 84.5184 17.8487 84.2044C19.0503 84.0789 20.315 84.0789 21.5165 84.0789C38.3378 84.0789 55.159 84.0789 72.0435 84.0789C72.3597 84.0789 72.7391 84.0789 73.1818 84.0789C73.1818 87.4068 73.1818 90.672 73.1818 93.8745C54.6531 94 36.1245 94 17.5958 94Z" fill="white"/>
<path d="M73.0557 78.9927C58.3846 78.9927 43.7134 78.9927 29.0422 78.9927C29.0422 78.6787 28.979 78.4275 28.979 78.1764C28.979 67.3761 28.979 56.5758 28.979 45.7756C28.979 45.0849 29.232 44.8337 29.8011 44.6453C34.9234 42.9499 40.0456 41.1917 45.1679 39.4336C47.065 38.8056 47.5709 38.1149 47.5709 36.1056C47.5709 35.1009 47.5709 34.0962 47.5709 33.0287C56.108 33.0287 64.5186 33.0287 73.0557 33.0287C73.0557 48.2873 73.0557 63.5458 73.0557 78.9927Z" fill="white" fill-opacity="0.65"/>
<path d="M48.8988 15.1958C47.6341 15.6981 46.4958 16.1376 45.3575 16.5144C39.5396 18.7121 33.6585 20.9098 27.8406 23.1076C27.2083 23.3587 26.7024 23.3587 26.07 23.1076C19.0506 20.5959 12.0944 18.0842 5.07504 15.5725C4.75885 15.4469 4.5059 15.3841 4 15.1958C5.58094 14.6306 6.97218 14.1283 8.36341 13.6259C14.371 11.491 20.3786 9.29328 26.3862 7.15835C26.7656 7.03276 27.2083 6.96997 27.5877 7.09555C34.4806 9.67004 41.3735 12.2445 48.2032 14.8818C48.3929 14.9446 48.5826 15.0702 48.8988 15.1958Z" fill="white" fill-opacity="0.65"/>
<path d="M10.2607 22.982C12.2211 23.6727 14.055 24.3634 15.9521 24.9913C19.1773 26.1216 22.4024 27.3147 25.6275 28.5077C26.5761 28.8845 27.4614 28.8845 28.4732 28.5077C32.7734 26.8751 37.0736 25.2425 41.3737 23.6727C41.6899 23.5471 42.0061 23.4843 42.4488 23.296C42.4488 25.4937 42.4488 27.6286 42.4488 29.7636C42.4488 31.2078 42.4488 32.7148 42.4488 34.159C42.4488 34.6614 42.3223 34.9125 41.8164 35.1009C36.8206 36.7963 31.8881 38.4917 26.8923 40.1243C26.5761 40.2499 26.0702 40.2499 25.754 40.1243C20.8215 38.4917 15.9521 36.7963 11.0196 35.1009C10.7666 34.9753 10.3872 34.6614 10.3872 34.4102C10.2607 30.6427 10.2607 26.8751 10.2607 22.982Z" fill="white"/>
<path d="M23.6673 78.9298C20.3157 79.181 16.8377 78.3647 13.6758 80.1857C13.6758 67.2505 13.6758 54.4408 13.6758 41.5684C13.9287 41.6312 14.1184 41.6312 14.3082 41.7568C17.2171 42.7615 20.0628 43.7661 22.9717 44.708C23.4776 44.8964 23.7306 45.0848 23.7306 45.7127C23.7306 56.513 23.7306 67.376 23.7306 78.1763C23.7306 78.4275 23.7306 78.6786 23.6673 78.9298Z" fill="white"/>
</g>
<path d="M6 39.6298C4 39.6298 2.06452 39.6298 0 39.6298C0 131.199 0 114.02 0 19C2 19 3.93548 19 6 19C6 25.8255 6 32.651 6 39.6298Z" fill="white"/>
<path d="M6 43C6 45.4702 6 47.7859 6 50.2561C4 50.2561 2 50.2561 0 50.2561C0 143.35 0 137.329 0 43C2 43 3.93548 43 6 43Z" fill="white" fill-opacity="0.65"/>
<defs>
<clipPath id="clip0_584_115">
<rect width="75" height="94" fill="white" transform="translate(4)"/>
</clipPath>
</defs>
</svg>
