<svg width="106" height="106" viewBox="0 0 106 106" fill="none" xmlns="http://www.w3.org/2000/svg">
<path d="M76.2564 24.1044C78.546 24.1044 80.666 24.1044 82.786 24.1044C84.7152 24.1044 85.1604 24.6768 84.8424 26.5424C81.8956 43.3116 78.9488 60.102 76.0232 76.8712C75.472 79.9876 74.942 83.104 74.3908 86.2204C74.1364 87.6408 73.7548 87.98 72.292 87.98C59.5296 87.98 46.746 87.98 33.9836 87.98C26.924 87.98 19.8432 87.98 12.7836 87.98C10.6424 87.98 10.2184 87.4712 10.5788 85.33C13.2076 70.2992 15.8576 55.2684 18.4864 40.2376C18.5288 39.962 18.5924 39.6864 18.6772 39.326C38.9232 39.326 59.1692 39.326 79.4788 39.326C79.6696 38.3084 79.8392 37.3544 80.03 36.2944C59.7416 36.2944 39.5168 36.2944 19.186 36.2944C19.6736 33.496 20.1188 30.8248 20.5852 28.1536C20.7124 27.4116 20.8396 26.6484 20.9668 25.9064C21.2636 24.4012 21.624 24.1044 23.108 24.0832C26.2032 24.0832 29.3196 24.0832 32.4148 24.0832C32.754 24.0832 33.1144 24.0832 33.5384 24.0832C33.8988 22.6204 34.238 21.1788 34.5772 19.7372C34.9376 18.2744 35.298 17.9988 36.8244 17.9988C39.5592 17.9988 42.2728 17.9988 45.0076 17.9988C46.5976 17.9988 47.1912 18.762 46.7884 20.3096C46.4916 21.4544 46.216 22.578 45.9192 23.7228C45.898 23.8076 45.9192 23.9136 45.9192 24.0408C51.8976 24.0408 57.876 24.0408 63.9816 24.0408C64.3208 22.6628 64.66 21.2636 64.9992 19.8432C65.3808 18.2532 65.72 17.9776 67.3524 17.9988C70.0448 17.9988 72.7372 17.9988 75.4296 17.9988C77.0408 17.9988 77.6344 18.7408 77.2316 20.2884C76.9136 21.5392 76.5956 22.7688 76.2564 24.1044ZM45.4316 45.4104C36.1884 45.3892 28.6836 52.8728 28.6624 62.116C28.6412 71.3168 36.1248 78.8216 45.3044 78.864C54.5264 78.9064 62.0948 71.4228 62.116 62.2856C62.1372 52.9152 54.7172 45.4316 45.4316 45.4104Z" fill="white" fill-opacity="0.65"/>
<path d="M75.5992 87.9164C78.97 68.7728 82.2984 49.714 85.648 30.634C85.7116 30.634 85.754 30.634 85.8176 30.634C86.1568 32.4996 86.4748 34.3652 86.814 36.2308C89.252 50.2016 91.69 64.1724 94.1492 78.1432C94.6156 80.772 95.082 83.3796 95.5272 86.0084C95.7392 87.238 95.1244 88.0012 93.8736 88.0012C87.8528 88.0224 81.832 88.0012 75.8112 88.0012C75.7476 87.98 75.7052 87.9376 75.5992 87.9164Z" fill="white"/>
<path d="M45.4317 48.4419C53.0001 48.4631 59.1057 54.6111 59.0845 62.2219C59.0633 69.7267 52.8941 75.8535 45.3681 75.8111C37.7997 75.79 31.6941 69.6208 31.7153 62.0312C31.7365 54.5264 37.8845 48.4207 45.4317 48.4419ZM42.6757 64.4267C41.9973 63.4303 41.3825 62.4763 40.7465 61.5435C40.1529 60.6955 39.2837 60.4623 38.5417 60.9287C37.7997 61.3951 37.6301 62.3067 38.1813 63.1759C39.1141 64.6175 40.0469 66.038 41.0221 67.4372C41.6581 68.3488 42.5273 68.4971 43.3753 67.7975C46.3857 65.3383 49.3537 62.8156 52.3429 60.3352C52.4489 60.2504 52.5337 60.1655 52.6185 60.0595C53.1061 59.4235 53.1485 58.7663 52.6397 58.1515C52.1097 57.4943 51.4101 57.3884 50.6893 57.8124C50.3713 58.0032 50.0957 58.2787 49.7989 58.5119C47.4457 60.4623 45.0925 62.4127 42.6757 64.4267Z" fill="white"/>
</svg>
