<svg width="78" height="78" viewBox="0 0 78 78" fill="none" xmlns="http://www.w3.org/2000/svg">
<path d="M39 43.875C41.6924 43.875 43.875 41.6924 43.875 39C43.875 36.3076 41.6924 34.125 39 34.125C36.3076 34.125 34.125 36.3076 34.125 39C34.125 41.6924 36.3076 43.875 39 43.875Z" fill="white" fill-opacity="0.65"/>
<path d="M42.6562 60.9375H35.3438V75.5625H42.6562V60.9375Z" fill="white" fill-opacity="0.65"/>
<path d="M41.4375 18.2812V17.0625H53.625C54.2715 17.0625 54.8915 16.8057 55.3486 16.3486C55.8057 15.8915 56.0625 15.2715 56.0625 14.625V4.875C56.0625 4.22853 55.8057 3.60855 55.3486 3.15143C54.8915 2.69431 54.2715 2.4375 53.625 2.4375H39C38.3535 2.4375 37.7335 2.69431 37.2764 3.15143C36.8193 3.60855 36.5625 4.22853 36.5625 4.875V18.2812L18.0375 32.175C17.7348 32.402 17.4891 32.6965 17.3198 33.0349C17.1506 33.3734 17.0625 33.7466 17.0625 34.125V73.125C17.0625 73.7715 17.3193 74.3914 17.7764 74.8486C18.2335 75.3057 18.8535 75.5625 19.5 75.5625H30.4688V58.5C30.4688 57.8535 30.7256 57.2335 31.1827 56.7764C31.6398 56.3193 32.2598 56.0625 32.9062 56.0625H45.0938C45.7402 56.0625 46.3602 56.3193 46.8173 56.7764C47.2744 57.2335 47.5312 57.8535 47.5312 58.5V75.5625H58.5C59.1465 75.5625 59.7665 75.3057 60.2236 74.8486C60.6807 74.3914 60.9375 73.7715 60.9375 73.125V34.125C60.9375 33.7466 60.8494 33.3734 60.6802 33.0349C60.5109 32.6965 60.2652 32.402 59.9625 32.175L41.4375 18.2812ZM39 48.75C37.0716 48.75 35.1866 48.1782 33.5832 47.1068C31.9798 46.0355 30.7301 44.5127 29.9922 42.7312C29.2542 40.9496 29.0611 38.9892 29.4373 37.0979C29.8135 35.2066 30.7421 33.4693 32.1057 32.1057C33.4693 30.7421 35.2066 29.8135 37.0979 29.4373C38.9892 29.0611 40.9496 29.2542 42.7312 29.9922C44.5127 30.7301 46.0355 31.9798 47.1068 33.5832C48.1782 35.1866 48.75 37.0716 48.75 39C48.75 41.5859 47.7228 44.0658 45.8943 45.8943C44.0658 47.7228 41.5859 48.75 39 48.75ZM2.4375 43.875V73.125C2.4375 73.7715 2.69431 74.3914 3.15143 74.8486C3.60855 75.3057 4.22853 75.5625 4.875 75.5625H12.1875V41.4375H4.875C4.22853 41.4375 3.60855 41.6943 3.15143 42.1514C2.69431 42.6085 2.4375 43.2285 2.4375 43.875ZM73.125 41.4375H65.8125V75.5625H73.125C73.7715 75.5625 74.3914 75.3057 74.8486 74.8486C75.3057 74.3914 75.5625 73.7715 75.5625 73.125C75.5625 61.7022 75.5625 55.2978 75.5625 43.875C75.5625 43.2285 75.3057 42.6085 74.8486 42.1514C74.3914 41.6943 73.7715 41.4375 73.125 41.4375Z" fill="white"/>
</svg>
