<svg width="117" height="117" viewBox="0 0 117 117" fill="none" xmlns="http://www.w3.org/2000/svg">
<path d="M97.3288 74.4769C90.0144 67.1626 80.999 62.1695 71.1758 59.859L64.7772 66.2577L67.5813 100.209C67.6763 101.361 67.3626 102.51 66.6949 103.453L60.2967 112.494C59.884 113.077 59.2137 113.424 58.4992 113.424C57.7846 113.424 57.1144 113.077 56.7017 112.494L50.3034 103.453C49.636 102.51 49.322 101.361 49.417 100.209L52.2211 66.2574L45.8225 59.8588C35.9993 62.1693 26.9839 67.1621 19.6696 74.4767C9.29791 84.8483 3.58594 98.6383 3.58594 113.306C3.58594 115.346 5.23971 117 7.27966 117H109.719C111.759 117 113.412 115.346 113.412 113.306C113.413 98.6383 107.7 84.8485 97.3288 74.4769Z" fill="#1E3888"/>
<path d="M87.6951 9.14634C87.1522 8.9649 86.5542 9.15091 86.21 9.60817L76.613 22.3584L58.9785 0.495422C58.7258 0.181898 58.3451 0 57.9426 0C57.5404 0 57.1595 0.181898 56.9068 0.495422L39.2725 22.3584L30.8 10.8166C30.4595 10.3527 29.8597 10.1603 29.3131 10.3394C28.7664 10.5186 28.3965 11.0286 28.3965 11.604V31.4936H88.604V10.4084C88.604 9.836 88.2379 9.32778 87.6951 9.14634Z" fill="#1E3888"/>
<path d="M28.3965 38.8812V46.2664C28.3965 47.9039 29.7239 49.2314 31.3617 49.2314H85.6392C87.2767 49.2314 88.6042 47.9039 88.6042 46.2664V38.8812H28.3965Z" fill="#FF6600"/>
</svg>
