<svg width="149" height="156" viewBox="0 0 149 156" fill="none" xmlns="http://www.w3.org/2000/svg">
<path d="M136.583 19.5H130.375V13C130.375 9.40745 127.595 6.5 124.167 6.5C120.738 6.5 117.958 9.40745 117.958 13V22.8637C114.52 25.5508 111.203 28.3634 107.981 31.2767C98.6368 23.918 87.0657 19.5 74.5 19.5C43.6918 19.5 18.625 45.7411 18.625 78C18.625 110.259 43.6918 136.5 74.5 136.5C105.308 136.5 130.375 110.259 130.375 78C130.375 64.8433 126.155 52.7286 119.127 42.9461C121.909 39.5726 124.596 36.0997 127.162 32.5H136.583C140.012 32.5 142.792 29.5925 142.792 26C142.792 22.4074 140.012 19.5 136.583 19.5ZM117.958 78C117.958 103.086 98.4635 123.5 74.5 123.5C50.5365 123.5 31.0417 103.086 31.0417 78C31.0417 52.9139 50.5365 32.5 74.5 32.5C83.4133 32.5 91.7027 35.332 98.6063 40.1706C96.8003 41.9692 95.0043 43.7781 93.2287 45.6085C91.9491 46.9534 90.6951 48.3242 89.4329 49.6866C84.9821 47.1016 79.9404 45.5 74.5 45.5C57.3849 45.5 43.4583 60.0808 43.4583 78C43.4583 95.9192 57.3849 110.5 74.5 110.5C91.6151 110.5 105.542 95.9192 105.542 78C105.542 72.304 104.012 67.0254 101.542 62.3655C102.844 61.0441 104.153 59.7311 105.437 58.3914C107.186 56.5324 108.913 54.652 110.631 52.7605C115.253 59.9891 117.958 68.6686 117.958 78ZM93.125 78C93.125 88.7529 84.7704 97.5 74.5 97.5C64.2296 97.5 55.875 88.7529 55.875 78C55.875 67.247 64.2296 58.5 74.5 58.5C76.6468 58.5 78.6776 58.9589 80.5984 59.6615C76.92 64.0516 73.3881 68.5951 70.1101 73.4038C68.5977 75.6301 68.509 78.7117 70.1101 81.0602C72.1297 84.0222 76.0602 84.7099 78.8899 82.5961C83.4828 79.1641 87.8225 75.4663 92.0156 71.615C92.6867 73.6261 93.125 75.7523 93.125 78Z" fill="#1E3888" fill-opacity="0.1"/>
</svg>
