<svg width="106" height="106" viewBox="0 0 106 106" fill="none" xmlns="http://www.w3.org/2000/svg">
<g clip-path="url(#clip0_170_2332)">
<path d="M16.8458 20.9929C22.619 20.9929 27.299 16.3128 27.299 10.5396C27.299 4.76649 22.619 0.0864258 16.8458 0.0864258C11.0726 0.0864258 6.39258 4.76649 6.39258 10.5396C6.39258 16.3128 11.0726 20.9929 16.8458 20.9929Z" fill="#1E3888"/>
<path d="M5.18342 57.6214H6.2201V78.3551C6.2201 81.2068 8.55264 83.5385 11.4035 83.5385H22.2887C25.1396 83.5385 27.4721 81.2068 27.4721 78.3551V77.1465C26.5218 75.3314 25.9171 73.2589 25.9171 71.0992V43.9726C25.9171 38.7028 29.1135 34.1241 33.6922 32.1372V30.0638C33.6922 27.2129 31.3597 24.8804 28.5088 24.8804H5.18342C2.33254 24.8804 0 27.2129 0 30.0638V52.4389C0 55.2897 2.24615 57.6214 5.18342 57.6214Z" fill="#1E3888"/>
<path d="M89.2403 20.9929C95.0135 20.9929 99.6936 16.3128 99.6936 10.5396C99.6936 4.76649 95.0135 0.0864258 89.2403 0.0864258C83.4672 0.0864258 78.7871 4.76649 78.7871 10.5396C78.7871 16.3128 83.4672 20.9929 89.2403 20.9929Z" fill="#1E3888"/>
<path d="M72.3086 29.9774V32.0507C76.8881 34.0377 80.0837 38.6164 80.0837 43.8862V70.9263C80.0837 73.0861 79.5654 75.1595 78.5296 76.9737V78.1831C78.5296 81.034 80.8612 83.3666 83.713 83.3666H94.5982C97.449 83.3666 99.7816 81.034 99.7816 78.1831V57.4495H100.817C103.669 57.4495 106.001 55.1169 106.001 52.2661V29.9774C106.001 27.1265 103.669 24.7939 100.817 24.7939H77.492C74.642 24.7939 72.3086 27.1256 72.3086 29.9774Z" fill="#1E3888"/>
<path d="M33.7793 43.9719V52.4381V71.0984C33.7793 73.9493 36.1118 76.2818 38.9627 76.2818H40.9497V100.73C40.9497 103.581 43.2822 105.914 46.1331 105.914H60.0419C62.8928 105.914 65.2254 103.581 65.2254 100.73V76.1954H67.2123C70.0632 76.1954 72.3958 73.8638 72.3958 71.012V52.439V43.9727C72.3958 41.1218 70.0632 38.7893 67.2123 38.7893H38.9627C36.0254 38.7884 33.7793 41.1218 33.7793 43.9719Z" fill="#FF6600"/>
<path d="M53.0434 34.4699C59.6754 34.4699 65.0517 29.0936 65.0517 22.4616C65.0517 15.8296 59.6754 10.4534 53.0434 10.4534C46.4114 10.4534 41.0352 15.8296 41.0352 22.4616C41.0352 29.0936 46.4114 34.4699 53.0434 34.4699Z" fill="#FF6600"/>
</g>
<defs>
<clipPath id="clip0_170_2332">
<rect width="106" height="106" fill="white"/>
</clipPath>
</defs>
</svg>
