<svg width="144" height="104" viewBox="0 0 144 104" fill="none" xmlns="http://www.w3.org/2000/svg">
<path fill-rule="evenodd" clip-rule="evenodd" d="M72.54 0C27 0 0 51.75 0 51.75C0 51.75 27 103.5 72.54 103.5C117 103.5 144 51.75 144 51.75C144 51.75 117 0 72.54 0ZM72 86.25C52.2 86.25 36 70.8975 36 51.75C36 32.775 52.2 17.25 72 17.25C91.98 17.25 108 32.775 108 51.75C108 70.8975 91.98 86.25 72 86.25ZM90 51.75C90 61.3237 81.99 69 72 69C62.01 69 54 61.3237 54 51.75C54 42.1763 62.01 34.5 72 34.5C81.99 34.5 90 42.1763 90 51.75Z" fill="#1E3888" fill-opacity="0.1"/>
</svg>
