<svg width="110" height="110" viewBox="0 0 110 110" fill="none" xmlns="http://www.w3.org/2000/svg">
<path d="M101.75 17.4167C100.833 17.875 99.9166 18.7917 98.9999 19.7084C98.9999 29.3334 98.9999 39.4167 98.9999 49.5C98.9999 52.7084 97.6249 54.5417 93.9583 55C94.4166 53.625 94.8749 52.25 95.3333 50.875C95.3333 50.4167 95.7916 49.9584 95.7916 49.5C95.7916 39.875 95.7916 29.7917 95.7916 20.1667C95.7916 20.1667 95.7916 19.7084 95.7916 19.25C68.7499 19.25 41.2499 19.25 14.2083 19.25C14.2083 19.7084 14.2083 20.625 14.2083 21.0834C14.2083 30.25 14.2083 39.875 14.2083 49.0417C14.2083 50.875 15.1249 52.25 15.5833 54.0834V54.5417C13.2916 54.5417 11.9166 53.625 11.4583 51.3334C11.4583 50.4167 10.9999 49.5 10.9999 48.5834C10.9999 38.9584 10.9999 28.875 10.9999 19.25C9.16659 18.7917 8.24992 17.875 7.33325 17.4167C7.33325 14.6667 7.33325 11.9167 7.33325 9.16669C38.9583 9.16669 70.1249 9.16669 101.75 9.16669C101.75 11.9167 101.75 14.6667 101.75 17.4167Z" fill="white" fill-opacity="0.65"/>
<path d="M16.4999 101.75C14.6666 100.375 14.2083 99.4583 16.0416 98.0833C17.4166 96.7083 19.7083 95.7917 21.5416 94.875C21.9999 94.4167 22.9166 94.4167 23.3749 94.4167V93.9583C22.9166 93.5 22.4583 93.5 21.9999 93.5C19.7083 93.5 17.4166 93.5 15.5833 93.5C13.7499 93.5 12.8333 92.5833 13.2916 90.75C13.2916 87.0833 13.7499 83.875 13.7499 81.125C13.7499 77.9167 13.7499 74.7083 13.2916 71.5C13.2916 70.125 13.2916 68.75 14.6666 68.75C16.4999 68.75 17.4166 69.2083 16.9583 71.0417C16.9583 76.5417 16.9583 82.0417 16.9583 88C18.3333 88 19.2499 88 20.6249 88C24.2916 88 27.9583 88 31.6249 88C35.2916 88 35.7499 88.9167 35.2916 92.125C32.5416 93.0417 28.8749 91.6667 26.1249 93.0417C28.8749 93.9583 30.7083 94.875 32.9999 95.7917C33.4583 96.25 33.9166 96.7083 34.3749 97.1667C35.7499 98.5417 35.2916 99.9167 33.4583 100.833H32.9999C31.1666 100.833 31.1666 99.4583 32.0833 97.625C29.7916 96.7083 27.9583 96.25 25.2083 95.3333C25.6666 96.7083 25.2083 97.625 25.6666 98.0833C27.0416 99.4583 26.1249 100.375 24.7499 101.292H24.2916C22.9166 100.375 21.9999 99.4583 23.8333 98.0833C24.2916 97.625 24.2916 96.7083 24.2916 95.3333C21.9999 96.25 20.6249 96.7083 18.7916 97.1667C18.3333 97.1667 17.8749 98.0833 17.8749 98.0833C18.7916 100.375 17.8749 100.833 16.4999 101.75Z" fill="white"/>
<path d="M83.8749 101.75C82.4999 100.833 81.5832 99.9167 82.9582 98.5417C83.4165 98.0834 83.4165 97.1667 83.4165 95.7917C80.6665 96.7084 78.8332 97.1667 76.5415 98.0834C76.9999 99 76.9999 99.4584 76.9999 99.9167C76.9999 100.375 76.5415 101.292 76.0832 101.75C75.6249 101.75 74.7082 101.75 74.2499 101.292C73.7915 100.833 73.7915 99.9167 73.7915 99.4584C74.7082 96.7084 77.4582 95.7917 79.7499 95.3334C80.6665 94.875 81.1249 94.875 82.4999 94.4167C82.0415 93.9584 81.5832 93.5 80.6665 93.5C78.3749 93.5 75.6249 93.5 73.3332 93.5C72.8749 89.8334 73.3332 88.9167 76.9999 88.9167C81.5832 88.9167 86.6249 88.9167 91.2082 88.9167C91.2082 85.25 91.2082 81.5834 91.2082 78.375C91.2082 76.0834 91.2082 73.7917 91.2082 71.5C91.2082 70.125 92.1249 69.6667 93.4999 69.6667C94.8749 69.6667 95.7915 70.125 95.3332 71.5C93.9582 77.9167 95.3332 83.875 95.3332 90.2917C95.3332 93.5 95.3332 93.5 92.1249 93.5C90.2915 93.5 88.4582 93.5 86.6249 93.5C86.1665 93.5 85.7082 93.9584 84.7915 93.9584V94.4167C86.1665 94.875 87.5415 94.875 88.4582 95.7917C89.8332 96.25 91.2082 97.1667 92.1249 98.0834C93.9582 99.4584 93.4999 100.375 91.6665 101.75H91.2082C90.7499 101.292 89.3749 100.375 89.8332 99.9167C90.2915 98.0834 88.9165 97.625 87.9999 97.1667C86.6249 96.7084 85.2499 96.25 83.8749 95.7917C83.8749 96.7084 83.8749 97.625 84.3332 98.0834C86.6249 99.9167 85.7082 100.833 83.8749 101.75C84.3332 101.75 84.3332 101.75 83.8749 101.75Z" fill="white"/>
<path d="M32.9998 78.8334C35.7498 78.8334 38.0415 78.8334 40.7915 78.8334C43.5415 78.8334 44.9165 80.2084 44.9165 82.9584C44.9165 87.5417 44.9165 92.125 44.9165 97.1667C42.6248 97.1667 40.7915 97.1667 38.4998 97.1667C38.4998 93.9584 38.4998 91.2084 38.4998 88.4584C38.4998 87.0834 38.0415 86.1667 36.2082 86.625C32.5415 86.625 28.8748 86.625 25.2082 86.625C21.9998 86.625 20.1665 84.7917 20.1665 81.125C20.1665 76.5417 20.1665 71.9584 20.1665 67.8334C20.1665 64.625 21.9998 62.3334 25.6665 62.3334C31.6248 62.3334 33.9165 64.625 33.9165 70.5834C33.4582 73.3334 33.4582 76.0834 32.9998 78.8334Z" fill="white"/>
<path d="M70.5832 97.1667C68.2915 97.1667 66.4582 97.1667 64.1665 97.1667C64.1665 92.1251 64.1665 87.0834 64.1665 81.5834C64.1665 79.75 65.9998 78.8334 67.8332 78.8334C70.5832 78.8334 72.8748 78.8334 75.6248 78.8334C75.6248 76.0834 75.1665 73.7917 75.1665 71.5001C75.1665 70.5834 75.1665 70.1251 75.1665 69.2084C75.1665 63.7084 80.6665 60.5001 85.7082 62.3334C87.9998 63.2501 88.9165 65.0834 88.9165 66.9167C88.9165 71.5001 88.9165 76.0834 88.9165 80.6667C88.9165 83.8751 87.0832 85.7084 83.8748 86.1667C80.2082 86.1667 76.5415 86.1667 72.4165 86.1667C71.0415 86.1667 70.5832 86.6251 70.5832 88.0001C70.5832 91.2084 70.5832 93.9584 70.5832 97.1667Z" fill="white"/>
<path d="M60.4998 58.6667C60.4998 61.875 60.4998 65.0834 60.4998 68.2917C56.3748 68.2917 52.2498 68.2917 48.1248 68.2917C48.1248 65.0834 48.1248 61.875 48.1248 58.6667H47.6665C47.2082 60.0417 47.2082 60.9584 46.7498 62.3334C46.2915 63.7084 46.2915 65.0834 46.2915 66.4584C46.2915 68.2917 44.9165 69.2084 43.0832 69.2084C41.2498 69.2084 40.7915 67.8334 40.7915 66.4584C41.2498 63.25 41.2498 60.5 42.6248 57.2917C44.4582 51.7917 49.9582 49.0417 56.3748 49.5C62.7915 50.4167 66.4582 53.625 67.3748 60.0417C67.8332 62.3334 67.8332 64.1667 68.2915 66.4584C68.2915 67.8334 67.8332 69.2084 65.9998 69.2084C64.1665 69.2084 63.2498 68.2917 62.7915 66.4584C62.7915 65.0834 62.3332 63.7084 62.3332 62.3334C62.3332 60.9584 61.8748 60.0417 61.4165 58.6667C60.9582 58.6667 60.9582 58.6667 60.4998 58.6667Z" fill="white"/>
<path d="M67.3749 71.5C67.3749 176.458 67.3749 -27.9583 67.3749 76.5417C64.1666 76.5417 60.4999 76.5417 57.2916 76.5417C57.2916 82.5 57.2916 88.4583 57.2916 94.875C55.4583 94.875 54.0832 94.875 52.2499 94.875C52.2499 88.9167 52.2499 82.9583 52.2499 77C48.5832 77 44.9166 77 41.7083 77C41.7083 75.1667 41.7083 73.3333 41.7083 71.5C49.9583 71.5 58.6666 71.5 67.3749 71.5Z" fill="white"/>
<path d="M88.9166 54.5417C88.9166 58.2083 86.1666 60.9583 82.4999 60.9583C78.8333 60.9583 76.0833 58.2083 76.0833 54.5417C76.0833 50.875 78.8333 48.125 82.4999 48.125C86.1666 48.125 88.9166 50.875 88.9166 54.5417Z" fill="white"/>
<path d="M32.9998 54.5417C32.9998 58.2083 30.2498 60.9583 26.5832 60.9583C22.9165 60.9583 20.1665 58.2083 20.1665 54.5417C20.1665 50.875 22.9165 48.125 26.5832 48.125C30.2498 48.125 32.9998 50.875 32.9998 54.5417Z" fill="white"/>
<path d="M60.9583 41.25C60.9583 44.9167 58.2083 47.6667 54.5417 47.6667C50.875 47.6667 48.125 44.9167 48.125 41.25C48.125 37.5834 50.875 34.8334 54.5417 34.8334C58.2083 34.8334 60.9583 37.5834 60.9583 41.25Z" fill="white"/>
</svg>
